G04 EAGLE Gerber RS-274X export*
G75*
%MOMM*%
%FSLAX34Y34*%
%LPD*%
%INBottom Copper*%
%IPPOS*%
%AMOC8*
5,1,8,0,0,1.08239X$1,22.5*%
G01*
%ADD10C,1.320800*%
%ADD11C,1.879600*%
%ADD12C,1.408000*%
%ADD13P,1.429621X8X22.500000*%
%ADD14P,1.429621X8X202.500000*%
%ADD15P,1.429621X8X292.500000*%
%ADD16P,1.429621X8X112.500000*%
%ADD17C,0.609600*%
%ADD18C,0.406400*%
%ADD19C,0.756400*%

G36*
X437585Y10162D02*
X437585Y10162D01*
X437593Y10161D01*
X437706Y10182D01*
X437820Y10200D01*
X437827Y10204D01*
X437834Y10206D01*
X437936Y10262D01*
X438037Y10316D01*
X438042Y10321D01*
X438049Y10325D01*
X438127Y10411D01*
X438206Y10494D01*
X438210Y10501D01*
X438215Y10507D01*
X438261Y10613D01*
X438310Y10717D01*
X438311Y10725D01*
X438314Y10732D01*
X438324Y10847D01*
X438337Y10961D01*
X438335Y10969D01*
X438336Y10977D01*
X438309Y11089D01*
X438285Y11202D01*
X438281Y11209D01*
X438279Y11216D01*
X438218Y11314D01*
X438159Y11413D01*
X438152Y11418D01*
X438148Y11425D01*
X438024Y11538D01*
X436722Y12484D01*
X435394Y13812D01*
X434289Y15333D01*
X433436Y17007D01*
X432855Y18794D01*
X432654Y20067D01*
X443738Y20067D01*
X443758Y20070D01*
X443777Y20068D01*
X443879Y20090D01*
X443981Y20107D01*
X443998Y20116D01*
X444018Y20120D01*
X444107Y20173D01*
X444198Y20222D01*
X444212Y20236D01*
X444229Y20246D01*
X444296Y20325D01*
X444367Y20400D01*
X444376Y20418D01*
X444389Y20433D01*
X444427Y20529D01*
X444471Y20623D01*
X444473Y20643D01*
X444481Y20661D01*
X444499Y20828D01*
X444499Y22352D01*
X444497Y22367D01*
X444498Y22380D01*
X444497Y22384D01*
X444498Y22391D01*
X444476Y22493D01*
X444459Y22595D01*
X444450Y22612D01*
X444446Y22632D01*
X444393Y22721D01*
X444344Y22812D01*
X444330Y22826D01*
X444320Y22843D01*
X444241Y22910D01*
X444166Y22981D01*
X444148Y22990D01*
X444133Y23003D01*
X444037Y23042D01*
X443943Y23085D01*
X443923Y23087D01*
X443905Y23095D01*
X443738Y23113D01*
X432654Y23113D01*
X432855Y24386D01*
X433436Y26173D01*
X434289Y27847D01*
X435394Y29368D01*
X436722Y30696D01*
X438243Y31801D01*
X439917Y32654D01*
X440204Y32747D01*
X440294Y32794D01*
X440386Y32835D01*
X440402Y32850D01*
X440422Y32860D01*
X440493Y32933D01*
X440567Y33001D01*
X440578Y33021D01*
X440593Y33037D01*
X440637Y33128D01*
X440686Y33217D01*
X440690Y33239D01*
X440699Y33259D01*
X440712Y33359D01*
X440730Y33459D01*
X440726Y33481D01*
X440729Y33503D01*
X440709Y33602D01*
X440694Y33702D01*
X440684Y33722D01*
X440679Y33744D01*
X440628Y33831D01*
X440582Y33921D01*
X440566Y33937D01*
X440555Y33956D01*
X440479Y34023D01*
X440407Y34094D01*
X440383Y34107D01*
X440370Y34118D01*
X440340Y34130D01*
X440260Y34174D01*
X436874Y35577D01*
X433087Y39364D01*
X431037Y44312D01*
X431037Y49668D01*
X433087Y54616D01*
X436874Y58403D01*
X438283Y58987D01*
X438344Y59025D01*
X438409Y59054D01*
X438448Y59089D01*
X438492Y59116D01*
X438538Y59172D01*
X438590Y59220D01*
X438615Y59266D01*
X438649Y59306D01*
X438674Y59373D01*
X438709Y59436D01*
X438718Y59487D01*
X438737Y59535D01*
X438740Y59607D01*
X438753Y59678D01*
X438745Y59729D01*
X438747Y59781D01*
X438727Y59850D01*
X438717Y59921D01*
X438693Y59967D01*
X438679Y60017D01*
X438638Y60076D01*
X438605Y60140D01*
X438568Y60177D01*
X438538Y60219D01*
X438481Y60262D01*
X438430Y60312D01*
X438367Y60347D01*
X438341Y60366D01*
X438319Y60373D01*
X438283Y60393D01*
X436874Y60977D01*
X433087Y64764D01*
X431037Y69712D01*
X431037Y75068D01*
X433087Y80016D01*
X436874Y83803D01*
X438283Y84387D01*
X438344Y84425D01*
X438409Y84454D01*
X438448Y84489D01*
X438492Y84516D01*
X438538Y84572D01*
X438590Y84620D01*
X438615Y84666D01*
X438649Y84706D01*
X438674Y84773D01*
X438709Y84836D01*
X438718Y84887D01*
X438737Y84935D01*
X438740Y85007D01*
X438753Y85078D01*
X438745Y85129D01*
X438747Y85181D01*
X438727Y85250D01*
X438717Y85321D01*
X438693Y85367D01*
X438679Y85417D01*
X438638Y85476D01*
X438605Y85540D01*
X438568Y85577D01*
X438538Y85619D01*
X438481Y85662D01*
X438430Y85712D01*
X438367Y85747D01*
X438341Y85766D01*
X438319Y85773D01*
X438283Y85793D01*
X436874Y86377D01*
X433087Y90164D01*
X431037Y95112D01*
X431037Y100468D01*
X433087Y105416D01*
X436874Y109203D01*
X441822Y111253D01*
X447178Y111253D01*
X452126Y109203D01*
X455913Y105416D01*
X457963Y100468D01*
X457963Y95112D01*
X455913Y90164D01*
X452126Y86377D01*
X450717Y85793D01*
X450656Y85756D01*
X450591Y85726D01*
X450552Y85691D01*
X450508Y85664D01*
X450462Y85608D01*
X450410Y85560D01*
X450385Y85514D01*
X450351Y85474D01*
X450326Y85407D01*
X450291Y85344D01*
X450282Y85293D01*
X450263Y85245D01*
X450260Y85173D01*
X450247Y85102D01*
X450255Y85051D01*
X450253Y84999D01*
X450273Y84930D01*
X450283Y84859D01*
X450307Y84813D01*
X450321Y84763D01*
X450362Y84704D01*
X450395Y84640D01*
X450432Y84603D01*
X450462Y84561D01*
X450519Y84518D01*
X450570Y84468D01*
X450633Y84433D01*
X450659Y84414D01*
X450681Y84407D01*
X450717Y84387D01*
X452126Y83803D01*
X455913Y80016D01*
X457963Y75068D01*
X457963Y69712D01*
X455913Y64764D01*
X452126Y60977D01*
X450717Y60393D01*
X450656Y60356D01*
X450591Y60326D01*
X450552Y60291D01*
X450508Y60264D01*
X450462Y60208D01*
X450410Y60160D01*
X450385Y60114D01*
X450351Y60074D01*
X450326Y60007D01*
X450291Y59944D01*
X450282Y59893D01*
X450263Y59845D01*
X450260Y59773D01*
X450247Y59702D01*
X450255Y59651D01*
X450253Y59599D01*
X450273Y59530D01*
X450283Y59459D01*
X450307Y59413D01*
X450321Y59363D01*
X450362Y59304D01*
X450395Y59240D01*
X450432Y59203D01*
X450462Y59161D01*
X450519Y59118D01*
X450570Y59068D01*
X450633Y59033D01*
X450659Y59014D01*
X450681Y59007D01*
X450717Y58987D01*
X452126Y58403D01*
X455913Y54616D01*
X457963Y49668D01*
X457963Y44312D01*
X455913Y39364D01*
X452126Y35577D01*
X448740Y34174D01*
X448654Y34121D01*
X448565Y34073D01*
X448550Y34056D01*
X448531Y34045D01*
X448467Y33967D01*
X448398Y33893D01*
X448389Y33872D01*
X448374Y33855D01*
X448338Y33761D01*
X448296Y33668D01*
X448294Y33646D01*
X448286Y33626D01*
X448282Y33525D01*
X448272Y33424D01*
X448277Y33402D01*
X448276Y33380D01*
X448304Y33283D01*
X448327Y33184D01*
X448338Y33165D01*
X448344Y33144D01*
X448402Y33061D01*
X448455Y32974D01*
X448472Y32960D01*
X448485Y32942D01*
X448566Y32881D01*
X448644Y32816D01*
X448668Y32805D01*
X448682Y32795D01*
X448713Y32785D01*
X448796Y32747D01*
X449083Y32654D01*
X450757Y31801D01*
X452278Y30696D01*
X453606Y29368D01*
X454711Y27847D01*
X455564Y26173D01*
X456145Y24386D01*
X456346Y23113D01*
X445262Y23113D01*
X445242Y23110D01*
X445223Y23112D01*
X445121Y23090D01*
X445019Y23073D01*
X445002Y23064D01*
X444982Y23060D01*
X444893Y23007D01*
X444802Y22958D01*
X444788Y22944D01*
X444771Y22934D01*
X444704Y22855D01*
X444633Y22780D01*
X444624Y22762D01*
X444611Y22747D01*
X444573Y22651D01*
X444529Y22557D01*
X444527Y22537D01*
X444519Y22519D01*
X444501Y22352D01*
X444501Y20828D01*
X444504Y20808D01*
X444502Y20789D01*
X444524Y20687D01*
X444541Y20585D01*
X444550Y20568D01*
X444554Y20548D01*
X444607Y20459D01*
X444656Y20368D01*
X444670Y20354D01*
X444680Y20337D01*
X444759Y20270D01*
X444834Y20199D01*
X444852Y20190D01*
X444867Y20177D01*
X444963Y20138D01*
X445057Y20095D01*
X445077Y20093D01*
X445095Y20085D01*
X445262Y20067D01*
X456346Y20067D01*
X456145Y18794D01*
X455564Y17007D01*
X454711Y15333D01*
X453606Y13812D01*
X452278Y12484D01*
X450976Y11538D01*
X450970Y11532D01*
X450963Y11528D01*
X450884Y11445D01*
X450803Y11363D01*
X450799Y11356D01*
X450794Y11350D01*
X450745Y11246D01*
X450695Y11142D01*
X450693Y11134D01*
X450690Y11127D01*
X450677Y11013D01*
X450662Y10898D01*
X450664Y10890D01*
X450663Y10883D01*
X450687Y10770D01*
X450710Y10657D01*
X450714Y10650D01*
X450715Y10642D01*
X450774Y10544D01*
X450831Y10443D01*
X450837Y10438D01*
X450841Y10431D01*
X450929Y10356D01*
X451015Y10279D01*
X451022Y10276D01*
X451028Y10271D01*
X451136Y10228D01*
X451241Y10183D01*
X451249Y10182D01*
X451257Y10179D01*
X451423Y10161D01*
X489078Y10161D01*
X489098Y10164D01*
X489117Y10162D01*
X489219Y10184D01*
X489321Y10200D01*
X489338Y10210D01*
X489358Y10214D01*
X489447Y10267D01*
X489538Y10316D01*
X489552Y10330D01*
X489569Y10340D01*
X489636Y10419D01*
X489708Y10494D01*
X489716Y10512D01*
X489729Y10527D01*
X489768Y10623D01*
X489811Y10717D01*
X489813Y10737D01*
X489821Y10755D01*
X489839Y10922D01*
X489839Y469012D01*
X489828Y469083D01*
X489826Y469155D01*
X489808Y469204D01*
X489800Y469255D01*
X489766Y469318D01*
X489741Y469386D01*
X489709Y469426D01*
X489684Y469472D01*
X489632Y469522D01*
X489588Y469578D01*
X489544Y469606D01*
X489506Y469642D01*
X489441Y469672D01*
X489381Y469711D01*
X489330Y469723D01*
X489283Y469745D01*
X489212Y469753D01*
X489142Y469771D01*
X489090Y469767D01*
X489039Y469773D01*
X488968Y469757D01*
X488897Y469752D01*
X488849Y469731D01*
X488798Y469720D01*
X488737Y469683D01*
X488671Y469655D01*
X488615Y469611D01*
X488587Y469594D01*
X488572Y469576D01*
X488540Y469551D01*
X487636Y468647D01*
X482688Y466597D01*
X477332Y466597D01*
X472384Y468647D01*
X468597Y472434D01*
X468013Y473843D01*
X467975Y473904D01*
X467946Y473969D01*
X467911Y474008D01*
X467884Y474052D01*
X467828Y474098D01*
X467780Y474150D01*
X467734Y474175D01*
X467694Y474209D01*
X467627Y474234D01*
X467564Y474269D01*
X467513Y474278D01*
X467465Y474297D01*
X467393Y474300D01*
X467322Y474313D01*
X467271Y474305D01*
X467219Y474307D01*
X467150Y474287D01*
X467079Y474277D01*
X467033Y474253D01*
X466983Y474239D01*
X466924Y474198D01*
X466860Y474165D01*
X466823Y474128D01*
X466781Y474098D01*
X466738Y474041D01*
X466688Y473990D01*
X466653Y473927D01*
X466634Y473901D01*
X466627Y473879D01*
X466607Y473843D01*
X466023Y472434D01*
X462236Y468647D01*
X457288Y466597D01*
X451932Y466597D01*
X446984Y468647D01*
X443197Y472434D01*
X442613Y473843D01*
X442575Y473904D01*
X442546Y473969D01*
X442511Y474008D01*
X442484Y474052D01*
X442428Y474098D01*
X442380Y474150D01*
X442334Y474175D01*
X442294Y474209D01*
X442227Y474234D01*
X442164Y474269D01*
X442113Y474278D01*
X442065Y474297D01*
X441993Y474300D01*
X441922Y474313D01*
X441871Y474305D01*
X441819Y474307D01*
X441750Y474287D01*
X441679Y474277D01*
X441633Y474253D01*
X441583Y474239D01*
X441524Y474198D01*
X441460Y474165D01*
X441423Y474128D01*
X441381Y474098D01*
X441338Y474041D01*
X441288Y473990D01*
X441253Y473927D01*
X441234Y473901D01*
X441227Y473879D01*
X441207Y473843D01*
X440623Y472434D01*
X436836Y468647D01*
X435777Y468208D01*
X435677Y468147D01*
X435577Y468087D01*
X435573Y468082D01*
X435568Y468078D01*
X435493Y467989D01*
X435417Y467900D01*
X435415Y467894D01*
X435411Y467889D01*
X435369Y467781D01*
X435325Y467671D01*
X435324Y467664D01*
X435323Y467659D01*
X435322Y467641D01*
X435307Y467505D01*
X435307Y433937D01*
X435322Y433841D01*
X435332Y433744D01*
X435342Y433720D01*
X435346Y433694D01*
X435392Y433608D01*
X435432Y433519D01*
X435449Y433500D01*
X435462Y433477D01*
X435532Y433410D01*
X435598Y433338D01*
X435621Y433326D01*
X435640Y433307D01*
X435728Y433266D01*
X435814Y433220D01*
X435839Y433215D01*
X435863Y433204D01*
X435960Y433193D01*
X436056Y433176D01*
X436082Y433180D01*
X436107Y433177D01*
X436203Y433197D01*
X436299Y433212D01*
X436322Y433223D01*
X436348Y433229D01*
X436431Y433279D01*
X436518Y433323D01*
X436537Y433342D01*
X436559Y433355D01*
X436622Y433429D01*
X436690Y433499D01*
X436706Y433527D01*
X436719Y433542D01*
X436731Y433573D01*
X436771Y433646D01*
X437848Y436245D01*
X440055Y438452D01*
X442939Y439647D01*
X446061Y439647D01*
X448945Y438452D01*
X451152Y436245D01*
X452347Y433361D01*
X452347Y430239D01*
X451152Y427355D01*
X450820Y427023D01*
X450767Y426949D01*
X450707Y426879D01*
X450695Y426849D01*
X450676Y426823D01*
X450649Y426736D01*
X450615Y426651D01*
X450611Y426610D01*
X450604Y426588D01*
X450605Y426556D01*
X450597Y426484D01*
X450597Y218741D01*
X450600Y218722D01*
X450598Y218704D01*
X450613Y218635D01*
X450619Y218560D01*
X450631Y218530D01*
X450636Y218498D01*
X450647Y218479D01*
X450650Y218463D01*
X450683Y218408D01*
X450715Y218333D01*
X450741Y218301D01*
X450752Y218281D01*
X450770Y218263D01*
X450776Y218252D01*
X450787Y218243D01*
X450820Y218202D01*
X455138Y213884D01*
X455196Y213842D01*
X455248Y213793D01*
X455295Y213771D01*
X455337Y213741D01*
X455406Y213720D01*
X455471Y213689D01*
X455523Y213684D01*
X455573Y213668D01*
X455644Y213670D01*
X455715Y213662D01*
X455766Y213673D01*
X455818Y213675D01*
X455886Y213699D01*
X455956Y213715D01*
X456001Y213741D01*
X456049Y213759D01*
X456105Y213804D01*
X456167Y213841D01*
X456201Y213880D01*
X456241Y213913D01*
X456280Y213973D01*
X456327Y214028D01*
X456346Y214076D01*
X456374Y214120D01*
X456392Y214189D01*
X456419Y214256D01*
X456427Y214327D01*
X456435Y214358D01*
X456433Y214382D01*
X456437Y214423D01*
X456437Y218578D01*
X458487Y223526D01*
X462274Y227313D01*
X463683Y227897D01*
X463744Y227934D01*
X463809Y227964D01*
X463848Y227999D01*
X463892Y228026D01*
X463938Y228082D01*
X463990Y228130D01*
X464015Y228176D01*
X464049Y228216D01*
X464074Y228283D01*
X464109Y228346D01*
X464118Y228397D01*
X464137Y228445D01*
X464140Y228517D01*
X464153Y228588D01*
X464145Y228639D01*
X464147Y228691D01*
X464127Y228760D01*
X464117Y228831D01*
X464093Y228877D01*
X464079Y228927D01*
X464038Y228986D01*
X464005Y229050D01*
X463968Y229087D01*
X463938Y229129D01*
X463881Y229172D01*
X463830Y229222D01*
X463767Y229257D01*
X463741Y229276D01*
X463719Y229283D01*
X463683Y229303D01*
X462274Y229887D01*
X458487Y233674D01*
X456437Y238622D01*
X456437Y243978D01*
X458487Y248926D01*
X462274Y252713D01*
X463683Y253297D01*
X463744Y253335D01*
X463809Y253364D01*
X463848Y253399D01*
X463892Y253426D01*
X463938Y253482D01*
X463990Y253530D01*
X464015Y253576D01*
X464049Y253616D01*
X464074Y253683D01*
X464109Y253746D01*
X464118Y253797D01*
X464137Y253845D01*
X464140Y253917D01*
X464153Y253988D01*
X464145Y254039D01*
X464147Y254091D01*
X464127Y254160D01*
X464117Y254231D01*
X464093Y254277D01*
X464079Y254327D01*
X464038Y254386D01*
X464005Y254450D01*
X463968Y254487D01*
X463938Y254529D01*
X463881Y254572D01*
X463830Y254622D01*
X463767Y254657D01*
X463741Y254676D01*
X463719Y254683D01*
X463683Y254703D01*
X462274Y255287D01*
X458487Y259074D01*
X456437Y264022D01*
X456437Y269378D01*
X458487Y274326D01*
X462274Y278113D01*
X463683Y278697D01*
X463744Y278734D01*
X463809Y278764D01*
X463848Y278799D01*
X463892Y278826D01*
X463938Y278882D01*
X463990Y278930D01*
X464015Y278976D01*
X464049Y279016D01*
X464074Y279083D01*
X464109Y279146D01*
X464118Y279197D01*
X464137Y279245D01*
X464140Y279317D01*
X464153Y279388D01*
X464145Y279439D01*
X464147Y279491D01*
X464127Y279560D01*
X464117Y279631D01*
X464093Y279677D01*
X464079Y279727D01*
X464038Y279786D01*
X464005Y279850D01*
X463968Y279887D01*
X463938Y279929D01*
X463881Y279972D01*
X463830Y280022D01*
X463767Y280057D01*
X463741Y280076D01*
X463719Y280083D01*
X463683Y280103D01*
X462274Y280687D01*
X458487Y284474D01*
X456437Y289422D01*
X456437Y294778D01*
X458487Y299726D01*
X462274Y303513D01*
X463683Y304097D01*
X463744Y304134D01*
X463809Y304164D01*
X463848Y304199D01*
X463892Y304226D01*
X463938Y304282D01*
X463990Y304330D01*
X464015Y304376D01*
X464049Y304416D01*
X464074Y304483D01*
X464109Y304546D01*
X464118Y304597D01*
X464137Y304645D01*
X464140Y304717D01*
X464153Y304788D01*
X464145Y304839D01*
X464147Y304891D01*
X464127Y304960D01*
X464117Y305031D01*
X464093Y305077D01*
X464079Y305127D01*
X464038Y305186D01*
X464005Y305250D01*
X463968Y305287D01*
X463938Y305329D01*
X463881Y305372D01*
X463830Y305422D01*
X463767Y305457D01*
X463741Y305476D01*
X463719Y305483D01*
X463683Y305503D01*
X462274Y306087D01*
X458487Y309874D01*
X456437Y314822D01*
X456437Y320178D01*
X458487Y325126D01*
X462274Y328913D01*
X463683Y329497D01*
X463744Y329534D01*
X463809Y329564D01*
X463848Y329599D01*
X463892Y329626D01*
X463938Y329682D01*
X463990Y329730D01*
X464015Y329776D01*
X464049Y329816D01*
X464074Y329883D01*
X464109Y329946D01*
X464118Y329997D01*
X464137Y330045D01*
X464140Y330117D01*
X464153Y330188D01*
X464145Y330239D01*
X464147Y330291D01*
X464127Y330360D01*
X464117Y330431D01*
X464093Y330477D01*
X464079Y330527D01*
X464038Y330586D01*
X464005Y330650D01*
X463968Y330687D01*
X463938Y330729D01*
X463881Y330772D01*
X463830Y330822D01*
X463767Y330857D01*
X463741Y330876D01*
X463719Y330883D01*
X463683Y330903D01*
X462274Y331487D01*
X458487Y335274D01*
X456437Y340222D01*
X456437Y345578D01*
X458487Y350526D01*
X462274Y354313D01*
X463683Y354897D01*
X463744Y354934D01*
X463809Y354964D01*
X463848Y354999D01*
X463892Y355026D01*
X463938Y355082D01*
X463990Y355130D01*
X464015Y355176D01*
X464049Y355216D01*
X464074Y355283D01*
X464109Y355346D01*
X464118Y355397D01*
X464137Y355445D01*
X464140Y355517D01*
X464153Y355588D01*
X464145Y355639D01*
X464147Y355691D01*
X464127Y355760D01*
X464117Y355831D01*
X464093Y355877D01*
X464079Y355927D01*
X464038Y355986D01*
X464005Y356050D01*
X463968Y356087D01*
X463938Y356129D01*
X463881Y356172D01*
X463830Y356222D01*
X463767Y356257D01*
X463741Y356276D01*
X463719Y356283D01*
X463683Y356303D01*
X462274Y356887D01*
X458487Y360674D01*
X456437Y365622D01*
X456437Y370978D01*
X458487Y375926D01*
X462274Y379713D01*
X467222Y381763D01*
X472578Y381763D01*
X477526Y379713D01*
X481313Y375926D01*
X483363Y370978D01*
X483363Y365622D01*
X481313Y360674D01*
X477526Y356887D01*
X476117Y356303D01*
X476056Y356265D01*
X475991Y356236D01*
X475952Y356201D01*
X475908Y356174D01*
X475862Y356118D01*
X475810Y356070D01*
X475785Y356024D01*
X475751Y355984D01*
X475726Y355917D01*
X475691Y355854D01*
X475682Y355803D01*
X475663Y355755D01*
X475660Y355683D01*
X475647Y355612D01*
X475655Y355561D01*
X475653Y355509D01*
X475673Y355440D01*
X475683Y355369D01*
X475707Y355323D01*
X475721Y355273D01*
X475762Y355214D01*
X475795Y355150D01*
X475832Y355113D01*
X475862Y355071D01*
X475919Y355028D01*
X475970Y354978D01*
X476033Y354943D01*
X476059Y354924D01*
X476081Y354917D01*
X476117Y354897D01*
X477526Y354313D01*
X481313Y350526D01*
X483363Y345578D01*
X483363Y340222D01*
X481313Y335274D01*
X477526Y331487D01*
X476117Y330903D01*
X476056Y330865D01*
X475991Y330836D01*
X475952Y330801D01*
X475908Y330774D01*
X475862Y330718D01*
X475810Y330670D01*
X475785Y330624D01*
X475751Y330584D01*
X475726Y330517D01*
X475691Y330454D01*
X475682Y330403D01*
X475663Y330355D01*
X475660Y330283D01*
X475647Y330212D01*
X475655Y330161D01*
X475653Y330109D01*
X475673Y330040D01*
X475683Y329969D01*
X475707Y329923D01*
X475721Y329873D01*
X475762Y329814D01*
X475795Y329750D01*
X475832Y329713D01*
X475862Y329671D01*
X475919Y329628D01*
X475970Y329578D01*
X476033Y329543D01*
X476059Y329524D01*
X476081Y329517D01*
X476117Y329497D01*
X477526Y328913D01*
X481313Y325126D01*
X483363Y320178D01*
X483363Y314822D01*
X481313Y309874D01*
X477526Y306087D01*
X476117Y305503D01*
X476056Y305465D01*
X475991Y305436D01*
X475952Y305401D01*
X475908Y305374D01*
X475862Y305318D01*
X475810Y305270D01*
X475785Y305224D01*
X475751Y305184D01*
X475726Y305117D01*
X475691Y305054D01*
X475682Y305003D01*
X475663Y304955D01*
X475660Y304883D01*
X475647Y304812D01*
X475655Y304761D01*
X475653Y304709D01*
X475673Y304640D01*
X475683Y304569D01*
X475707Y304523D01*
X475721Y304473D01*
X475762Y304414D01*
X475795Y304350D01*
X475832Y304313D01*
X475862Y304271D01*
X475919Y304228D01*
X475970Y304178D01*
X476033Y304143D01*
X476059Y304124D01*
X476081Y304117D01*
X476117Y304097D01*
X477526Y303513D01*
X481313Y299726D01*
X483363Y294778D01*
X483363Y289422D01*
X481313Y284474D01*
X477526Y280687D01*
X476117Y280103D01*
X476056Y280065D01*
X475991Y280036D01*
X475952Y280001D01*
X475908Y279974D01*
X475862Y279918D01*
X475810Y279870D01*
X475785Y279824D01*
X475751Y279784D01*
X475726Y279717D01*
X475691Y279654D01*
X475682Y279603D01*
X475663Y279555D01*
X475660Y279483D01*
X475647Y279412D01*
X475655Y279361D01*
X475653Y279309D01*
X475673Y279240D01*
X475683Y279169D01*
X475707Y279123D01*
X475721Y279073D01*
X475762Y279014D01*
X475795Y278950D01*
X475832Y278913D01*
X475862Y278871D01*
X475919Y278828D01*
X475970Y278778D01*
X476033Y278743D01*
X476059Y278724D01*
X476081Y278717D01*
X476117Y278697D01*
X477526Y278113D01*
X481313Y274326D01*
X483363Y269378D01*
X483363Y264022D01*
X481313Y259074D01*
X477526Y255287D01*
X476117Y254703D01*
X476056Y254666D01*
X475991Y254636D01*
X475952Y254601D01*
X475908Y254574D01*
X475862Y254518D01*
X475810Y254470D01*
X475785Y254424D01*
X475751Y254384D01*
X475726Y254317D01*
X475691Y254254D01*
X475682Y254203D01*
X475663Y254155D01*
X475660Y254083D01*
X475647Y254012D01*
X475655Y253961D01*
X475653Y253909D01*
X475673Y253840D01*
X475683Y253769D01*
X475707Y253723D01*
X475721Y253673D01*
X475762Y253614D01*
X475795Y253550D01*
X475832Y253513D01*
X475862Y253471D01*
X475919Y253428D01*
X475970Y253378D01*
X476033Y253343D01*
X476059Y253324D01*
X476081Y253317D01*
X476117Y253297D01*
X477526Y252713D01*
X481313Y248926D01*
X483363Y243978D01*
X483363Y238622D01*
X481313Y233674D01*
X477526Y229887D01*
X476117Y229303D01*
X476056Y229265D01*
X475991Y229236D01*
X475952Y229201D01*
X475908Y229174D01*
X475862Y229118D01*
X475810Y229070D01*
X475785Y229024D01*
X475751Y228984D01*
X475726Y228917D01*
X475691Y228854D01*
X475682Y228803D01*
X475663Y228755D01*
X475660Y228683D01*
X475647Y228612D01*
X475655Y228561D01*
X475653Y228509D01*
X475673Y228440D01*
X475683Y228369D01*
X475707Y228323D01*
X475721Y228273D01*
X475762Y228214D01*
X475795Y228150D01*
X475832Y228113D01*
X475862Y228071D01*
X475919Y228028D01*
X475970Y227978D01*
X476033Y227943D01*
X476059Y227924D01*
X476081Y227917D01*
X476117Y227897D01*
X477526Y227313D01*
X481313Y223526D01*
X483363Y218578D01*
X483363Y213222D01*
X481313Y208274D01*
X477526Y204487D01*
X476117Y203903D01*
X476056Y203865D01*
X475991Y203836D01*
X475952Y203801D01*
X475908Y203774D01*
X475862Y203718D01*
X475810Y203670D01*
X475785Y203624D01*
X475751Y203584D01*
X475726Y203517D01*
X475691Y203454D01*
X475682Y203403D01*
X475663Y203355D01*
X475660Y203283D01*
X475647Y203212D01*
X475655Y203161D01*
X475653Y203109D01*
X475673Y203040D01*
X475683Y202969D01*
X475707Y202923D01*
X475721Y202873D01*
X475762Y202814D01*
X475795Y202750D01*
X475832Y202713D01*
X475862Y202671D01*
X475919Y202628D01*
X475970Y202578D01*
X476033Y202543D01*
X476059Y202524D01*
X476081Y202517D01*
X476117Y202497D01*
X477526Y201913D01*
X481313Y198126D01*
X483363Y193178D01*
X483363Y187822D01*
X481313Y182874D01*
X477526Y179087D01*
X476117Y178503D01*
X476056Y178465D01*
X475991Y178436D01*
X475952Y178401D01*
X475908Y178374D01*
X475862Y178318D01*
X475810Y178270D01*
X475785Y178224D01*
X475751Y178184D01*
X475726Y178117D01*
X475691Y178054D01*
X475682Y178003D01*
X475663Y177955D01*
X475660Y177883D01*
X475647Y177812D01*
X475655Y177761D01*
X475653Y177709D01*
X475673Y177640D01*
X475683Y177569D01*
X475707Y177523D01*
X475721Y177473D01*
X475762Y177414D01*
X475795Y177350D01*
X475832Y177313D01*
X475862Y177271D01*
X475919Y177228D01*
X475970Y177178D01*
X476033Y177143D01*
X476059Y177124D01*
X476081Y177117D01*
X476117Y177097D01*
X477526Y176513D01*
X481313Y172726D01*
X483363Y167778D01*
X483363Y162422D01*
X481313Y157474D01*
X477526Y153687D01*
X474140Y152284D01*
X474054Y152231D01*
X473965Y152183D01*
X473950Y152166D01*
X473931Y152155D01*
X473867Y152077D01*
X473798Y152003D01*
X473789Y151982D01*
X473774Y151965D01*
X473738Y151871D01*
X473696Y151778D01*
X473694Y151756D01*
X473686Y151736D01*
X473682Y151635D01*
X473672Y151534D01*
X473677Y151512D01*
X473676Y151490D01*
X473704Y151393D01*
X473727Y151294D01*
X473738Y151275D01*
X473744Y151254D01*
X473802Y151171D01*
X473855Y151084D01*
X473872Y151070D01*
X473885Y151052D01*
X473966Y150991D01*
X474044Y150926D01*
X474068Y150915D01*
X474082Y150905D01*
X474113Y150895D01*
X474196Y150857D01*
X474483Y150764D01*
X476157Y149911D01*
X477678Y148806D01*
X479006Y147478D01*
X480111Y145957D01*
X480964Y144283D01*
X481545Y142496D01*
X481746Y141223D01*
X470662Y141223D01*
X470642Y141220D01*
X470623Y141222D01*
X470521Y141200D01*
X470419Y141183D01*
X470402Y141174D01*
X470382Y141170D01*
X470293Y141117D01*
X470202Y141068D01*
X470188Y141054D01*
X470171Y141044D01*
X470104Y140965D01*
X470033Y140890D01*
X470024Y140872D01*
X470011Y140857D01*
X469973Y140761D01*
X469929Y140667D01*
X469927Y140647D01*
X469919Y140629D01*
X469901Y140462D01*
X469901Y139699D01*
X469899Y139699D01*
X469899Y140462D01*
X469896Y140482D01*
X469898Y140501D01*
X469876Y140603D01*
X469859Y140705D01*
X469850Y140722D01*
X469846Y140742D01*
X469793Y140831D01*
X469744Y140922D01*
X469730Y140936D01*
X469720Y140953D01*
X469641Y141020D01*
X469566Y141091D01*
X469548Y141100D01*
X469533Y141113D01*
X469437Y141152D01*
X469343Y141195D01*
X469323Y141197D01*
X469305Y141205D01*
X469138Y141223D01*
X458054Y141223D01*
X458255Y142496D01*
X458836Y144283D01*
X459689Y145957D01*
X460794Y147478D01*
X462122Y148806D01*
X463643Y149911D01*
X465317Y150764D01*
X465604Y150857D01*
X465694Y150904D01*
X465786Y150945D01*
X465802Y150960D01*
X465822Y150970D01*
X465893Y151043D01*
X465967Y151111D01*
X465978Y151131D01*
X465993Y151147D01*
X466037Y151238D01*
X466086Y151327D01*
X466090Y151349D01*
X466099Y151369D01*
X466112Y151469D01*
X466130Y151569D01*
X466126Y151591D01*
X466129Y151613D01*
X466109Y151712D01*
X466094Y151812D01*
X466084Y151832D01*
X466079Y151854D01*
X466028Y151941D01*
X465982Y152031D01*
X465966Y152047D01*
X465955Y152066D01*
X465879Y152133D01*
X465807Y152204D01*
X465783Y152217D01*
X465770Y152228D01*
X465740Y152240D01*
X465660Y152284D01*
X462274Y153687D01*
X458487Y157474D01*
X458048Y158533D01*
X457986Y158633D01*
X457927Y158733D01*
X457922Y158737D01*
X457918Y158742D01*
X457828Y158817D01*
X457740Y158893D01*
X457734Y158895D01*
X457729Y158899D01*
X457621Y158941D01*
X457511Y158985D01*
X457504Y158986D01*
X457499Y158987D01*
X457481Y158988D01*
X457345Y159003D01*
X449816Y159003D01*
X449725Y158989D01*
X449635Y158981D01*
X449605Y158969D01*
X449573Y158964D01*
X449492Y158921D01*
X449408Y158885D01*
X449376Y158859D01*
X449355Y158848D01*
X449333Y158825D01*
X449277Y158780D01*
X448945Y158448D01*
X446061Y157253D01*
X442939Y157253D01*
X440055Y158448D01*
X437848Y160655D01*
X436653Y163539D01*
X436653Y166661D01*
X437848Y169545D01*
X440055Y171752D01*
X442939Y172947D01*
X446061Y172947D01*
X448945Y171752D01*
X449277Y171420D01*
X449351Y171367D01*
X449421Y171307D01*
X449451Y171295D01*
X449477Y171276D01*
X449564Y171249D01*
X449649Y171215D01*
X449690Y171211D01*
X449712Y171204D01*
X449744Y171205D01*
X449816Y171197D01*
X457345Y171197D01*
X457459Y171216D01*
X457576Y171233D01*
X457581Y171235D01*
X457588Y171236D01*
X457690Y171291D01*
X457795Y171344D01*
X457799Y171349D01*
X457805Y171352D01*
X457885Y171436D01*
X457967Y171520D01*
X457971Y171526D01*
X457974Y171530D01*
X457982Y171547D01*
X458048Y171667D01*
X458487Y172726D01*
X462274Y176513D01*
X463683Y177097D01*
X463744Y177134D01*
X463809Y177164D01*
X463848Y177199D01*
X463892Y177226D01*
X463938Y177282D01*
X463990Y177330D01*
X464015Y177376D01*
X464049Y177416D01*
X464074Y177483D01*
X464109Y177546D01*
X464118Y177597D01*
X464137Y177645D01*
X464140Y177717D01*
X464153Y177788D01*
X464145Y177839D01*
X464147Y177891D01*
X464127Y177960D01*
X464117Y178031D01*
X464093Y178077D01*
X464079Y178127D01*
X464038Y178186D01*
X464005Y178250D01*
X463968Y178287D01*
X463938Y178329D01*
X463881Y178372D01*
X463830Y178422D01*
X463767Y178457D01*
X463741Y178476D01*
X463719Y178483D01*
X463683Y178503D01*
X462274Y179087D01*
X458487Y182874D01*
X456437Y187822D01*
X456437Y193178D01*
X456876Y194237D01*
X456903Y194350D01*
X456931Y194464D01*
X456931Y194471D01*
X456932Y194477D01*
X456921Y194593D01*
X456912Y194710D01*
X456910Y194715D01*
X456909Y194722D01*
X456861Y194830D01*
X456816Y194936D01*
X456811Y194942D01*
X456809Y194946D01*
X456796Y194960D01*
X456711Y195067D01*
X439331Y212446D01*
X438403Y214687D01*
X438403Y426484D01*
X438389Y426575D01*
X438381Y426665D01*
X438369Y426695D01*
X438364Y426727D01*
X438321Y426808D01*
X438285Y426892D01*
X438259Y426924D01*
X438248Y426945D01*
X438225Y426967D01*
X438180Y427023D01*
X437848Y427355D01*
X436771Y429954D01*
X436720Y430037D01*
X436674Y430123D01*
X436656Y430141D01*
X436642Y430163D01*
X436566Y430226D01*
X436496Y430293D01*
X436472Y430304D01*
X436452Y430320D01*
X436361Y430355D01*
X436273Y430396D01*
X436247Y430399D01*
X436223Y430408D01*
X436125Y430413D01*
X436029Y430423D01*
X436003Y430418D01*
X435977Y430419D01*
X435883Y430392D01*
X435788Y430371D01*
X435766Y430358D01*
X435741Y430350D01*
X435661Y430295D01*
X435577Y430245D01*
X435560Y430225D01*
X435539Y430210D01*
X435480Y430132D01*
X435417Y430058D01*
X435407Y430034D01*
X435392Y430013D01*
X435362Y429920D01*
X435325Y429830D01*
X435322Y429797D01*
X435316Y429779D01*
X435316Y429746D01*
X435307Y429663D01*
X435307Y198049D01*
X435325Y197935D01*
X435343Y197818D01*
X435345Y197813D01*
X435346Y197807D01*
X435401Y197704D01*
X435454Y197599D01*
X435459Y197595D01*
X435462Y197589D01*
X435546Y197509D01*
X435630Y197427D01*
X435636Y197423D01*
X435640Y197420D01*
X435657Y197412D01*
X435777Y197346D01*
X436245Y197152D01*
X438452Y194945D01*
X439647Y192061D01*
X439647Y188939D01*
X438452Y186055D01*
X436245Y183848D01*
X433361Y182653D01*
X430239Y182653D01*
X427355Y183848D01*
X425148Y186055D01*
X423953Y188939D01*
X423953Y189698D01*
X423943Y189763D01*
X423942Y189828D01*
X423919Y189908D01*
X423914Y189941D01*
X423904Y189958D01*
X423895Y189989D01*
X423113Y191877D01*
X423113Y467505D01*
X423094Y467620D01*
X423077Y467736D01*
X423075Y467741D01*
X423074Y467747D01*
X423019Y467850D01*
X422966Y467955D01*
X422961Y467959D01*
X422958Y467965D01*
X422874Y468045D01*
X422790Y468127D01*
X422784Y468131D01*
X422780Y468134D01*
X422763Y468142D01*
X422643Y468208D01*
X421584Y468647D01*
X417797Y472434D01*
X417213Y473843D01*
X417176Y473904D01*
X417146Y473969D01*
X417111Y474008D01*
X417084Y474052D01*
X417028Y474098D01*
X416980Y474150D01*
X416934Y474175D01*
X416894Y474209D01*
X416827Y474234D01*
X416764Y474269D01*
X416713Y474278D01*
X416665Y474297D01*
X416593Y474300D01*
X416522Y474313D01*
X416471Y474305D01*
X416419Y474307D01*
X416350Y474287D01*
X416279Y474277D01*
X416233Y474253D01*
X416183Y474239D01*
X416124Y474198D01*
X416060Y474165D01*
X416023Y474128D01*
X415981Y474098D01*
X415938Y474041D01*
X415888Y473990D01*
X415853Y473927D01*
X415834Y473901D01*
X415827Y473879D01*
X415807Y473843D01*
X415223Y472434D01*
X411436Y468647D01*
X406488Y466597D01*
X401132Y466597D01*
X396184Y468647D01*
X392397Y472434D01*
X391813Y473843D01*
X391776Y473904D01*
X391746Y473969D01*
X391711Y474008D01*
X391684Y474052D01*
X391628Y474098D01*
X391580Y474150D01*
X391534Y474175D01*
X391494Y474209D01*
X391427Y474234D01*
X391364Y474269D01*
X391313Y474278D01*
X391265Y474297D01*
X391193Y474300D01*
X391122Y474313D01*
X391071Y474305D01*
X391019Y474307D01*
X390950Y474287D01*
X390879Y474277D01*
X390833Y474253D01*
X390783Y474239D01*
X390724Y474198D01*
X390660Y474165D01*
X390623Y474128D01*
X390581Y474098D01*
X390538Y474041D01*
X390488Y473990D01*
X390453Y473927D01*
X390434Y473901D01*
X390427Y473879D01*
X390407Y473843D01*
X389823Y472434D01*
X386036Y468647D01*
X381088Y466597D01*
X375732Y466597D01*
X370784Y468647D01*
X366997Y472434D01*
X365594Y475820D01*
X365541Y475906D01*
X365493Y475995D01*
X365476Y476010D01*
X365465Y476029D01*
X365387Y476093D01*
X365313Y476162D01*
X365292Y476171D01*
X365275Y476186D01*
X365181Y476222D01*
X365088Y476264D01*
X365066Y476266D01*
X365046Y476274D01*
X364945Y476278D01*
X364844Y476288D01*
X364822Y476283D01*
X364800Y476284D01*
X364703Y476256D01*
X364604Y476233D01*
X364585Y476222D01*
X364564Y476216D01*
X364481Y476158D01*
X364394Y476105D01*
X364380Y476088D01*
X364362Y476075D01*
X364301Y475994D01*
X364236Y475916D01*
X364225Y475892D01*
X364215Y475878D01*
X364205Y475847D01*
X364167Y475764D01*
X364074Y475477D01*
X363221Y473803D01*
X362116Y472282D01*
X360788Y470954D01*
X359267Y469849D01*
X357593Y468996D01*
X355806Y468415D01*
X354533Y468214D01*
X354533Y479298D01*
X354530Y479318D01*
X354532Y479337D01*
X354510Y479439D01*
X354493Y479541D01*
X354484Y479558D01*
X354480Y479578D01*
X354427Y479667D01*
X354378Y479758D01*
X354364Y479772D01*
X354354Y479789D01*
X354275Y479856D01*
X354200Y479927D01*
X354182Y479936D01*
X354167Y479949D01*
X354071Y479987D01*
X353977Y480031D01*
X353957Y480033D01*
X353939Y480041D01*
X353772Y480059D01*
X353009Y480059D01*
X353009Y480822D01*
X353006Y480842D01*
X353008Y480861D01*
X352986Y480963D01*
X352969Y481065D01*
X352960Y481082D01*
X352956Y481102D01*
X352903Y481191D01*
X352854Y481282D01*
X352840Y481296D01*
X352830Y481313D01*
X352751Y481380D01*
X352676Y481451D01*
X352658Y481460D01*
X352643Y481473D01*
X352547Y481512D01*
X352453Y481555D01*
X352433Y481557D01*
X352415Y481565D01*
X352248Y481583D01*
X341164Y481583D01*
X341365Y482856D01*
X341946Y484643D01*
X342799Y486317D01*
X343904Y487838D01*
X344606Y488540D01*
X344648Y488598D01*
X344697Y488650D01*
X344719Y488697D01*
X344749Y488739D01*
X344770Y488808D01*
X344801Y488873D01*
X344806Y488925D01*
X344822Y488975D01*
X344820Y489046D01*
X344828Y489117D01*
X344817Y489168D01*
X344815Y489220D01*
X344791Y489288D01*
X344776Y489358D01*
X344749Y489403D01*
X344731Y489451D01*
X344686Y489507D01*
X344649Y489569D01*
X344610Y489603D01*
X344577Y489643D01*
X344517Y489682D01*
X344462Y489729D01*
X344414Y489748D01*
X344370Y489776D01*
X344301Y489794D01*
X344234Y489821D01*
X344163Y489829D01*
X344132Y489837D01*
X344108Y489835D01*
X344068Y489839D01*
X322176Y489839D01*
X322131Y489832D01*
X322085Y489834D01*
X322010Y489812D01*
X321933Y489800D01*
X321893Y489778D01*
X321849Y489765D01*
X321785Y489721D01*
X321716Y489684D01*
X321685Y489651D01*
X321647Y489625D01*
X321600Y489562D01*
X321547Y489506D01*
X321527Y489464D01*
X321500Y489428D01*
X321476Y489354D01*
X321443Y489283D01*
X321438Y489237D01*
X321424Y489194D01*
X321425Y489116D01*
X321416Y489039D01*
X321426Y488994D01*
X321426Y488948D01*
X321464Y488816D01*
X321468Y488798D01*
X321471Y488794D01*
X321473Y488787D01*
X323125Y484799D01*
X323125Y480381D01*
X321434Y476300D01*
X319356Y474221D01*
X319303Y474147D01*
X319243Y474078D01*
X319231Y474048D01*
X319212Y474021D01*
X319185Y473935D01*
X319151Y473850D01*
X319147Y473809D01*
X319140Y473786D01*
X319141Y473754D01*
X319133Y473683D01*
X319133Y458497D01*
X319147Y458407D01*
X319155Y458316D01*
X319167Y458286D01*
X319172Y458254D01*
X319215Y458174D01*
X319251Y458090D01*
X319277Y458058D01*
X319288Y458037D01*
X319311Y458015D01*
X319356Y457959D01*
X321434Y455880D01*
X323125Y451799D01*
X323125Y447381D01*
X321434Y443300D01*
X318310Y440176D01*
X314229Y438485D01*
X309811Y438485D01*
X305730Y440176D01*
X302606Y443300D01*
X300915Y447381D01*
X300915Y451799D01*
X302606Y455880D01*
X304684Y457959D01*
X304737Y458033D01*
X304797Y458102D01*
X304809Y458132D01*
X304828Y458159D01*
X304855Y458245D01*
X304889Y458330D01*
X304893Y458371D01*
X304900Y458394D01*
X304899Y458426D01*
X304907Y458497D01*
X304907Y473683D01*
X304893Y473773D01*
X304885Y473864D01*
X304873Y473894D01*
X304868Y473926D01*
X304825Y474006D01*
X304789Y474090D01*
X304763Y474122D01*
X304752Y474143D01*
X304729Y474165D01*
X304684Y474221D01*
X302606Y476300D01*
X300915Y480381D01*
X300915Y484799D01*
X302567Y488787D01*
X302578Y488831D01*
X302597Y488873D01*
X302605Y488950D01*
X302623Y489026D01*
X302619Y489072D01*
X302624Y489117D01*
X302607Y489194D01*
X302600Y489271D01*
X302582Y489313D01*
X302572Y489358D01*
X302532Y489425D01*
X302500Y489496D01*
X302469Y489530D01*
X302446Y489569D01*
X302386Y489620D01*
X302334Y489677D01*
X302294Y489699D01*
X302259Y489729D01*
X302186Y489758D01*
X302118Y489795D01*
X302073Y489804D01*
X302031Y489821D01*
X301895Y489836D01*
X301876Y489839D01*
X301871Y489838D01*
X301864Y489839D01*
X297176Y489839D01*
X297131Y489832D01*
X297085Y489834D01*
X297010Y489812D01*
X296933Y489800D01*
X296893Y489778D01*
X296849Y489765D01*
X296785Y489721D01*
X296716Y489684D01*
X296685Y489651D01*
X296647Y489625D01*
X296600Y489562D01*
X296547Y489506D01*
X296527Y489464D01*
X296500Y489428D01*
X296476Y489354D01*
X296443Y489283D01*
X296438Y489237D01*
X296424Y489194D01*
X296425Y489116D01*
X296416Y489039D01*
X296426Y488994D01*
X296426Y488948D01*
X296464Y488816D01*
X296468Y488798D01*
X296471Y488794D01*
X296473Y488787D01*
X298125Y484799D01*
X298125Y480381D01*
X296434Y476300D01*
X294356Y474221D01*
X294303Y474147D01*
X294243Y474078D01*
X294231Y474048D01*
X294212Y474021D01*
X294185Y473935D01*
X294151Y473850D01*
X294147Y473809D01*
X294140Y473786D01*
X294141Y473754D01*
X294133Y473683D01*
X294133Y458497D01*
X294147Y458407D01*
X294155Y458316D01*
X294167Y458286D01*
X294172Y458254D01*
X294215Y458174D01*
X294251Y458090D01*
X294277Y458058D01*
X294288Y458037D01*
X294311Y458015D01*
X294356Y457959D01*
X296434Y455880D01*
X298125Y451799D01*
X298125Y447381D01*
X296434Y443300D01*
X293310Y440176D01*
X289229Y438485D01*
X284811Y438485D01*
X280730Y440176D01*
X277606Y443300D01*
X275915Y447381D01*
X275915Y451799D01*
X277606Y455880D01*
X279684Y457959D01*
X279737Y458033D01*
X279797Y458102D01*
X279809Y458132D01*
X279828Y458159D01*
X279855Y458245D01*
X279889Y458330D01*
X279893Y458371D01*
X279900Y458394D01*
X279899Y458426D01*
X279907Y458497D01*
X279907Y473683D01*
X279893Y473773D01*
X279885Y473864D01*
X279873Y473894D01*
X279868Y473926D01*
X279825Y474006D01*
X279789Y474090D01*
X279763Y474122D01*
X279752Y474143D01*
X279729Y474165D01*
X279684Y474221D01*
X277606Y476300D01*
X275915Y480381D01*
X275915Y484799D01*
X277567Y488787D01*
X277578Y488831D01*
X277597Y488873D01*
X277605Y488950D01*
X277623Y489026D01*
X277619Y489072D01*
X277624Y489117D01*
X277607Y489194D01*
X277600Y489271D01*
X277582Y489313D01*
X277572Y489358D01*
X277532Y489425D01*
X277500Y489496D01*
X277469Y489530D01*
X277446Y489569D01*
X277386Y489620D01*
X277334Y489677D01*
X277294Y489699D01*
X277259Y489729D01*
X277186Y489758D01*
X277118Y489795D01*
X277073Y489804D01*
X277031Y489821D01*
X276895Y489836D01*
X276876Y489839D01*
X276871Y489838D01*
X276864Y489839D01*
X272176Y489839D01*
X272131Y489832D01*
X272085Y489834D01*
X272010Y489812D01*
X271933Y489800D01*
X271893Y489778D01*
X271849Y489765D01*
X271785Y489721D01*
X271716Y489684D01*
X271685Y489651D01*
X271647Y489625D01*
X271600Y489562D01*
X271547Y489506D01*
X271527Y489464D01*
X271500Y489428D01*
X271476Y489354D01*
X271443Y489283D01*
X271438Y489237D01*
X271424Y489194D01*
X271425Y489116D01*
X271416Y489039D01*
X271426Y488994D01*
X271426Y488948D01*
X271464Y488816D01*
X271468Y488798D01*
X271471Y488794D01*
X271473Y488787D01*
X273125Y484799D01*
X273125Y480381D01*
X271434Y476300D01*
X269356Y474221D01*
X269303Y474147D01*
X269243Y474078D01*
X269231Y474048D01*
X269212Y474021D01*
X269185Y473935D01*
X269151Y473850D01*
X269147Y473809D01*
X269140Y473786D01*
X269141Y473754D01*
X269133Y473683D01*
X269133Y458497D01*
X269147Y458407D01*
X269155Y458316D01*
X269167Y458286D01*
X269172Y458254D01*
X269215Y458174D01*
X269251Y458090D01*
X269277Y458058D01*
X269288Y458037D01*
X269311Y458015D01*
X269356Y457959D01*
X271434Y455880D01*
X273125Y451799D01*
X273125Y447381D01*
X271434Y443300D01*
X268310Y440176D01*
X264229Y438485D01*
X259811Y438485D01*
X255730Y440176D01*
X252606Y443300D01*
X250915Y447381D01*
X250915Y451799D01*
X252606Y455880D01*
X254684Y457959D01*
X254737Y458033D01*
X254797Y458102D01*
X254809Y458132D01*
X254828Y458159D01*
X254855Y458245D01*
X254889Y458330D01*
X254893Y458371D01*
X254900Y458394D01*
X254899Y458426D01*
X254907Y458497D01*
X254907Y473683D01*
X254893Y473773D01*
X254885Y473864D01*
X254873Y473894D01*
X254868Y473926D01*
X254825Y474006D01*
X254789Y474090D01*
X254763Y474122D01*
X254752Y474143D01*
X254729Y474165D01*
X254684Y474221D01*
X252606Y476300D01*
X250915Y480381D01*
X250915Y484799D01*
X252567Y488787D01*
X252578Y488831D01*
X252597Y488873D01*
X252605Y488950D01*
X252623Y489026D01*
X252619Y489072D01*
X252624Y489117D01*
X252607Y489194D01*
X252600Y489271D01*
X252582Y489313D01*
X252572Y489358D01*
X252532Y489425D01*
X252500Y489496D01*
X252469Y489530D01*
X252446Y489569D01*
X252386Y489620D01*
X252334Y489677D01*
X252294Y489699D01*
X252259Y489729D01*
X252186Y489758D01*
X252118Y489795D01*
X252073Y489804D01*
X252031Y489821D01*
X251895Y489836D01*
X251876Y489839D01*
X251871Y489838D01*
X251864Y489839D01*
X134098Y489839D01*
X134027Y489828D01*
X133955Y489826D01*
X133906Y489808D01*
X133855Y489800D01*
X133792Y489766D01*
X133724Y489741D01*
X133684Y489709D01*
X133638Y489684D01*
X133588Y489632D01*
X133532Y489588D01*
X133504Y489544D01*
X133468Y489506D01*
X133438Y489441D01*
X133399Y489381D01*
X133387Y489330D01*
X133365Y489283D01*
X133357Y489212D01*
X133339Y489142D01*
X133343Y489090D01*
X133337Y489039D01*
X133353Y488968D01*
X133358Y488897D01*
X133379Y488849D01*
X133390Y488798D01*
X133427Y488737D01*
X133455Y488671D01*
X133499Y488615D01*
X133516Y488587D01*
X133534Y488572D01*
X133559Y488540D01*
X134413Y487686D01*
X136463Y482738D01*
X136463Y477382D01*
X134413Y472434D01*
X130626Y468647D01*
X125678Y466597D01*
X120322Y466597D01*
X115374Y468647D01*
X111587Y472434D01*
X111003Y473843D01*
X110965Y473904D01*
X110936Y473969D01*
X110901Y474008D01*
X110874Y474052D01*
X110818Y474098D01*
X110770Y474150D01*
X110724Y474175D01*
X110684Y474209D01*
X110617Y474234D01*
X110554Y474269D01*
X110503Y474278D01*
X110455Y474297D01*
X110383Y474300D01*
X110312Y474313D01*
X110261Y474305D01*
X110209Y474307D01*
X110140Y474287D01*
X110069Y474277D01*
X110023Y474253D01*
X109973Y474239D01*
X109914Y474198D01*
X109850Y474165D01*
X109813Y474128D01*
X109771Y474098D01*
X109728Y474041D01*
X109678Y473990D01*
X109643Y473927D01*
X109624Y473901D01*
X109617Y473879D01*
X109597Y473843D01*
X109013Y472434D01*
X105226Y468647D01*
X104167Y468208D01*
X104067Y468146D01*
X103967Y468087D01*
X103963Y468082D01*
X103958Y468078D01*
X103883Y467988D01*
X103807Y467900D01*
X103805Y467894D01*
X103801Y467889D01*
X103759Y467781D01*
X103715Y467671D01*
X103714Y467664D01*
X103713Y467659D01*
X103712Y467641D01*
X103697Y467505D01*
X103697Y464687D01*
X102769Y462446D01*
X84270Y443948D01*
X84217Y443874D01*
X84157Y443804D01*
X84145Y443774D01*
X84126Y443748D01*
X84099Y443661D01*
X84065Y443576D01*
X84061Y443535D01*
X84054Y443513D01*
X84055Y443481D01*
X84047Y443409D01*
X84047Y442939D01*
X82852Y440055D01*
X82520Y439723D01*
X82467Y439649D01*
X82407Y439579D01*
X82395Y439549D01*
X82376Y439523D01*
X82349Y439436D01*
X82315Y439351D01*
X82311Y439310D01*
X82304Y439288D01*
X82305Y439256D01*
X82297Y439184D01*
X82297Y411716D01*
X82311Y411625D01*
X82319Y411535D01*
X82331Y411505D01*
X82336Y411473D01*
X82379Y411392D01*
X82415Y411308D01*
X82441Y411276D01*
X82452Y411255D01*
X82475Y411233D01*
X82520Y411177D01*
X82852Y410845D01*
X84047Y407961D01*
X84047Y404839D01*
X82852Y401955D01*
X82520Y401623D01*
X82467Y401549D01*
X82407Y401479D01*
X82395Y401449D01*
X82376Y401423D01*
X82349Y401336D01*
X82315Y401251D01*
X82311Y401210D01*
X82304Y401188D01*
X82305Y401156D01*
X82297Y401084D01*
X82297Y339506D01*
X82311Y339416D01*
X82319Y339325D01*
X82331Y339296D01*
X82336Y339264D01*
X82379Y339183D01*
X82415Y339099D01*
X82441Y339067D01*
X82452Y339046D01*
X82475Y339024D01*
X82520Y338968D01*
X86869Y334619D01*
X86869Y325781D01*
X82520Y321432D01*
X82467Y321358D01*
X82407Y321288D01*
X82395Y321258D01*
X82376Y321232D01*
X82349Y321145D01*
X82315Y321060D01*
X82311Y321019D01*
X82304Y320997D01*
X82305Y320965D01*
X82297Y320894D01*
X82297Y203055D01*
X82316Y202940D01*
X82333Y202824D01*
X82335Y202819D01*
X82336Y202813D01*
X82391Y202710D01*
X82444Y202605D01*
X82449Y202601D01*
X82452Y202595D01*
X82536Y202515D01*
X82620Y202433D01*
X82626Y202429D01*
X82630Y202426D01*
X82647Y202418D01*
X82767Y202352D01*
X83826Y201913D01*
X87613Y198126D01*
X89016Y194740D01*
X89069Y194654D01*
X89117Y194565D01*
X89134Y194550D01*
X89145Y194531D01*
X89223Y194467D01*
X89297Y194398D01*
X89318Y194389D01*
X89335Y194374D01*
X89429Y194338D01*
X89522Y194296D01*
X89544Y194294D01*
X89564Y194286D01*
X89665Y194282D01*
X89766Y194272D01*
X89788Y194277D01*
X89810Y194276D01*
X89907Y194304D01*
X90006Y194327D01*
X90025Y194338D01*
X90046Y194344D01*
X90129Y194402D01*
X90216Y194455D01*
X90230Y194472D01*
X90248Y194485D01*
X90309Y194566D01*
X90374Y194644D01*
X90385Y194668D01*
X90395Y194682D01*
X90405Y194713D01*
X90443Y194796D01*
X90536Y195083D01*
X91389Y196757D01*
X92494Y198278D01*
X93822Y199606D01*
X95343Y200711D01*
X97017Y201564D01*
X98804Y202145D01*
X100077Y202346D01*
X100077Y191262D01*
X100080Y191242D01*
X100078Y191223D01*
X100100Y191121D01*
X100117Y191019D01*
X100126Y191002D01*
X100130Y190982D01*
X100183Y190893D01*
X100232Y190802D01*
X100246Y190788D01*
X100256Y190771D01*
X100335Y190704D01*
X100410Y190633D01*
X100428Y190624D01*
X100443Y190611D01*
X100539Y190573D01*
X100633Y190529D01*
X100653Y190527D01*
X100671Y190519D01*
X100838Y190501D01*
X102362Y190501D01*
X102382Y190504D01*
X102401Y190502D01*
X102503Y190524D01*
X102605Y190541D01*
X102622Y190550D01*
X102642Y190554D01*
X102731Y190607D01*
X102822Y190656D01*
X102836Y190670D01*
X102853Y190680D01*
X102920Y190759D01*
X102991Y190834D01*
X103000Y190852D01*
X103013Y190867D01*
X103052Y190963D01*
X103095Y191057D01*
X103097Y191077D01*
X103105Y191095D01*
X103123Y191262D01*
X103123Y202346D01*
X104396Y202145D01*
X106183Y201564D01*
X107857Y200711D01*
X109378Y199606D01*
X110706Y198278D01*
X111811Y196757D01*
X112664Y195083D01*
X112757Y194796D01*
X112804Y194706D01*
X112845Y194614D01*
X112860Y194598D01*
X112870Y194578D01*
X112943Y194507D01*
X113011Y194433D01*
X113031Y194422D01*
X113047Y194407D01*
X113138Y194363D01*
X113227Y194314D01*
X113249Y194310D01*
X113269Y194301D01*
X113369Y194288D01*
X113469Y194270D01*
X113491Y194274D01*
X113513Y194271D01*
X113612Y194291D01*
X113712Y194306D01*
X113732Y194316D01*
X113754Y194321D01*
X113841Y194372D01*
X113931Y194418D01*
X113947Y194434D01*
X113966Y194445D01*
X114033Y194521D01*
X114104Y194593D01*
X114117Y194617D01*
X114128Y194630D01*
X114140Y194660D01*
X114184Y194740D01*
X115587Y198126D01*
X119374Y201913D01*
X124322Y203963D01*
X129678Y203963D01*
X134626Y201913D01*
X138413Y198126D01*
X138997Y196717D01*
X139035Y196656D01*
X139064Y196591D01*
X139099Y196552D01*
X139126Y196508D01*
X139182Y196462D01*
X139230Y196410D01*
X139276Y196385D01*
X139316Y196351D01*
X139383Y196326D01*
X139446Y196291D01*
X139497Y196282D01*
X139545Y196263D01*
X139617Y196260D01*
X139688Y196247D01*
X139739Y196255D01*
X139791Y196253D01*
X139860Y196273D01*
X139931Y196283D01*
X139977Y196307D01*
X140027Y196321D01*
X140086Y196362D01*
X140150Y196395D01*
X140187Y196432D01*
X140229Y196462D01*
X140272Y196519D01*
X140322Y196570D01*
X140357Y196633D01*
X140376Y196659D01*
X140383Y196681D01*
X140403Y196717D01*
X140987Y198126D01*
X144774Y201913D01*
X149722Y203963D01*
X155078Y203963D01*
X160026Y201913D01*
X163813Y198126D01*
X165863Y193178D01*
X165863Y187822D01*
X163813Y182874D01*
X160026Y179087D01*
X155078Y177037D01*
X149722Y177037D01*
X144774Y179087D01*
X140987Y182874D01*
X140403Y184283D01*
X140366Y184344D01*
X140336Y184409D01*
X140301Y184448D01*
X140274Y184492D01*
X140218Y184538D01*
X140170Y184590D01*
X140124Y184615D01*
X140084Y184649D01*
X140017Y184674D01*
X139954Y184709D01*
X139903Y184718D01*
X139855Y184737D01*
X139783Y184740D01*
X139712Y184753D01*
X139661Y184745D01*
X139609Y184747D01*
X139540Y184727D01*
X139469Y184717D01*
X139423Y184693D01*
X139373Y184679D01*
X139314Y184638D01*
X139250Y184605D01*
X139213Y184568D01*
X139171Y184538D01*
X139128Y184481D01*
X139078Y184430D01*
X139043Y184367D01*
X139024Y184341D01*
X139017Y184319D01*
X138997Y184283D01*
X138413Y182874D01*
X134626Y179087D01*
X129678Y177037D01*
X124322Y177037D01*
X119374Y179087D01*
X115587Y182874D01*
X114184Y186260D01*
X114131Y186346D01*
X114083Y186435D01*
X114066Y186450D01*
X114055Y186469D01*
X113977Y186533D01*
X113903Y186602D01*
X113882Y186611D01*
X113865Y186626D01*
X113771Y186662D01*
X113678Y186704D01*
X113656Y186706D01*
X113636Y186714D01*
X113535Y186718D01*
X113434Y186728D01*
X113412Y186723D01*
X113390Y186724D01*
X113293Y186696D01*
X113194Y186673D01*
X113175Y186662D01*
X113154Y186656D01*
X113071Y186598D01*
X112984Y186545D01*
X112970Y186528D01*
X112952Y186515D01*
X112891Y186434D01*
X112826Y186356D01*
X112815Y186332D01*
X112805Y186318D01*
X112795Y186287D01*
X112757Y186204D01*
X112664Y185917D01*
X111811Y184243D01*
X110706Y182722D01*
X109378Y181394D01*
X107857Y180289D01*
X106183Y179436D01*
X104396Y178855D01*
X103123Y178654D01*
X103123Y189738D01*
X103120Y189758D01*
X103122Y189777D01*
X103100Y189879D01*
X103083Y189981D01*
X103074Y189998D01*
X103070Y190018D01*
X103017Y190107D01*
X102968Y190198D01*
X102954Y190212D01*
X102944Y190229D01*
X102865Y190296D01*
X102790Y190367D01*
X102772Y190376D01*
X102757Y190389D01*
X102661Y190427D01*
X102567Y190471D01*
X102547Y190473D01*
X102529Y190481D01*
X102362Y190499D01*
X100838Y190499D01*
X100818Y190496D01*
X100799Y190498D01*
X100697Y190476D01*
X100595Y190459D01*
X100578Y190450D01*
X100558Y190446D01*
X100469Y190393D01*
X100378Y190344D01*
X100364Y190330D01*
X100347Y190320D01*
X100280Y190241D01*
X100209Y190166D01*
X100200Y190148D01*
X100187Y190133D01*
X100148Y190037D01*
X100105Y189943D01*
X100103Y189923D01*
X100095Y189905D01*
X100077Y189738D01*
X100077Y178654D01*
X98804Y178855D01*
X97017Y179436D01*
X95343Y180289D01*
X93822Y181394D01*
X92494Y182722D01*
X91389Y184243D01*
X90536Y185917D01*
X90443Y186204D01*
X90396Y186294D01*
X90355Y186386D01*
X90340Y186402D01*
X90330Y186422D01*
X90257Y186493D01*
X90189Y186567D01*
X90169Y186578D01*
X90153Y186593D01*
X90062Y186637D01*
X89973Y186686D01*
X89951Y186690D01*
X89931Y186699D01*
X89831Y186712D01*
X89731Y186730D01*
X89709Y186726D01*
X89687Y186729D01*
X89588Y186709D01*
X89488Y186694D01*
X89468Y186684D01*
X89446Y186679D01*
X89359Y186628D01*
X89269Y186582D01*
X89253Y186566D01*
X89234Y186555D01*
X89167Y186479D01*
X89096Y186407D01*
X89083Y186383D01*
X89072Y186370D01*
X89060Y186340D01*
X89016Y186260D01*
X87613Y182874D01*
X83826Y179087D01*
X78878Y177037D01*
X73522Y177037D01*
X68574Y179087D01*
X64787Y182874D01*
X62737Y187822D01*
X62737Y193178D01*
X64787Y198126D01*
X68574Y201913D01*
X69633Y202352D01*
X69733Y202413D01*
X69833Y202473D01*
X69837Y202478D01*
X69842Y202482D01*
X69917Y202571D01*
X69993Y202660D01*
X69995Y202666D01*
X69999Y202671D01*
X70041Y202779D01*
X70085Y202889D01*
X70086Y202896D01*
X70087Y202901D01*
X70088Y202919D01*
X70103Y203055D01*
X70103Y209569D01*
X70092Y209639D01*
X70090Y209711D01*
X70072Y209760D01*
X70064Y209811D01*
X70030Y209875D01*
X70005Y209942D01*
X69973Y209983D01*
X69948Y210029D01*
X69896Y210078D01*
X69852Y210134D01*
X69808Y210162D01*
X69770Y210198D01*
X69705Y210228D01*
X69645Y210267D01*
X69594Y210280D01*
X69547Y210302D01*
X69476Y210310D01*
X69406Y210327D01*
X69354Y210323D01*
X69303Y210329D01*
X69232Y210313D01*
X69161Y210308D01*
X69113Y210288D01*
X69062Y210276D01*
X69001Y210240D01*
X68935Y210212D01*
X68879Y210167D01*
X68851Y210150D01*
X68836Y210133D01*
X68804Y210107D01*
X67945Y209248D01*
X65061Y208053D01*
X61939Y208053D01*
X59055Y209248D01*
X58196Y210107D01*
X58138Y210149D01*
X58086Y210198D01*
X58039Y210220D01*
X57997Y210250D01*
X57928Y210271D01*
X57863Y210302D01*
X57811Y210307D01*
X57761Y210323D01*
X57690Y210321D01*
X57619Y210329D01*
X57568Y210318D01*
X57516Y210316D01*
X57448Y210292D01*
X57378Y210276D01*
X57333Y210250D01*
X57285Y210232D01*
X57229Y210187D01*
X57167Y210150D01*
X57133Y210111D01*
X57093Y210078D01*
X57054Y210018D01*
X57007Y209963D01*
X56988Y209915D01*
X56960Y209871D01*
X56942Y209802D01*
X56915Y209735D01*
X56907Y209664D01*
X56899Y209633D01*
X56901Y209609D01*
X56897Y209569D01*
X56897Y176692D01*
X56908Y176622D01*
X56910Y176550D01*
X56928Y176501D01*
X56936Y176450D01*
X56970Y176386D01*
X56995Y176319D01*
X57027Y176278D01*
X57052Y176232D01*
X57104Y176183D01*
X57148Y176127D01*
X57192Y176099D01*
X57230Y176063D01*
X57295Y176033D01*
X57355Y175994D01*
X57406Y175981D01*
X57453Y175959D01*
X57524Y175951D01*
X57594Y175934D01*
X57646Y175938D01*
X57697Y175932D01*
X57768Y175947D01*
X57839Y175953D01*
X57887Y175973D01*
X57938Y175984D01*
X57999Y176021D01*
X58065Y176049D01*
X58121Y176094D01*
X58149Y176111D01*
X58164Y176128D01*
X58196Y176154D01*
X59081Y177039D01*
X67919Y177039D01*
X74169Y170789D01*
X74169Y161951D01*
X67919Y155701D01*
X59081Y155701D01*
X58196Y156586D01*
X58138Y156628D01*
X58086Y156677D01*
X58039Y156699D01*
X57997Y156729D01*
X57928Y156751D01*
X57863Y156781D01*
X57811Y156786D01*
X57761Y156802D01*
X57690Y156800D01*
X57619Y156808D01*
X57568Y156797D01*
X57516Y156795D01*
X57448Y156771D01*
X57378Y156756D01*
X57333Y156729D01*
X57285Y156711D01*
X57229Y156666D01*
X57167Y156629D01*
X57133Y156590D01*
X57093Y156557D01*
X57054Y156497D01*
X57007Y156442D01*
X56988Y156394D01*
X56960Y156350D01*
X56942Y156281D01*
X56915Y156214D01*
X56907Y156143D01*
X56899Y156112D01*
X56901Y156089D01*
X56897Y156048D01*
X56897Y80311D01*
X56911Y80221D01*
X56919Y80130D01*
X56931Y80100D01*
X56936Y80068D01*
X56979Y79987D01*
X57015Y79903D01*
X57041Y79871D01*
X57052Y79851D01*
X57075Y79828D01*
X57120Y79772D01*
X61230Y75662D01*
X61304Y75609D01*
X61374Y75549D01*
X61404Y75537D01*
X61430Y75518D01*
X61517Y75491D01*
X61602Y75457D01*
X61643Y75453D01*
X61665Y75446D01*
X61697Y75447D01*
X61769Y75439D01*
X67919Y75439D01*
X74169Y69189D01*
X74169Y60351D01*
X67919Y54101D01*
X59081Y54101D01*
X52831Y60351D01*
X52831Y66501D01*
X52829Y66518D01*
X52830Y66533D01*
X52816Y66598D01*
X52809Y66682D01*
X52797Y66712D01*
X52792Y66744D01*
X52779Y66767D01*
X52778Y66773D01*
X52762Y66799D01*
X52749Y66825D01*
X52713Y66909D01*
X52687Y66941D01*
X52676Y66961D01*
X52653Y66984D01*
X52608Y67040D01*
X45631Y74016D01*
X44703Y76257D01*
X44703Y401084D01*
X44689Y401175D01*
X44681Y401265D01*
X44669Y401295D01*
X44664Y401327D01*
X44621Y401408D01*
X44585Y401492D01*
X44559Y401524D01*
X44548Y401545D01*
X44525Y401567D01*
X44480Y401623D01*
X44148Y401955D01*
X42953Y404839D01*
X42953Y407961D01*
X44148Y410845D01*
X45686Y412383D01*
X45713Y412420D01*
X45747Y412451D01*
X45784Y412520D01*
X45830Y412583D01*
X45843Y412627D01*
X45865Y412667D01*
X45879Y412744D01*
X45902Y412818D01*
X45901Y412864D01*
X45909Y412909D01*
X45898Y412986D01*
X45896Y413064D01*
X45880Y413107D01*
X45873Y413152D01*
X45838Y413222D01*
X45811Y413295D01*
X45782Y413331D01*
X45762Y413372D01*
X45706Y413426D01*
X45657Y413487D01*
X45619Y413512D01*
X45586Y413544D01*
X45466Y413610D01*
X45451Y413620D01*
X45446Y413621D01*
X45439Y413625D01*
X44444Y414037D01*
X40657Y417824D01*
X38607Y422772D01*
X38607Y428128D01*
X40657Y433076D01*
X44444Y436863D01*
X49392Y438913D01*
X54748Y438913D01*
X59696Y436863D01*
X63483Y433076D01*
X65533Y428128D01*
X65533Y422772D01*
X65094Y421713D01*
X65067Y421600D01*
X65039Y421486D01*
X65039Y421479D01*
X65038Y421473D01*
X65049Y421357D01*
X65058Y421240D01*
X65060Y421235D01*
X65061Y421228D01*
X65109Y421121D01*
X65154Y421014D01*
X65159Y421008D01*
X65161Y421004D01*
X65174Y420990D01*
X65259Y420883D01*
X66846Y419296D01*
X68702Y417440D01*
X68736Y417377D01*
X68754Y417359D01*
X68768Y417337D01*
X68843Y417274D01*
X68914Y417207D01*
X68938Y417196D01*
X68958Y417180D01*
X69049Y417145D01*
X69137Y417104D01*
X69163Y417101D01*
X69187Y417092D01*
X69285Y417087D01*
X69381Y417077D01*
X69407Y417082D01*
X69433Y417081D01*
X69527Y417108D01*
X69622Y417129D01*
X69644Y417142D01*
X69669Y417149D01*
X69749Y417205D01*
X69833Y417255D01*
X69850Y417275D01*
X69871Y417290D01*
X69929Y417368D01*
X69993Y417442D01*
X70003Y417466D01*
X70018Y417487D01*
X70048Y417579D01*
X70085Y417670D01*
X70088Y417702D01*
X70094Y417721D01*
X70094Y417754D01*
X70103Y417837D01*
X70103Y439184D01*
X70089Y439275D01*
X70081Y439365D01*
X70069Y439395D01*
X70064Y439427D01*
X70021Y439508D01*
X69985Y439592D01*
X69959Y439624D01*
X69948Y439645D01*
X69925Y439667D01*
X69880Y439723D01*
X69548Y440055D01*
X68353Y442939D01*
X68353Y446061D01*
X69548Y448945D01*
X71755Y451152D01*
X74639Y452347D01*
X75109Y452347D01*
X75199Y452361D01*
X75290Y452369D01*
X75320Y452381D01*
X75352Y452386D01*
X75433Y452429D01*
X75517Y452465D01*
X75549Y452491D01*
X75569Y452502D01*
X75592Y452525D01*
X75648Y452570D01*
X90406Y467328D01*
X90433Y467366D01*
X90467Y467397D01*
X90505Y467465D01*
X90550Y467528D01*
X90563Y467572D01*
X90586Y467612D01*
X90599Y467689D01*
X90622Y467763D01*
X90621Y467809D01*
X90629Y467854D01*
X90618Y467931D01*
X90616Y468009D01*
X90600Y468052D01*
X90593Y468098D01*
X90558Y468167D01*
X90531Y468240D01*
X90503Y468276D01*
X90482Y468317D01*
X90426Y468371D01*
X90378Y468432D01*
X90339Y468457D01*
X90306Y468489D01*
X90187Y468555D01*
X90171Y468565D01*
X90166Y468566D01*
X90159Y468570D01*
X89974Y468647D01*
X86187Y472434D01*
X84784Y475820D01*
X84731Y475906D01*
X84683Y475995D01*
X84666Y476010D01*
X84655Y476029D01*
X84577Y476093D01*
X84503Y476162D01*
X84482Y476171D01*
X84465Y476186D01*
X84371Y476222D01*
X84278Y476264D01*
X84256Y476266D01*
X84236Y476274D01*
X84135Y476278D01*
X84034Y476288D01*
X84012Y476283D01*
X83990Y476284D01*
X83893Y476256D01*
X83794Y476233D01*
X83775Y476222D01*
X83754Y476216D01*
X83671Y476158D01*
X83584Y476105D01*
X83570Y476088D01*
X83552Y476075D01*
X83491Y475994D01*
X83426Y475916D01*
X83415Y475892D01*
X83405Y475878D01*
X83395Y475847D01*
X83357Y475764D01*
X83264Y475477D01*
X82411Y473803D01*
X81306Y472282D01*
X79978Y470954D01*
X78457Y469849D01*
X76783Y468996D01*
X74996Y468415D01*
X73723Y468214D01*
X73723Y479298D01*
X73720Y479318D01*
X73722Y479337D01*
X73700Y479439D01*
X73683Y479541D01*
X73674Y479558D01*
X73670Y479578D01*
X73617Y479667D01*
X73568Y479758D01*
X73554Y479772D01*
X73544Y479789D01*
X73465Y479856D01*
X73390Y479927D01*
X73372Y479936D01*
X73357Y479949D01*
X73261Y479987D01*
X73167Y480031D01*
X73147Y480033D01*
X73129Y480041D01*
X72962Y480059D01*
X71438Y480059D01*
X71418Y480056D01*
X71399Y480058D01*
X71297Y480036D01*
X71195Y480019D01*
X71178Y480010D01*
X71158Y480006D01*
X71069Y479953D01*
X70978Y479904D01*
X70964Y479890D01*
X70947Y479880D01*
X70880Y479801D01*
X70809Y479726D01*
X70800Y479708D01*
X70787Y479693D01*
X70748Y479597D01*
X70705Y479503D01*
X70703Y479483D01*
X70695Y479465D01*
X70677Y479298D01*
X70677Y468214D01*
X69404Y468415D01*
X67617Y468996D01*
X65943Y469849D01*
X64422Y470954D01*
X63094Y472282D01*
X61989Y473803D01*
X61136Y475477D01*
X61043Y475764D01*
X60996Y475854D01*
X60955Y475946D01*
X60940Y475962D01*
X60930Y475982D01*
X60857Y476053D01*
X60789Y476127D01*
X60769Y476138D01*
X60753Y476153D01*
X60662Y476197D01*
X60573Y476246D01*
X60551Y476250D01*
X60531Y476259D01*
X60431Y476272D01*
X60331Y476290D01*
X60309Y476286D01*
X60287Y476289D01*
X60188Y476269D01*
X60088Y476254D01*
X60068Y476244D01*
X60046Y476239D01*
X59959Y476188D01*
X59869Y476142D01*
X59853Y476126D01*
X59834Y476115D01*
X59767Y476039D01*
X59696Y475967D01*
X59683Y475943D01*
X59672Y475930D01*
X59660Y475900D01*
X59616Y475820D01*
X58213Y472434D01*
X54426Y468647D01*
X49478Y466597D01*
X44122Y466597D01*
X39174Y468647D01*
X35387Y472434D01*
X34803Y473843D01*
X34765Y473904D01*
X34736Y473969D01*
X34701Y474008D01*
X34674Y474052D01*
X34618Y474098D01*
X34570Y474150D01*
X34524Y474175D01*
X34484Y474209D01*
X34417Y474234D01*
X34354Y474269D01*
X34303Y474278D01*
X34255Y474297D01*
X34183Y474300D01*
X34112Y474313D01*
X34061Y474305D01*
X34009Y474307D01*
X33940Y474287D01*
X33869Y474277D01*
X33823Y474253D01*
X33773Y474239D01*
X33714Y474198D01*
X33650Y474165D01*
X33613Y474128D01*
X33571Y474098D01*
X33528Y474041D01*
X33478Y473990D01*
X33443Y473927D01*
X33424Y473901D01*
X33417Y473879D01*
X33397Y473843D01*
X32813Y472434D01*
X29026Y468647D01*
X24078Y466597D01*
X18722Y466597D01*
X13774Y468647D01*
X11460Y470961D01*
X11402Y471002D01*
X11350Y471052D01*
X11303Y471074D01*
X11261Y471104D01*
X11192Y471125D01*
X11127Y471155D01*
X11075Y471161D01*
X11025Y471176D01*
X10954Y471175D01*
X10883Y471183D01*
X10832Y471171D01*
X10780Y471170D01*
X10712Y471145D01*
X10642Y471130D01*
X10597Y471104D01*
X10549Y471086D01*
X10493Y471041D01*
X10431Y471004D01*
X10397Y470965D01*
X10357Y470932D01*
X10318Y470872D01*
X10271Y470817D01*
X10252Y470769D01*
X10224Y470725D01*
X10206Y470656D01*
X10179Y470589D01*
X10171Y470518D01*
X10163Y470487D01*
X10165Y470463D01*
X10161Y470422D01*
X10161Y36118D01*
X10172Y36047D01*
X10174Y35975D01*
X10192Y35926D01*
X10200Y35875D01*
X10234Y35812D01*
X10259Y35744D01*
X10291Y35704D01*
X10316Y35658D01*
X10368Y35608D01*
X10412Y35552D01*
X10456Y35524D01*
X10494Y35488D01*
X10559Y35458D01*
X10619Y35419D01*
X10670Y35407D01*
X10717Y35385D01*
X10788Y35377D01*
X10858Y35359D01*
X10910Y35363D01*
X10961Y35357D01*
X11032Y35373D01*
X11103Y35378D01*
X11151Y35399D01*
X11202Y35410D01*
X11263Y35447D01*
X11329Y35475D01*
X11385Y35519D01*
X11413Y35536D01*
X11428Y35554D01*
X11460Y35579D01*
X15234Y39353D01*
X20182Y41403D01*
X25538Y41403D01*
X30486Y39353D01*
X34273Y35566D01*
X36323Y30618D01*
X36323Y25262D01*
X34273Y20314D01*
X30486Y16527D01*
X25538Y14477D01*
X20182Y14477D01*
X15234Y16527D01*
X11460Y20301D01*
X11402Y20342D01*
X11350Y20392D01*
X11303Y20414D01*
X11261Y20444D01*
X11192Y20465D01*
X11127Y20495D01*
X11075Y20501D01*
X11025Y20516D01*
X10954Y20515D01*
X10883Y20523D01*
X10832Y20511D01*
X10780Y20510D01*
X10712Y20485D01*
X10642Y20470D01*
X10597Y20444D01*
X10549Y20426D01*
X10493Y20381D01*
X10431Y20344D01*
X10397Y20305D01*
X10357Y20272D01*
X10318Y20212D01*
X10271Y20157D01*
X10252Y20109D01*
X10224Y20065D01*
X10206Y19996D01*
X10179Y19929D01*
X10171Y19858D01*
X10163Y19827D01*
X10165Y19803D01*
X10161Y19762D01*
X10161Y10922D01*
X10164Y10902D01*
X10162Y10883D01*
X10184Y10781D01*
X10200Y10679D01*
X10210Y10662D01*
X10214Y10642D01*
X10267Y10553D01*
X10316Y10462D01*
X10330Y10448D01*
X10340Y10431D01*
X10419Y10364D01*
X10494Y10292D01*
X10512Y10284D01*
X10527Y10271D01*
X10623Y10232D01*
X10717Y10189D01*
X10737Y10187D01*
X10755Y10179D01*
X10922Y10161D01*
X437577Y10161D01*
X437585Y10162D01*
G37*
%LPC*%
G36*
X288152Y14477D02*
X288152Y14477D01*
X283204Y16527D01*
X279417Y20314D01*
X277367Y25262D01*
X277367Y30618D01*
X277806Y31677D01*
X277833Y31791D01*
X277861Y31904D01*
X277861Y31911D01*
X277862Y31917D01*
X277851Y32032D01*
X277842Y32150D01*
X277840Y32155D01*
X277839Y32162D01*
X277791Y32269D01*
X277746Y32376D01*
X277741Y32382D01*
X277739Y32386D01*
X277726Y32400D01*
X277641Y32507D01*
X250654Y59494D01*
X248831Y61316D01*
X247903Y63557D01*
X247903Y85083D01*
X247888Y85179D01*
X247878Y85277D01*
X247868Y85300D01*
X247864Y85326D01*
X247818Y85412D01*
X247778Y85501D01*
X247761Y85520D01*
X247748Y85543D01*
X247678Y85610D01*
X247612Y85682D01*
X247589Y85695D01*
X247570Y85713D01*
X247481Y85754D01*
X247396Y85801D01*
X247371Y85805D01*
X247347Y85816D01*
X247250Y85827D01*
X247154Y85844D01*
X247128Y85841D01*
X247103Y85843D01*
X247007Y85823D01*
X246911Y85808D01*
X246888Y85797D01*
X246862Y85791D01*
X246779Y85741D01*
X246692Y85697D01*
X246673Y85678D01*
X246651Y85665D01*
X246588Y85591D01*
X246519Y85521D01*
X246504Y85493D01*
X246491Y85478D01*
X246485Y85463D01*
X244754Y83731D01*
X242513Y82803D01*
X227810Y82803D01*
X227720Y82789D01*
X227629Y82781D01*
X227600Y82769D01*
X227568Y82764D01*
X227487Y82721D01*
X227403Y82685D01*
X227371Y82659D01*
X227350Y82648D01*
X227328Y82625D01*
X227272Y82580D01*
X224547Y79855D01*
X220626Y78231D01*
X203174Y78231D01*
X199253Y79855D01*
X197896Y81212D01*
X197838Y81254D01*
X197786Y81303D01*
X197739Y81325D01*
X197697Y81355D01*
X197628Y81376D01*
X197563Y81407D01*
X197511Y81412D01*
X197461Y81428D01*
X197390Y81426D01*
X197319Y81434D01*
X197268Y81423D01*
X197216Y81421D01*
X197148Y81397D01*
X197078Y81382D01*
X197033Y81355D01*
X196985Y81337D01*
X196929Y81292D01*
X196867Y81255D01*
X196833Y81216D01*
X196793Y81183D01*
X196754Y81123D01*
X196707Y81068D01*
X196688Y81020D01*
X196660Y80976D01*
X196642Y80907D01*
X196615Y80840D01*
X196607Y80769D01*
X196599Y80738D01*
X196601Y80715D01*
X196597Y80674D01*
X196597Y66341D01*
X196611Y66251D01*
X196619Y66160D01*
X196631Y66130D01*
X196636Y66098D01*
X196679Y66017D01*
X196715Y65933D01*
X196741Y65901D01*
X196752Y65881D01*
X196775Y65858D01*
X196820Y65802D01*
X223790Y38832D01*
X223864Y38779D01*
X223934Y38719D01*
X223964Y38707D01*
X223990Y38688D01*
X224077Y38661D01*
X224162Y38627D01*
X224203Y38623D01*
X224225Y38616D01*
X224257Y38617D01*
X224329Y38609D01*
X231749Y38609D01*
X237999Y32359D01*
X237999Y23521D01*
X231749Y17271D01*
X222911Y17271D01*
X216661Y23521D01*
X216661Y28401D01*
X216647Y28491D01*
X216639Y28582D01*
X216627Y28612D01*
X216622Y28644D01*
X216579Y28725D01*
X216543Y28809D01*
X216517Y28841D01*
X216506Y28861D01*
X216483Y28884D01*
X216438Y28940D01*
X213898Y31480D01*
X213840Y31521D01*
X213788Y31571D01*
X213741Y31593D01*
X213699Y31623D01*
X213630Y31644D01*
X213565Y31675D01*
X213513Y31680D01*
X213463Y31696D01*
X213392Y31694D01*
X213321Y31702D01*
X213270Y31691D01*
X213218Y31689D01*
X213150Y31665D01*
X213080Y31649D01*
X213036Y31623D01*
X212987Y31605D01*
X212931Y31560D01*
X212869Y31523D01*
X212835Y31484D01*
X212795Y31451D01*
X212756Y31391D01*
X212709Y31336D01*
X212690Y31288D01*
X212662Y31244D01*
X212644Y31175D01*
X212617Y31108D01*
X212609Y31037D01*
X212601Y31006D01*
X212603Y30982D01*
X212599Y30941D01*
X212599Y23521D01*
X206349Y17271D01*
X197511Y17271D01*
X191261Y23521D01*
X191261Y32359D01*
X197511Y38609D01*
X204931Y38609D01*
X205002Y38620D01*
X205074Y38622D01*
X205123Y38640D01*
X205174Y38648D01*
X205237Y38682D01*
X205305Y38707D01*
X205346Y38739D01*
X205392Y38764D01*
X205441Y38815D01*
X205497Y38860D01*
X205525Y38904D01*
X205561Y38942D01*
X205591Y39007D01*
X205630Y39067D01*
X205643Y39118D01*
X205665Y39165D01*
X205672Y39236D01*
X205690Y39306D01*
X205686Y39358D01*
X205692Y39409D01*
X205676Y39480D01*
X205671Y39551D01*
X205650Y39599D01*
X205639Y39650D01*
X205603Y39711D01*
X205574Y39777D01*
X205530Y39833D01*
X205513Y39861D01*
X205495Y39876D01*
X205470Y39908D01*
X187154Y58224D01*
X187153Y58224D01*
X185331Y60046D01*
X184403Y62287D01*
X184403Y72383D01*
X184388Y72479D01*
X184378Y72577D01*
X184368Y72600D01*
X184364Y72626D01*
X184318Y72712D01*
X184278Y72801D01*
X184261Y72820D01*
X184248Y72843D01*
X184178Y72910D01*
X184112Y72982D01*
X184089Y72995D01*
X184070Y73013D01*
X183981Y73054D01*
X183896Y73101D01*
X183871Y73105D01*
X183847Y73116D01*
X183750Y73127D01*
X183654Y73144D01*
X183628Y73141D01*
X183603Y73143D01*
X183507Y73123D01*
X183411Y73108D01*
X183388Y73097D01*
X183362Y73091D01*
X183279Y73041D01*
X183192Y72997D01*
X183173Y72978D01*
X183151Y72965D01*
X183088Y72891D01*
X183019Y72821D01*
X183004Y72793D01*
X182991Y72778D01*
X182985Y72763D01*
X181254Y71031D01*
X179013Y70103D01*
X167941Y70103D01*
X167851Y70089D01*
X167760Y70081D01*
X167730Y70069D01*
X167698Y70064D01*
X167617Y70021D01*
X167533Y69985D01*
X167501Y69959D01*
X167481Y69948D01*
X167458Y69925D01*
X167402Y69880D01*
X134313Y36791D01*
X134302Y36775D01*
X134286Y36763D01*
X134230Y36675D01*
X134170Y36591D01*
X134164Y36572D01*
X134153Y36556D01*
X134128Y36455D01*
X134097Y36356D01*
X134098Y36336D01*
X134093Y36317D01*
X134101Y36214D01*
X134104Y36110D01*
X134111Y36092D01*
X134112Y36072D01*
X134153Y35977D01*
X134188Y35879D01*
X134201Y35864D01*
X134208Y35846D01*
X134313Y35715D01*
X137669Y32359D01*
X137669Y23521D01*
X131419Y17271D01*
X122581Y17271D01*
X116331Y23521D01*
X116331Y32359D01*
X120680Y36708D01*
X120733Y36782D01*
X120793Y36852D01*
X120805Y36882D01*
X120824Y36908D01*
X120851Y36995D01*
X120885Y37080D01*
X120889Y37121D01*
X120896Y37143D01*
X120895Y37175D01*
X120903Y37246D01*
X120903Y39313D01*
X121831Y41554D01*
X161646Y81369D01*
X163887Y82297D01*
X170942Y82297D01*
X170962Y82300D01*
X170981Y82298D01*
X171083Y82320D01*
X171185Y82336D01*
X171202Y82346D01*
X171222Y82350D01*
X171311Y82403D01*
X171402Y82452D01*
X171416Y82466D01*
X171433Y82476D01*
X171500Y82555D01*
X171572Y82630D01*
X171580Y82648D01*
X171593Y82663D01*
X171632Y82759D01*
X171675Y82853D01*
X171677Y82873D01*
X171685Y82891D01*
X171703Y83058D01*
X171703Y104994D01*
X171689Y105084D01*
X171681Y105175D01*
X171669Y105204D01*
X171664Y105236D01*
X171621Y105317D01*
X171585Y105401D01*
X171559Y105433D01*
X171548Y105454D01*
X171525Y105476D01*
X171480Y105532D01*
X167131Y109881D01*
X167131Y118719D01*
X173381Y124969D01*
X182219Y124969D01*
X184845Y122343D01*
X184861Y122332D01*
X184873Y122316D01*
X184960Y122260D01*
X185044Y122200D01*
X185063Y122194D01*
X185080Y122183D01*
X185181Y122158D01*
X185279Y122127D01*
X185299Y122128D01*
X185319Y122123D01*
X185422Y122131D01*
X185525Y122134D01*
X185544Y122141D01*
X185564Y122142D01*
X185659Y122183D01*
X185756Y122218D01*
X185772Y122231D01*
X185790Y122238D01*
X185921Y122343D01*
X187153Y123576D01*
X187154Y123576D01*
X196205Y132627D01*
X196216Y132643D01*
X196232Y132655D01*
X196288Y132743D01*
X196348Y132827D01*
X196354Y132845D01*
X196365Y132862D01*
X196390Y132963D01*
X196421Y133062D01*
X196420Y133082D01*
X196425Y133101D01*
X196417Y133204D01*
X196414Y133308D01*
X196407Y133326D01*
X196406Y133346D01*
X196366Y133441D01*
X196330Y133539D01*
X196317Y133554D01*
X196310Y133572D01*
X196262Y133632D01*
X194627Y137578D01*
X194627Y141822D01*
X196251Y145743D01*
X199253Y148745D01*
X203174Y150369D01*
X220626Y150369D01*
X224547Y148745D01*
X227549Y145743D01*
X229173Y141822D01*
X229173Y137578D01*
X227549Y133657D01*
X224547Y130655D01*
X220626Y129031D01*
X210169Y129031D01*
X210079Y129017D01*
X209988Y129009D01*
X209958Y128997D01*
X209926Y128992D01*
X209845Y128949D01*
X209761Y128913D01*
X209729Y128887D01*
X209709Y128876D01*
X209686Y128853D01*
X209630Y128808D01*
X207090Y126268D01*
X207049Y126210D01*
X206999Y126158D01*
X206977Y126111D01*
X206947Y126069D01*
X206926Y126000D01*
X206895Y125935D01*
X206890Y125883D01*
X206874Y125833D01*
X206876Y125762D01*
X206868Y125691D01*
X206879Y125640D01*
X206881Y125588D01*
X206905Y125520D01*
X206921Y125450D01*
X206947Y125406D01*
X206965Y125357D01*
X207010Y125301D01*
X207047Y125239D01*
X207086Y125205D01*
X207119Y125165D01*
X207179Y125126D01*
X207234Y125079D01*
X207282Y125060D01*
X207326Y125032D01*
X207395Y125014D01*
X207462Y124987D01*
X207533Y124979D01*
X207564Y124971D01*
X207588Y124973D01*
X207629Y124969D01*
X220626Y124969D01*
X224547Y123345D01*
X227549Y120343D01*
X229173Y116422D01*
X229173Y112178D01*
X227549Y108257D01*
X224547Y105255D01*
X220626Y103631D01*
X203174Y103631D01*
X199253Y105255D01*
X197896Y106612D01*
X197838Y106654D01*
X197786Y106703D01*
X197739Y106725D01*
X197697Y106755D01*
X197628Y106776D01*
X197563Y106807D01*
X197511Y106812D01*
X197461Y106828D01*
X197390Y106826D01*
X197319Y106834D01*
X197268Y106823D01*
X197216Y106821D01*
X197148Y106797D01*
X197078Y106782D01*
X197033Y106755D01*
X196985Y106737D01*
X196929Y106692D01*
X196867Y106655D01*
X196833Y106616D01*
X196793Y106583D01*
X196754Y106523D01*
X196707Y106468D01*
X196688Y106420D01*
X196660Y106376D01*
X196642Y106307D01*
X196615Y106240D01*
X196607Y106169D01*
X196599Y106138D01*
X196601Y106115D01*
X196597Y106074D01*
X196597Y97126D01*
X196608Y97056D01*
X196610Y96984D01*
X196628Y96935D01*
X196636Y96884D01*
X196670Y96820D01*
X196695Y96753D01*
X196727Y96712D01*
X196752Y96666D01*
X196804Y96617D01*
X196848Y96561D01*
X196892Y96533D01*
X196930Y96497D01*
X196995Y96467D01*
X197055Y96428D01*
X197106Y96415D01*
X197153Y96393D01*
X197224Y96385D01*
X197294Y96368D01*
X197346Y96372D01*
X197397Y96366D01*
X197468Y96381D01*
X197539Y96387D01*
X197587Y96407D01*
X197638Y96418D01*
X197699Y96455D01*
X197765Y96483D01*
X197821Y96528D01*
X197849Y96545D01*
X197864Y96562D01*
X197896Y96588D01*
X199253Y97945D01*
X203174Y99569D01*
X220626Y99569D01*
X224547Y97945D01*
X227272Y95220D01*
X227346Y95167D01*
X227416Y95107D01*
X227446Y95095D01*
X227472Y95076D01*
X227559Y95049D01*
X227644Y95015D01*
X227685Y95011D01*
X227707Y95004D01*
X227739Y95005D01*
X227810Y94997D01*
X234442Y94997D01*
X234462Y95000D01*
X234481Y94998D01*
X234583Y95020D01*
X234685Y95036D01*
X234702Y95046D01*
X234722Y95050D01*
X234811Y95103D01*
X234902Y95152D01*
X234916Y95166D01*
X234933Y95176D01*
X235000Y95255D01*
X235072Y95330D01*
X235080Y95348D01*
X235093Y95363D01*
X235132Y95459D01*
X235175Y95553D01*
X235177Y95573D01*
X235185Y95591D01*
X235203Y95758D01*
X235203Y248684D01*
X235189Y248775D01*
X235181Y248865D01*
X235169Y248895D01*
X235164Y248927D01*
X235121Y249008D01*
X235085Y249092D01*
X235059Y249124D01*
X235048Y249145D01*
X235025Y249167D01*
X234980Y249223D01*
X234648Y249555D01*
X233453Y252439D01*
X233453Y255561D01*
X234648Y258445D01*
X236855Y260652D01*
X239739Y261847D01*
X242861Y261847D01*
X245745Y260652D01*
X247952Y258445D01*
X249147Y255561D01*
X249147Y252439D01*
X247952Y249555D01*
X247620Y249223D01*
X247567Y249149D01*
X247507Y249079D01*
X247495Y249049D01*
X247476Y249023D01*
X247449Y248936D01*
X247415Y248851D01*
X247411Y248810D01*
X247404Y248788D01*
X247405Y248756D01*
X247397Y248684D01*
X247397Y171431D01*
X247408Y171361D01*
X247410Y171289D01*
X247428Y171240D01*
X247436Y171189D01*
X247470Y171125D01*
X247495Y171058D01*
X247527Y171017D01*
X247552Y170971D01*
X247604Y170922D01*
X247648Y170866D01*
X247692Y170838D01*
X247730Y170802D01*
X247795Y170772D01*
X247855Y170733D01*
X247906Y170720D01*
X247953Y170698D01*
X248024Y170690D01*
X248094Y170673D01*
X248146Y170677D01*
X248197Y170671D01*
X248268Y170687D01*
X248339Y170692D01*
X248387Y170712D01*
X248438Y170724D01*
X248499Y170760D01*
X248565Y170788D01*
X248621Y170833D01*
X248649Y170850D01*
X248664Y170867D01*
X248696Y170893D01*
X249555Y171752D01*
X252439Y172947D01*
X255561Y172947D01*
X258445Y171752D01*
X259304Y170893D01*
X259362Y170851D01*
X259414Y170802D01*
X259461Y170780D01*
X259503Y170750D01*
X259572Y170729D01*
X259637Y170698D01*
X259689Y170693D01*
X259739Y170677D01*
X259810Y170679D01*
X259881Y170671D01*
X259932Y170682D01*
X259984Y170684D01*
X260052Y170708D01*
X260122Y170724D01*
X260167Y170750D01*
X260215Y170768D01*
X260271Y170813D01*
X260333Y170850D01*
X260367Y170889D01*
X260407Y170922D01*
X260446Y170982D01*
X260493Y171037D01*
X260512Y171085D01*
X260540Y171129D01*
X260558Y171198D01*
X260585Y171265D01*
X260593Y171336D01*
X260601Y171367D01*
X260599Y171391D01*
X260603Y171431D01*
X260603Y223284D01*
X260589Y223375D01*
X260581Y223465D01*
X260569Y223495D01*
X260564Y223527D01*
X260521Y223608D01*
X260485Y223692D01*
X260459Y223724D01*
X260448Y223745D01*
X260425Y223767D01*
X260399Y223800D01*
X260398Y223802D01*
X260396Y223803D01*
X260380Y223823D01*
X260048Y224155D01*
X258853Y227039D01*
X258853Y230161D01*
X260048Y233045D01*
X262255Y235252D01*
X265139Y236447D01*
X268261Y236447D01*
X271026Y235301D01*
X271096Y235285D01*
X271163Y235259D01*
X271215Y235257D01*
X271266Y235245D01*
X271337Y235252D01*
X271409Y235249D01*
X271459Y235263D01*
X271511Y235268D01*
X271576Y235297D01*
X271645Y235317D01*
X271688Y235347D01*
X271735Y235368D01*
X271788Y235417D01*
X271847Y235457D01*
X271878Y235499D01*
X271917Y235534D01*
X271951Y235597D01*
X271994Y235655D01*
X272010Y235704D01*
X272035Y235750D01*
X272048Y235821D01*
X272070Y235889D01*
X272070Y235941D01*
X272079Y235992D01*
X272068Y236063D01*
X272068Y236135D01*
X272048Y236204D01*
X272043Y236235D01*
X272033Y236256D01*
X272021Y236296D01*
X270827Y239178D01*
X270827Y243422D01*
X272451Y247343D01*
X275453Y250345D01*
X279374Y251969D01*
X296826Y251969D01*
X300747Y250345D01*
X303749Y247343D01*
X305373Y243422D01*
X305373Y239178D01*
X303749Y235257D01*
X300747Y232255D01*
X296826Y230631D01*
X279374Y230631D01*
X275453Y232255D01*
X275131Y232577D01*
X275052Y232634D01*
X274977Y232696D01*
X274953Y232705D01*
X274931Y232721D01*
X274838Y232749D01*
X274747Y232784D01*
X274721Y232785D01*
X274696Y232793D01*
X274599Y232790D01*
X274502Y232794D01*
X274477Y232787D01*
X274450Y232787D01*
X274359Y232753D01*
X274265Y232726D01*
X274244Y232711D01*
X274219Y232702D01*
X274143Y232641D01*
X274063Y232586D01*
X274048Y232565D01*
X274027Y232548D01*
X273975Y232466D01*
X273917Y232388D01*
X273909Y232364D01*
X273894Y232341D01*
X273871Y232247D01*
X273840Y232154D01*
X273841Y232128D01*
X273834Y232103D01*
X273842Y232006D01*
X273843Y231908D01*
X273852Y231877D01*
X273853Y231858D01*
X273866Y231827D01*
X273890Y231747D01*
X274547Y230161D01*
X274547Y227039D01*
X273890Y225453D01*
X273867Y225358D01*
X273839Y225265D01*
X273839Y225239D01*
X273833Y225213D01*
X273842Y225116D01*
X273845Y225019D01*
X273854Y224994D01*
X273856Y224968D01*
X273896Y224879D01*
X273929Y224788D01*
X273946Y224767D01*
X273956Y224744D01*
X274022Y224672D01*
X274083Y224596D01*
X274105Y224582D01*
X274123Y224562D01*
X274208Y224515D01*
X274290Y224463D01*
X274315Y224456D01*
X274338Y224444D01*
X274434Y224427D01*
X274529Y224403D01*
X274555Y224405D01*
X274580Y224400D01*
X274677Y224414D01*
X274774Y224422D01*
X274798Y224432D01*
X274824Y224436D01*
X274911Y224480D01*
X275000Y224518D01*
X275026Y224539D01*
X275043Y224547D01*
X275066Y224571D01*
X275131Y224623D01*
X275453Y224945D01*
X279374Y226569D01*
X296826Y226569D01*
X300747Y224945D01*
X303749Y221943D01*
X305367Y218037D01*
X305418Y217954D01*
X305464Y217868D01*
X305483Y217850D01*
X305496Y217828D01*
X305571Y217765D01*
X305642Y217698D01*
X305666Y217687D01*
X305686Y217671D01*
X305777Y217636D01*
X305865Y217595D01*
X305891Y217592D01*
X305915Y217583D01*
X306013Y217578D01*
X306109Y217568D01*
X306135Y217573D01*
X306161Y217572D01*
X306255Y217599D01*
X306350Y217620D01*
X306372Y217633D01*
X306397Y217641D01*
X306477Y217696D01*
X306561Y217746D01*
X306578Y217766D01*
X306599Y217781D01*
X306658Y217859D01*
X306721Y217933D01*
X306731Y217957D01*
X306746Y217978D01*
X306776Y218071D01*
X306813Y218161D01*
X306816Y218194D01*
X306822Y218212D01*
X306822Y218245D01*
X306831Y218328D01*
X306831Y220319D01*
X313081Y226569D01*
X321919Y226569D01*
X328169Y220319D01*
X328169Y211481D01*
X321919Y205231D01*
X313081Y205231D01*
X306831Y211481D01*
X306831Y213472D01*
X306816Y213568D01*
X306806Y213665D01*
X306796Y213689D01*
X306792Y213715D01*
X306746Y213801D01*
X306706Y213890D01*
X306689Y213909D01*
X306676Y213932D01*
X306606Y213999D01*
X306540Y214071D01*
X306517Y214083D01*
X306498Y214102D01*
X306410Y214143D01*
X306324Y214189D01*
X306299Y214194D01*
X306275Y214205D01*
X306178Y214216D01*
X306082Y214233D01*
X306056Y214229D01*
X306031Y214232D01*
X305935Y214212D01*
X305839Y214197D01*
X305816Y214186D01*
X305790Y214180D01*
X305707Y214130D01*
X305620Y214086D01*
X305601Y214067D01*
X305579Y214054D01*
X305516Y213980D01*
X305448Y213910D01*
X305432Y213882D01*
X305419Y213867D01*
X305407Y213836D01*
X305367Y213763D01*
X303749Y209857D01*
X300747Y206855D01*
X296826Y205231D01*
X279374Y205231D01*
X275453Y206855D01*
X274096Y208212D01*
X274038Y208254D01*
X273986Y208303D01*
X273939Y208325D01*
X273897Y208355D01*
X273828Y208376D01*
X273763Y208407D01*
X273711Y208412D01*
X273661Y208428D01*
X273590Y208426D01*
X273519Y208434D01*
X273468Y208423D01*
X273416Y208421D01*
X273348Y208397D01*
X273278Y208382D01*
X273233Y208355D01*
X273185Y208337D01*
X273129Y208292D01*
X273067Y208255D01*
X273033Y208216D01*
X272993Y208183D01*
X272954Y208123D01*
X272907Y208068D01*
X272888Y208020D01*
X272860Y207976D01*
X272842Y207907D01*
X272815Y207840D01*
X272807Y207769D01*
X272799Y207738D01*
X272801Y207715D01*
X272797Y207674D01*
X272797Y196450D01*
X272800Y196427D01*
X272798Y196405D01*
X272820Y196306D01*
X272836Y196207D01*
X272847Y196187D01*
X272852Y196165D01*
X272905Y196079D01*
X272952Y195990D01*
X272968Y195974D01*
X272980Y195955D01*
X273057Y195890D01*
X273130Y195821D01*
X273151Y195811D01*
X273168Y195796D01*
X273262Y195759D01*
X273353Y195717D01*
X273376Y195715D01*
X273397Y195706D01*
X273498Y195701D01*
X273597Y195690D01*
X273620Y195695D01*
X273643Y195694D01*
X273740Y195721D01*
X273838Y195742D01*
X273858Y195754D01*
X273880Y195760D01*
X273963Y195817D01*
X274049Y195868D01*
X274064Y195886D01*
X274083Y195899D01*
X274191Y196027D01*
X274393Y196329D01*
X275666Y197603D01*
X277164Y198604D01*
X278829Y199293D01*
X280595Y199645D01*
X286577Y199645D01*
X286577Y191262D01*
X286580Y191242D01*
X286578Y191223D01*
X286600Y191121D01*
X286617Y191019D01*
X286626Y191002D01*
X286630Y190982D01*
X286683Y190893D01*
X286732Y190802D01*
X286746Y190788D01*
X286756Y190771D01*
X286835Y190704D01*
X286910Y190633D01*
X286928Y190624D01*
X286943Y190611D01*
X287039Y190573D01*
X287133Y190529D01*
X287153Y190527D01*
X287171Y190519D01*
X287338Y190501D01*
X288101Y190501D01*
X288101Y190499D01*
X287338Y190499D01*
X287318Y190496D01*
X287299Y190498D01*
X287197Y190476D01*
X287095Y190459D01*
X287078Y190450D01*
X287058Y190446D01*
X286969Y190393D01*
X286878Y190344D01*
X286864Y190330D01*
X286847Y190320D01*
X286780Y190241D01*
X286709Y190166D01*
X286700Y190148D01*
X286687Y190133D01*
X286648Y190037D01*
X286605Y189943D01*
X286603Y189923D01*
X286595Y189905D01*
X286577Y189738D01*
X286577Y181355D01*
X280595Y181355D01*
X278829Y181707D01*
X277164Y182396D01*
X275666Y183397D01*
X274393Y184671D01*
X274191Y184973D01*
X274175Y184990D01*
X274164Y185010D01*
X274092Y185079D01*
X274023Y185152D01*
X274003Y185163D01*
X273986Y185179D01*
X273895Y185222D01*
X273807Y185269D01*
X273784Y185273D01*
X273763Y185283D01*
X273663Y185294D01*
X273564Y185311D01*
X273541Y185307D01*
X273519Y185310D01*
X273420Y185289D01*
X273321Y185273D01*
X273301Y185263D01*
X273278Y185258D01*
X273192Y185206D01*
X273103Y185160D01*
X273087Y185143D01*
X273067Y185132D01*
X273002Y185055D01*
X272932Y184983D01*
X272922Y184962D01*
X272907Y184945D01*
X272870Y184852D01*
X272827Y184761D01*
X272824Y184738D01*
X272815Y184717D01*
X272797Y184550D01*
X272797Y173326D01*
X272808Y173256D01*
X272810Y173184D01*
X272828Y173135D01*
X272836Y173084D01*
X272870Y173020D01*
X272895Y172953D01*
X272927Y172912D01*
X272952Y172866D01*
X273004Y172817D01*
X273048Y172761D01*
X273092Y172733D01*
X273130Y172697D01*
X273195Y172667D01*
X273255Y172628D01*
X273306Y172615D01*
X273353Y172593D01*
X273424Y172585D01*
X273494Y172568D01*
X273546Y172572D01*
X273597Y172566D01*
X273668Y172581D01*
X273739Y172587D01*
X273787Y172607D01*
X273838Y172618D01*
X273899Y172655D01*
X273965Y172683D01*
X274021Y172728D01*
X274049Y172745D01*
X274064Y172762D01*
X274096Y172788D01*
X275453Y174145D01*
X279374Y175769D01*
X296826Y175769D01*
X300747Y174145D01*
X303749Y171143D01*
X305373Y167222D01*
X305373Y162978D01*
X303749Y159057D01*
X300747Y156055D01*
X296826Y154431D01*
X279374Y154431D01*
X275453Y156055D01*
X274096Y157412D01*
X274038Y157454D01*
X273986Y157503D01*
X273939Y157525D01*
X273897Y157555D01*
X273828Y157576D01*
X273763Y157607D01*
X273711Y157612D01*
X273661Y157628D01*
X273590Y157626D01*
X273519Y157634D01*
X273468Y157623D01*
X273416Y157621D01*
X273348Y157597D01*
X273278Y157582D01*
X273233Y157555D01*
X273185Y157537D01*
X273129Y157492D01*
X273067Y157455D01*
X273033Y157416D01*
X272993Y157383D01*
X272954Y157323D01*
X272907Y157268D01*
X272888Y157220D01*
X272860Y157176D01*
X272842Y157107D01*
X272815Y157040D01*
X272807Y156969D01*
X272799Y156938D01*
X272801Y156915D01*
X272797Y156874D01*
X272797Y147926D01*
X272799Y147915D01*
X272798Y147908D01*
X272806Y147869D01*
X272808Y147856D01*
X272810Y147784D01*
X272828Y147735D01*
X272836Y147684D01*
X272870Y147620D01*
X272895Y147553D01*
X272927Y147512D01*
X272952Y147466D01*
X273004Y147417D01*
X273048Y147361D01*
X273092Y147333D01*
X273130Y147297D01*
X273195Y147267D01*
X273255Y147228D01*
X273306Y147215D01*
X273353Y147193D01*
X273424Y147185D01*
X273494Y147168D01*
X273546Y147172D01*
X273597Y147166D01*
X273668Y147181D01*
X273739Y147187D01*
X273787Y147207D01*
X273838Y147218D01*
X273899Y147255D01*
X273965Y147283D01*
X274021Y147328D01*
X274049Y147345D01*
X274064Y147362D01*
X274096Y147388D01*
X275453Y148745D01*
X279374Y150369D01*
X296826Y150369D01*
X300747Y148745D01*
X303749Y145743D01*
X305373Y141822D01*
X305373Y137578D01*
X303749Y133657D01*
X300747Y130655D01*
X296826Y129031D01*
X279374Y129031D01*
X275453Y130655D01*
X274096Y132012D01*
X274038Y132054D01*
X273986Y132103D01*
X273939Y132125D01*
X273897Y132155D01*
X273828Y132176D01*
X273763Y132207D01*
X273711Y132212D01*
X273661Y132228D01*
X273590Y132226D01*
X273519Y132234D01*
X273468Y132223D01*
X273416Y132221D01*
X273348Y132197D01*
X273278Y132182D01*
X273233Y132155D01*
X273185Y132137D01*
X273129Y132092D01*
X273067Y132055D01*
X273033Y132016D01*
X272993Y131983D01*
X272954Y131923D01*
X272907Y131868D01*
X272888Y131820D01*
X272860Y131776D01*
X272842Y131707D01*
X272815Y131640D01*
X272807Y131569D01*
X272799Y131538D01*
X272801Y131515D01*
X272797Y131474D01*
X272797Y122526D01*
X272808Y122456D01*
X272810Y122384D01*
X272828Y122335D01*
X272836Y122284D01*
X272870Y122220D01*
X272895Y122153D01*
X272927Y122112D01*
X272952Y122066D01*
X273004Y122017D01*
X273048Y121961D01*
X273092Y121933D01*
X273130Y121897D01*
X273195Y121867D01*
X273255Y121828D01*
X273306Y121815D01*
X273353Y121793D01*
X273424Y121785D01*
X273494Y121768D01*
X273546Y121772D01*
X273597Y121766D01*
X273668Y121781D01*
X273739Y121787D01*
X273787Y121807D01*
X273838Y121818D01*
X273899Y121855D01*
X273965Y121883D01*
X274021Y121928D01*
X274049Y121945D01*
X274064Y121962D01*
X274096Y121988D01*
X275453Y123345D01*
X279374Y124969D01*
X296826Y124969D01*
X300747Y123345D01*
X303749Y120343D01*
X305373Y116422D01*
X305373Y112178D01*
X303749Y108257D01*
X300747Y105255D01*
X296826Y103631D01*
X279374Y103631D01*
X275453Y105255D01*
X274096Y106612D01*
X274038Y106654D01*
X273986Y106703D01*
X273939Y106725D01*
X273897Y106755D01*
X273828Y106776D01*
X273763Y106807D01*
X273711Y106812D01*
X273661Y106828D01*
X273590Y106826D01*
X273519Y106834D01*
X273468Y106823D01*
X273416Y106821D01*
X273348Y106797D01*
X273278Y106782D01*
X273233Y106755D01*
X273185Y106737D01*
X273129Y106692D01*
X273067Y106655D01*
X273033Y106616D01*
X272993Y106583D01*
X272954Y106523D01*
X272907Y106468D01*
X272888Y106420D01*
X272860Y106376D01*
X272842Y106307D01*
X272815Y106240D01*
X272807Y106169D01*
X272799Y106138D01*
X272801Y106115D01*
X272797Y106074D01*
X272797Y97126D01*
X272808Y97056D01*
X272810Y96984D01*
X272828Y96935D01*
X272836Y96884D01*
X272870Y96820D01*
X272895Y96753D01*
X272927Y96712D01*
X272952Y96666D01*
X273004Y96617D01*
X273048Y96561D01*
X273092Y96533D01*
X273130Y96497D01*
X273195Y96467D01*
X273255Y96428D01*
X273306Y96415D01*
X273353Y96393D01*
X273424Y96385D01*
X273494Y96368D01*
X273546Y96372D01*
X273597Y96366D01*
X273668Y96381D01*
X273739Y96387D01*
X273787Y96407D01*
X273838Y96418D01*
X273899Y96455D01*
X273965Y96483D01*
X274021Y96528D01*
X274049Y96545D01*
X274064Y96562D01*
X274096Y96588D01*
X275453Y97945D01*
X279374Y99569D01*
X296826Y99569D01*
X300747Y97945D01*
X303749Y94943D01*
X305373Y91022D01*
X305373Y86778D01*
X303749Y82857D01*
X300747Y79855D01*
X296826Y78231D01*
X279374Y78231D01*
X275453Y79855D01*
X272728Y82580D01*
X272654Y82633D01*
X272584Y82693D01*
X272554Y82705D01*
X272528Y82724D01*
X272441Y82751D01*
X272356Y82785D01*
X272315Y82789D01*
X272293Y82796D01*
X272261Y82795D01*
X272190Y82803D01*
X265487Y82803D01*
X263246Y83731D01*
X261498Y85480D01*
X261464Y85543D01*
X261446Y85561D01*
X261432Y85583D01*
X261357Y85646D01*
X261286Y85713D01*
X261262Y85724D01*
X261242Y85740D01*
X261151Y85775D01*
X261063Y85816D01*
X261037Y85819D01*
X261013Y85828D01*
X260915Y85833D01*
X260819Y85843D01*
X260793Y85838D01*
X260767Y85839D01*
X260674Y85812D01*
X260578Y85791D01*
X260556Y85778D01*
X260531Y85770D01*
X260451Y85715D01*
X260367Y85665D01*
X260350Y85645D01*
X260329Y85630D01*
X260271Y85552D01*
X260207Y85478D01*
X260197Y85454D01*
X260182Y85433D01*
X260152Y85340D01*
X260115Y85250D01*
X260112Y85218D01*
X260106Y85199D01*
X260106Y85166D01*
X260097Y85083D01*
X260097Y67611D01*
X260111Y67521D01*
X260119Y67430D01*
X260131Y67400D01*
X260136Y67368D01*
X260179Y67287D01*
X260215Y67203D01*
X260241Y67171D01*
X260252Y67151D01*
X260275Y67128D01*
X260320Y67072D01*
X286263Y41129D01*
X286357Y41061D01*
X286452Y40991D01*
X286458Y40989D01*
X286463Y40985D01*
X286574Y40951D01*
X286686Y40915D01*
X286692Y40915D01*
X286698Y40913D01*
X286815Y40916D01*
X286932Y40917D01*
X286939Y40919D01*
X286944Y40919D01*
X286961Y40926D01*
X287093Y40964D01*
X288152Y41403D01*
X293508Y41403D01*
X298456Y39353D01*
X302243Y35566D01*
X304293Y30618D01*
X304293Y25262D01*
X302243Y20314D01*
X298456Y16527D01*
X293508Y14477D01*
X288152Y14477D01*
G37*
%LPD*%
%LPC*%
G36*
X176239Y157253D02*
X176239Y157253D01*
X173355Y158448D01*
X171148Y160655D01*
X169953Y163539D01*
X169953Y166661D01*
X171148Y169545D01*
X171480Y169877D01*
X171533Y169951D01*
X171593Y170021D01*
X171605Y170051D01*
X171624Y170077D01*
X171651Y170164D01*
X171685Y170249D01*
X171689Y170290D01*
X171696Y170312D01*
X171695Y170344D01*
X171703Y170416D01*
X171703Y320894D01*
X171689Y320984D01*
X171681Y321075D01*
X171669Y321104D01*
X171664Y321136D01*
X171621Y321217D01*
X171585Y321301D01*
X171559Y321333D01*
X171548Y321354D01*
X171525Y321376D01*
X171480Y321432D01*
X167131Y325781D01*
X167131Y334619D01*
X173381Y340869D01*
X182219Y340869D01*
X188469Y334619D01*
X188469Y325781D01*
X184120Y321432D01*
X184067Y321358D01*
X184007Y321288D01*
X183995Y321258D01*
X183976Y321232D01*
X183949Y321145D01*
X183915Y321060D01*
X183911Y321019D01*
X183904Y320997D01*
X183905Y320965D01*
X183897Y320894D01*
X183897Y273031D01*
X183908Y272961D01*
X183910Y272889D01*
X183928Y272840D01*
X183936Y272789D01*
X183970Y272725D01*
X183995Y272658D01*
X184027Y272617D01*
X184052Y272571D01*
X184104Y272522D01*
X184148Y272466D01*
X184192Y272438D01*
X184230Y272402D01*
X184295Y272372D01*
X184355Y272333D01*
X184406Y272320D01*
X184453Y272298D01*
X184524Y272290D01*
X184594Y272273D01*
X184646Y272277D01*
X184697Y272271D01*
X184768Y272287D01*
X184839Y272292D01*
X184887Y272312D01*
X184938Y272324D01*
X184999Y272360D01*
X185065Y272388D01*
X185121Y272433D01*
X185149Y272450D01*
X185164Y272467D01*
X185196Y272493D01*
X186055Y273352D01*
X188939Y274547D01*
X192061Y274547D01*
X194945Y273352D01*
X195364Y272933D01*
X195380Y272921D01*
X195393Y272906D01*
X195480Y272849D01*
X195564Y272789D01*
X195583Y272783D01*
X195600Y272773D01*
X195700Y272747D01*
X195799Y272717D01*
X195819Y272717D01*
X195838Y272712D01*
X195941Y272720D01*
X196045Y272723D01*
X196064Y272730D01*
X196084Y272732D01*
X196178Y272772D01*
X196276Y272808D01*
X196292Y272820D01*
X196310Y272828D01*
X196441Y272933D01*
X199253Y275745D01*
X203174Y277369D01*
X220626Y277369D01*
X224547Y275745D01*
X227549Y272743D01*
X229173Y268822D01*
X229173Y264578D01*
X227549Y260657D01*
X224547Y257655D01*
X220626Y256031D01*
X203174Y256031D01*
X199253Y257655D01*
X197896Y259012D01*
X197838Y259054D01*
X197786Y259103D01*
X197739Y259125D01*
X197697Y259155D01*
X197628Y259176D01*
X197563Y259207D01*
X197511Y259212D01*
X197461Y259228D01*
X197390Y259226D01*
X197319Y259234D01*
X197268Y259223D01*
X197216Y259221D01*
X197148Y259197D01*
X197078Y259182D01*
X197033Y259155D01*
X196985Y259137D01*
X196929Y259092D01*
X196867Y259055D01*
X196833Y259016D01*
X196793Y258983D01*
X196754Y258923D01*
X196707Y258868D01*
X196688Y258820D01*
X196660Y258776D01*
X196642Y258707D01*
X196615Y258640D01*
X196607Y258569D01*
X196599Y258538D01*
X196601Y258515D01*
X196597Y258474D01*
X196597Y247250D01*
X196600Y247227D01*
X196598Y247205D01*
X196620Y247106D01*
X196636Y247007D01*
X196647Y246987D01*
X196652Y246965D01*
X196705Y246879D01*
X196752Y246790D01*
X196768Y246774D01*
X196780Y246755D01*
X196857Y246690D01*
X196930Y246621D01*
X196951Y246611D01*
X196968Y246596D01*
X197062Y246559D01*
X197153Y246517D01*
X197176Y246515D01*
X197197Y246506D01*
X197298Y246501D01*
X197397Y246490D01*
X197420Y246495D01*
X197443Y246494D01*
X197540Y246521D01*
X197638Y246542D01*
X197658Y246554D01*
X197680Y246560D01*
X197763Y246617D01*
X197849Y246668D01*
X197864Y246686D01*
X197883Y246699D01*
X197991Y246827D01*
X198193Y247129D01*
X199466Y248403D01*
X200964Y249404D01*
X202629Y250093D01*
X204395Y250445D01*
X210377Y250445D01*
X210377Y242062D01*
X210380Y242042D01*
X210378Y242023D01*
X210400Y241921D01*
X210417Y241819D01*
X210426Y241802D01*
X210430Y241782D01*
X210483Y241693D01*
X210532Y241602D01*
X210546Y241588D01*
X210556Y241571D01*
X210635Y241504D01*
X210710Y241433D01*
X210728Y241424D01*
X210743Y241411D01*
X210839Y241373D01*
X210933Y241329D01*
X210953Y241327D01*
X210971Y241319D01*
X211138Y241301D01*
X211901Y241301D01*
X211901Y241299D01*
X211138Y241299D01*
X211118Y241296D01*
X211099Y241298D01*
X210997Y241276D01*
X210895Y241259D01*
X210878Y241250D01*
X210858Y241246D01*
X210769Y241193D01*
X210678Y241144D01*
X210664Y241130D01*
X210647Y241120D01*
X210580Y241041D01*
X210509Y240966D01*
X210500Y240948D01*
X210487Y240933D01*
X210448Y240837D01*
X210405Y240743D01*
X210403Y240723D01*
X210395Y240705D01*
X210377Y240538D01*
X210377Y232155D01*
X204395Y232155D01*
X202629Y232507D01*
X200964Y233196D01*
X199466Y234197D01*
X198193Y235471D01*
X197991Y235773D01*
X197975Y235790D01*
X197964Y235810D01*
X197892Y235879D01*
X197823Y235952D01*
X197803Y235963D01*
X197786Y235979D01*
X197695Y236022D01*
X197607Y236069D01*
X197584Y236073D01*
X197563Y236083D01*
X197463Y236094D01*
X197364Y236111D01*
X197341Y236107D01*
X197319Y236110D01*
X197220Y236089D01*
X197121Y236073D01*
X197101Y236063D01*
X197078Y236058D01*
X196992Y236006D01*
X196903Y235960D01*
X196887Y235943D01*
X196867Y235932D01*
X196802Y235855D01*
X196732Y235783D01*
X196722Y235762D01*
X196707Y235745D01*
X196670Y235652D01*
X196627Y235561D01*
X196624Y235538D01*
X196615Y235517D01*
X196597Y235350D01*
X196597Y224126D01*
X196608Y224056D01*
X196610Y223984D01*
X196628Y223935D01*
X196636Y223884D01*
X196670Y223820D01*
X196695Y223753D01*
X196727Y223712D01*
X196752Y223666D01*
X196804Y223617D01*
X196848Y223561D01*
X196892Y223533D01*
X196930Y223497D01*
X196995Y223467D01*
X197055Y223428D01*
X197106Y223415D01*
X197153Y223393D01*
X197224Y223385D01*
X197294Y223368D01*
X197346Y223372D01*
X197397Y223366D01*
X197468Y223381D01*
X197539Y223387D01*
X197587Y223407D01*
X197638Y223418D01*
X197699Y223455D01*
X197765Y223483D01*
X197821Y223528D01*
X197849Y223545D01*
X197864Y223562D01*
X197896Y223588D01*
X199253Y224945D01*
X203174Y226569D01*
X220626Y226569D01*
X224547Y224945D01*
X227549Y221943D01*
X229173Y218022D01*
X229173Y213778D01*
X227549Y209857D01*
X224547Y206855D01*
X220626Y205231D01*
X203174Y205231D01*
X199253Y206855D01*
X197896Y208212D01*
X197838Y208254D01*
X197786Y208303D01*
X197739Y208325D01*
X197697Y208355D01*
X197628Y208376D01*
X197563Y208407D01*
X197511Y208412D01*
X197461Y208428D01*
X197390Y208426D01*
X197319Y208434D01*
X197268Y208423D01*
X197216Y208421D01*
X197148Y208397D01*
X197078Y208382D01*
X197033Y208355D01*
X196985Y208337D01*
X196929Y208292D01*
X196867Y208255D01*
X196833Y208216D01*
X196793Y208183D01*
X196754Y208123D01*
X196707Y208068D01*
X196688Y208020D01*
X196660Y207976D01*
X196642Y207907D01*
X196615Y207840D01*
X196607Y207769D01*
X196599Y207738D01*
X196601Y207715D01*
X196597Y207674D01*
X196597Y198726D01*
X196608Y198656D01*
X196610Y198584D01*
X196628Y198535D01*
X196636Y198484D01*
X196670Y198420D01*
X196695Y198353D01*
X196727Y198312D01*
X196752Y198266D01*
X196804Y198217D01*
X196848Y198161D01*
X196892Y198133D01*
X196930Y198097D01*
X196995Y198067D01*
X197055Y198028D01*
X197106Y198015D01*
X197153Y197993D01*
X197224Y197985D01*
X197294Y197968D01*
X197346Y197972D01*
X197397Y197966D01*
X197468Y197981D01*
X197539Y197987D01*
X197587Y198007D01*
X197638Y198018D01*
X197699Y198055D01*
X197765Y198083D01*
X197821Y198128D01*
X197849Y198145D01*
X197864Y198162D01*
X197896Y198188D01*
X199253Y199545D01*
X203174Y201169D01*
X220626Y201169D01*
X224547Y199545D01*
X227549Y196543D01*
X229173Y192622D01*
X229173Y188378D01*
X227549Y184457D01*
X224547Y181455D01*
X220626Y179831D01*
X203174Y179831D01*
X199253Y181455D01*
X196528Y184180D01*
X196454Y184233D01*
X196384Y184293D01*
X196354Y184305D01*
X196328Y184324D01*
X196241Y184351D01*
X196156Y184385D01*
X196115Y184389D01*
X196093Y184396D01*
X196061Y184395D01*
X195990Y184403D01*
X189287Y184403D01*
X187046Y185331D01*
X185298Y187080D01*
X185264Y187143D01*
X185246Y187161D01*
X185232Y187183D01*
X185157Y187246D01*
X185086Y187313D01*
X185062Y187324D01*
X185042Y187340D01*
X184951Y187375D01*
X184863Y187416D01*
X184837Y187419D01*
X184813Y187428D01*
X184715Y187433D01*
X184619Y187443D01*
X184593Y187438D01*
X184567Y187439D01*
X184473Y187412D01*
X184378Y187391D01*
X184356Y187378D01*
X184331Y187371D01*
X184251Y187315D01*
X184167Y187265D01*
X184150Y187245D01*
X184129Y187230D01*
X184071Y187152D01*
X184007Y187078D01*
X183997Y187054D01*
X183982Y187033D01*
X183952Y186941D01*
X183915Y186850D01*
X183912Y186818D01*
X183906Y186799D01*
X183906Y186766D01*
X183897Y186683D01*
X183897Y170416D01*
X183911Y170325D01*
X183919Y170235D01*
X183931Y170205D01*
X183936Y170173D01*
X183979Y170092D01*
X184015Y170008D01*
X184041Y169976D01*
X184052Y169955D01*
X184075Y169933D01*
X184120Y169877D01*
X184452Y169545D01*
X185647Y166661D01*
X185647Y163539D01*
X184452Y160655D01*
X182245Y158448D01*
X179361Y157253D01*
X176239Y157253D01*
G37*
%LPD*%
%LPC*%
G36*
X25399Y165099D02*
X25399Y165099D01*
X25399Y165862D01*
X25396Y165882D01*
X25398Y165901D01*
X25376Y166003D01*
X25359Y166105D01*
X25350Y166122D01*
X25346Y166142D01*
X25293Y166231D01*
X25244Y166322D01*
X25230Y166336D01*
X25220Y166353D01*
X25141Y166420D01*
X25066Y166491D01*
X25048Y166500D01*
X25033Y166513D01*
X24937Y166552D01*
X24843Y166595D01*
X24823Y166597D01*
X24805Y166605D01*
X24638Y166623D01*
X13554Y166623D01*
X13755Y167896D01*
X14336Y169683D01*
X15189Y171357D01*
X16294Y172878D01*
X17622Y174206D01*
X19143Y175311D01*
X20817Y176164D01*
X21104Y176257D01*
X21194Y176304D01*
X21286Y176345D01*
X21302Y176360D01*
X21322Y176370D01*
X21393Y176443D01*
X21467Y176511D01*
X21478Y176531D01*
X21493Y176547D01*
X21537Y176638D01*
X21586Y176727D01*
X21590Y176749D01*
X21599Y176769D01*
X21612Y176869D01*
X21630Y176969D01*
X21626Y176991D01*
X21629Y177013D01*
X21609Y177112D01*
X21594Y177212D01*
X21584Y177232D01*
X21579Y177254D01*
X21528Y177341D01*
X21482Y177431D01*
X21466Y177447D01*
X21455Y177466D01*
X21379Y177533D01*
X21307Y177604D01*
X21283Y177617D01*
X21270Y177628D01*
X21240Y177640D01*
X21160Y177684D01*
X17774Y179087D01*
X13987Y182874D01*
X11937Y187822D01*
X11937Y193178D01*
X13987Y198126D01*
X17774Y201913D01*
X19183Y202497D01*
X19244Y202534D01*
X19309Y202564D01*
X19348Y202599D01*
X19392Y202626D01*
X19438Y202682D01*
X19490Y202730D01*
X19515Y202776D01*
X19549Y202816D01*
X19574Y202883D01*
X19609Y202946D01*
X19618Y202997D01*
X19637Y203045D01*
X19640Y203117D01*
X19653Y203188D01*
X19645Y203239D01*
X19647Y203291D01*
X19627Y203360D01*
X19617Y203431D01*
X19593Y203477D01*
X19579Y203527D01*
X19538Y203586D01*
X19505Y203650D01*
X19468Y203687D01*
X19438Y203729D01*
X19381Y203772D01*
X19330Y203822D01*
X19267Y203857D01*
X19241Y203876D01*
X19219Y203883D01*
X19183Y203903D01*
X17774Y204487D01*
X13987Y208274D01*
X11937Y213222D01*
X11937Y218578D01*
X13987Y223526D01*
X17774Y227313D01*
X19183Y227897D01*
X19244Y227934D01*
X19309Y227964D01*
X19348Y227999D01*
X19392Y228026D01*
X19438Y228082D01*
X19490Y228130D01*
X19515Y228176D01*
X19549Y228216D01*
X19574Y228283D01*
X19609Y228346D01*
X19618Y228397D01*
X19637Y228445D01*
X19640Y228517D01*
X19653Y228588D01*
X19645Y228639D01*
X19647Y228691D01*
X19627Y228760D01*
X19617Y228831D01*
X19593Y228877D01*
X19579Y228927D01*
X19538Y228986D01*
X19505Y229050D01*
X19468Y229087D01*
X19438Y229129D01*
X19381Y229172D01*
X19330Y229222D01*
X19267Y229257D01*
X19241Y229276D01*
X19219Y229283D01*
X19183Y229303D01*
X17774Y229887D01*
X13987Y233674D01*
X11937Y238622D01*
X11937Y243978D01*
X13987Y248926D01*
X17774Y252713D01*
X19183Y253297D01*
X19244Y253335D01*
X19309Y253364D01*
X19348Y253399D01*
X19392Y253426D01*
X19438Y253482D01*
X19490Y253530D01*
X19515Y253576D01*
X19549Y253616D01*
X19574Y253683D01*
X19609Y253746D01*
X19618Y253797D01*
X19637Y253845D01*
X19640Y253917D01*
X19653Y253988D01*
X19645Y254039D01*
X19647Y254091D01*
X19627Y254160D01*
X19617Y254231D01*
X19593Y254277D01*
X19579Y254327D01*
X19538Y254386D01*
X19505Y254450D01*
X19468Y254487D01*
X19438Y254529D01*
X19381Y254572D01*
X19330Y254622D01*
X19267Y254657D01*
X19241Y254676D01*
X19219Y254683D01*
X19183Y254703D01*
X17774Y255287D01*
X13987Y259074D01*
X11937Y264022D01*
X11937Y269378D01*
X13987Y274326D01*
X17774Y278113D01*
X19183Y278697D01*
X19244Y278734D01*
X19309Y278764D01*
X19348Y278799D01*
X19392Y278826D01*
X19438Y278882D01*
X19490Y278930D01*
X19515Y278976D01*
X19549Y279016D01*
X19574Y279083D01*
X19609Y279146D01*
X19618Y279197D01*
X19637Y279245D01*
X19640Y279317D01*
X19653Y279388D01*
X19645Y279439D01*
X19647Y279491D01*
X19627Y279560D01*
X19617Y279631D01*
X19593Y279677D01*
X19579Y279727D01*
X19538Y279786D01*
X19505Y279850D01*
X19468Y279887D01*
X19438Y279929D01*
X19381Y279972D01*
X19330Y280022D01*
X19267Y280057D01*
X19241Y280076D01*
X19219Y280083D01*
X19183Y280103D01*
X17774Y280687D01*
X13987Y284474D01*
X11937Y289422D01*
X11937Y294778D01*
X13987Y299726D01*
X17774Y303513D01*
X19183Y304097D01*
X19244Y304134D01*
X19309Y304164D01*
X19348Y304199D01*
X19392Y304226D01*
X19438Y304282D01*
X19490Y304330D01*
X19515Y304376D01*
X19549Y304416D01*
X19574Y304483D01*
X19609Y304546D01*
X19618Y304597D01*
X19637Y304645D01*
X19640Y304717D01*
X19653Y304788D01*
X19645Y304839D01*
X19647Y304891D01*
X19627Y304960D01*
X19617Y305031D01*
X19593Y305077D01*
X19579Y305127D01*
X19538Y305186D01*
X19505Y305250D01*
X19468Y305287D01*
X19438Y305329D01*
X19381Y305372D01*
X19330Y305422D01*
X19267Y305457D01*
X19241Y305476D01*
X19219Y305483D01*
X19183Y305503D01*
X17774Y306087D01*
X13987Y309874D01*
X11937Y314822D01*
X11937Y320178D01*
X13987Y325126D01*
X17774Y328913D01*
X19183Y329497D01*
X19244Y329534D01*
X19309Y329564D01*
X19348Y329599D01*
X19392Y329626D01*
X19438Y329682D01*
X19490Y329730D01*
X19515Y329776D01*
X19549Y329816D01*
X19574Y329883D01*
X19609Y329946D01*
X19618Y329997D01*
X19637Y330045D01*
X19640Y330117D01*
X19653Y330188D01*
X19645Y330239D01*
X19647Y330291D01*
X19627Y330360D01*
X19617Y330431D01*
X19593Y330477D01*
X19579Y330527D01*
X19538Y330586D01*
X19505Y330650D01*
X19468Y330687D01*
X19438Y330729D01*
X19381Y330772D01*
X19330Y330822D01*
X19267Y330857D01*
X19241Y330876D01*
X19219Y330883D01*
X19183Y330903D01*
X17774Y331487D01*
X13987Y335274D01*
X11937Y340222D01*
X11937Y345578D01*
X13987Y350526D01*
X17774Y354313D01*
X19183Y354897D01*
X19244Y354934D01*
X19309Y354964D01*
X19348Y354999D01*
X19392Y355026D01*
X19438Y355082D01*
X19490Y355130D01*
X19515Y355176D01*
X19549Y355216D01*
X19574Y355283D01*
X19609Y355346D01*
X19618Y355397D01*
X19637Y355445D01*
X19640Y355517D01*
X19653Y355588D01*
X19645Y355639D01*
X19647Y355691D01*
X19627Y355760D01*
X19617Y355831D01*
X19593Y355877D01*
X19579Y355927D01*
X19538Y355986D01*
X19505Y356050D01*
X19468Y356087D01*
X19438Y356129D01*
X19381Y356172D01*
X19330Y356222D01*
X19267Y356257D01*
X19241Y356276D01*
X19219Y356283D01*
X19183Y356303D01*
X17774Y356887D01*
X13987Y360674D01*
X11937Y365622D01*
X11937Y370978D01*
X13987Y375926D01*
X17774Y379713D01*
X22722Y381763D01*
X28078Y381763D01*
X33026Y379713D01*
X36813Y375926D01*
X38863Y370978D01*
X38863Y365622D01*
X36813Y360674D01*
X33026Y356887D01*
X31617Y356303D01*
X31556Y356265D01*
X31491Y356236D01*
X31452Y356201D01*
X31408Y356174D01*
X31362Y356118D01*
X31310Y356070D01*
X31285Y356024D01*
X31251Y355984D01*
X31226Y355917D01*
X31191Y355854D01*
X31182Y355803D01*
X31163Y355755D01*
X31160Y355683D01*
X31147Y355612D01*
X31155Y355561D01*
X31153Y355509D01*
X31173Y355440D01*
X31183Y355369D01*
X31207Y355323D01*
X31221Y355273D01*
X31262Y355214D01*
X31295Y355150D01*
X31332Y355113D01*
X31362Y355071D01*
X31419Y355028D01*
X31470Y354978D01*
X31533Y354943D01*
X31559Y354924D01*
X31581Y354917D01*
X31617Y354897D01*
X33026Y354313D01*
X36813Y350526D01*
X38863Y345578D01*
X38863Y340222D01*
X36813Y335274D01*
X33026Y331487D01*
X31617Y330903D01*
X31556Y330865D01*
X31491Y330836D01*
X31452Y330801D01*
X31408Y330774D01*
X31362Y330718D01*
X31310Y330670D01*
X31285Y330624D01*
X31251Y330584D01*
X31226Y330517D01*
X31191Y330454D01*
X31182Y330403D01*
X31163Y330355D01*
X31160Y330283D01*
X31147Y330212D01*
X31155Y330161D01*
X31153Y330109D01*
X31173Y330040D01*
X31183Y329969D01*
X31207Y329923D01*
X31221Y329873D01*
X31262Y329814D01*
X31295Y329750D01*
X31332Y329713D01*
X31362Y329671D01*
X31419Y329628D01*
X31470Y329578D01*
X31533Y329543D01*
X31559Y329524D01*
X31581Y329517D01*
X31617Y329497D01*
X33026Y328913D01*
X36813Y325126D01*
X38863Y320178D01*
X38863Y314822D01*
X36813Y309874D01*
X33026Y306087D01*
X31617Y305503D01*
X31556Y305465D01*
X31491Y305436D01*
X31452Y305401D01*
X31408Y305374D01*
X31362Y305318D01*
X31310Y305270D01*
X31285Y305224D01*
X31251Y305184D01*
X31226Y305117D01*
X31191Y305054D01*
X31182Y305003D01*
X31163Y304955D01*
X31160Y304883D01*
X31147Y304812D01*
X31155Y304761D01*
X31153Y304709D01*
X31173Y304640D01*
X31183Y304569D01*
X31207Y304523D01*
X31221Y304473D01*
X31262Y304414D01*
X31295Y304350D01*
X31332Y304313D01*
X31362Y304271D01*
X31419Y304228D01*
X31470Y304178D01*
X31533Y304143D01*
X31559Y304124D01*
X31581Y304117D01*
X31617Y304097D01*
X33026Y303513D01*
X36813Y299726D01*
X38863Y294778D01*
X38863Y289422D01*
X36813Y284474D01*
X33026Y280687D01*
X31617Y280103D01*
X31556Y280065D01*
X31491Y280036D01*
X31452Y280001D01*
X31408Y279974D01*
X31362Y279918D01*
X31310Y279870D01*
X31285Y279824D01*
X31251Y279784D01*
X31226Y279717D01*
X31191Y279654D01*
X31182Y279603D01*
X31163Y279555D01*
X31160Y279483D01*
X31147Y279412D01*
X31155Y279361D01*
X31153Y279309D01*
X31173Y279240D01*
X31183Y279169D01*
X31207Y279123D01*
X31221Y279073D01*
X31262Y279014D01*
X31295Y278950D01*
X31332Y278913D01*
X31362Y278871D01*
X31419Y278828D01*
X31470Y278778D01*
X31533Y278743D01*
X31559Y278724D01*
X31581Y278717D01*
X31617Y278697D01*
X33026Y278113D01*
X36813Y274326D01*
X38863Y269378D01*
X38863Y264022D01*
X36813Y259074D01*
X33026Y255287D01*
X31617Y254703D01*
X31556Y254666D01*
X31491Y254636D01*
X31452Y254601D01*
X31408Y254574D01*
X31362Y254518D01*
X31310Y254470D01*
X31285Y254424D01*
X31251Y254384D01*
X31226Y254317D01*
X31191Y254254D01*
X31182Y254203D01*
X31163Y254155D01*
X31160Y254083D01*
X31147Y254012D01*
X31155Y253961D01*
X31153Y253909D01*
X31173Y253840D01*
X31183Y253769D01*
X31207Y253723D01*
X31221Y253673D01*
X31262Y253614D01*
X31295Y253550D01*
X31332Y253513D01*
X31362Y253471D01*
X31419Y253428D01*
X31470Y253378D01*
X31533Y253343D01*
X31559Y253324D01*
X31581Y253317D01*
X31617Y253297D01*
X33026Y252713D01*
X36813Y248926D01*
X38863Y243978D01*
X38863Y238622D01*
X36813Y233674D01*
X33026Y229887D01*
X31617Y229303D01*
X31556Y229265D01*
X31491Y229236D01*
X31452Y229201D01*
X31408Y229174D01*
X31362Y229118D01*
X31310Y229070D01*
X31285Y229024D01*
X31251Y228984D01*
X31226Y228917D01*
X31191Y228854D01*
X31182Y228803D01*
X31163Y228755D01*
X31160Y228683D01*
X31147Y228612D01*
X31155Y228561D01*
X31153Y228509D01*
X31173Y228440D01*
X31183Y228369D01*
X31207Y228323D01*
X31221Y228273D01*
X31262Y228214D01*
X31295Y228150D01*
X31332Y228113D01*
X31362Y228071D01*
X31419Y228028D01*
X31470Y227978D01*
X31533Y227943D01*
X31559Y227924D01*
X31581Y227917D01*
X31617Y227897D01*
X33026Y227313D01*
X36813Y223526D01*
X38863Y218578D01*
X38863Y213222D01*
X36813Y208274D01*
X33026Y204487D01*
X31617Y203903D01*
X31556Y203865D01*
X31491Y203836D01*
X31452Y203801D01*
X31408Y203774D01*
X31362Y203718D01*
X31310Y203670D01*
X31285Y203624D01*
X31251Y203584D01*
X31226Y203517D01*
X31191Y203454D01*
X31182Y203403D01*
X31163Y203355D01*
X31160Y203283D01*
X31147Y203212D01*
X31155Y203161D01*
X31153Y203109D01*
X31173Y203040D01*
X31183Y202969D01*
X31207Y202923D01*
X31221Y202873D01*
X31262Y202814D01*
X31295Y202750D01*
X31332Y202713D01*
X31362Y202671D01*
X31419Y202628D01*
X31470Y202578D01*
X31533Y202543D01*
X31559Y202524D01*
X31581Y202517D01*
X31617Y202497D01*
X33026Y201913D01*
X36813Y198126D01*
X38863Y193178D01*
X38863Y187822D01*
X36813Y182874D01*
X33026Y179087D01*
X29640Y177684D01*
X29554Y177631D01*
X29465Y177583D01*
X29450Y177566D01*
X29431Y177555D01*
X29367Y177477D01*
X29298Y177403D01*
X29289Y177382D01*
X29274Y177365D01*
X29238Y177271D01*
X29196Y177178D01*
X29194Y177156D01*
X29186Y177136D01*
X29182Y177035D01*
X29172Y176934D01*
X29177Y176912D01*
X29176Y176890D01*
X29204Y176793D01*
X29227Y176694D01*
X29238Y176675D01*
X29244Y176654D01*
X29302Y176571D01*
X29355Y176484D01*
X29372Y176470D01*
X29385Y176452D01*
X29466Y176391D01*
X29544Y176326D01*
X29568Y176315D01*
X29582Y176305D01*
X29613Y176295D01*
X29696Y176257D01*
X29983Y176164D01*
X31657Y175311D01*
X33178Y174206D01*
X34506Y172878D01*
X35611Y171357D01*
X36464Y169683D01*
X37045Y167896D01*
X37246Y166623D01*
X26162Y166623D01*
X26142Y166620D01*
X26123Y166622D01*
X26021Y166600D01*
X25919Y166583D01*
X25902Y166574D01*
X25882Y166570D01*
X25793Y166517D01*
X25702Y166468D01*
X25688Y166454D01*
X25671Y166444D01*
X25604Y166365D01*
X25533Y166290D01*
X25524Y166272D01*
X25511Y166257D01*
X25473Y166161D01*
X25429Y166067D01*
X25427Y166047D01*
X25419Y166029D01*
X25401Y165862D01*
X25401Y165099D01*
X25399Y165099D01*
G37*
%LPD*%
%LPC*%
G36*
X112739Y309653D02*
X112739Y309653D01*
X109855Y310848D01*
X109523Y311180D01*
X109449Y311234D01*
X109379Y311293D01*
X109349Y311305D01*
X109323Y311324D01*
X109236Y311351D01*
X109151Y311385D01*
X109110Y311389D01*
X109088Y311396D01*
X109056Y311395D01*
X108984Y311403D01*
X100387Y311403D01*
X98146Y312331D01*
X96431Y314046D01*
X95503Y316287D01*
X95503Y439184D01*
X95489Y439275D01*
X95481Y439365D01*
X95469Y439395D01*
X95464Y439427D01*
X95421Y439508D01*
X95385Y439592D01*
X95359Y439624D01*
X95348Y439645D01*
X95325Y439667D01*
X95280Y439723D01*
X94948Y440055D01*
X93753Y442939D01*
X93753Y446061D01*
X94948Y448945D01*
X97155Y451152D01*
X100039Y452347D01*
X103161Y452347D01*
X106045Y451152D01*
X107412Y449785D01*
X107428Y449774D01*
X107440Y449758D01*
X107528Y449702D01*
X107611Y449642D01*
X107630Y449636D01*
X107647Y449625D01*
X107748Y449600D01*
X107847Y449569D01*
X107866Y449570D01*
X107886Y449565D01*
X107989Y449573D01*
X108092Y449576D01*
X108111Y449583D01*
X108131Y449584D01*
X108226Y449624D01*
X108323Y449660D01*
X108339Y449673D01*
X108357Y449680D01*
X108488Y449785D01*
X109855Y451152D01*
X112739Y452347D01*
X115861Y452347D01*
X118745Y451152D01*
X120952Y448945D01*
X122147Y446061D01*
X122147Y445591D01*
X122150Y445573D01*
X122148Y445556D01*
X122162Y445489D01*
X122169Y445410D01*
X122181Y445380D01*
X122186Y445348D01*
X122198Y445327D01*
X122200Y445316D01*
X122229Y445267D01*
X122265Y445183D01*
X122291Y445151D01*
X122302Y445131D01*
X122323Y445110D01*
X122326Y445105D01*
X122331Y445101D01*
X122370Y445052D01*
X132169Y435254D01*
X133097Y433013D01*
X133097Y353296D01*
X133111Y353205D01*
X133119Y353115D01*
X133131Y353085D01*
X133136Y353053D01*
X133179Y352972D01*
X133215Y352888D01*
X133241Y352856D01*
X133252Y352835D01*
X133275Y352813D01*
X133320Y352757D01*
X133652Y352425D01*
X134847Y349541D01*
X134847Y346419D01*
X133652Y343535D01*
X131445Y341328D01*
X128561Y340133D01*
X125439Y340133D01*
X122555Y341328D01*
X120348Y343535D01*
X119153Y346419D01*
X119153Y349541D01*
X120348Y352425D01*
X120680Y352757D01*
X120733Y352831D01*
X120793Y352901D01*
X120805Y352931D01*
X120824Y352957D01*
X120851Y353044D01*
X120885Y353129D01*
X120889Y353170D01*
X120896Y353192D01*
X120895Y353224D01*
X120903Y353296D01*
X120903Y428959D01*
X120889Y429049D01*
X120881Y429140D01*
X120869Y429170D01*
X120864Y429202D01*
X120821Y429283D01*
X120785Y429367D01*
X120759Y429399D01*
X120748Y429419D01*
X120725Y429442D01*
X120680Y429498D01*
X113748Y436430D01*
X113674Y436483D01*
X113604Y436543D01*
X113574Y436555D01*
X113548Y436574D01*
X113461Y436601D01*
X113376Y436635D01*
X113335Y436639D01*
X113313Y436646D01*
X113281Y436645D01*
X113209Y436653D01*
X112739Y436653D01*
X109855Y437848D01*
X108996Y438707D01*
X108938Y438749D01*
X108886Y438798D01*
X108839Y438820D01*
X108797Y438850D01*
X108728Y438871D01*
X108663Y438902D01*
X108611Y438907D01*
X108561Y438923D01*
X108490Y438921D01*
X108419Y438929D01*
X108368Y438918D01*
X108316Y438916D01*
X108248Y438892D01*
X108178Y438876D01*
X108133Y438850D01*
X108085Y438832D01*
X108029Y438787D01*
X107967Y438750D01*
X107933Y438711D01*
X107893Y438678D01*
X107854Y438618D01*
X107807Y438563D01*
X107788Y438515D01*
X107760Y438471D01*
X107742Y438402D01*
X107715Y438335D01*
X107707Y438264D01*
X107699Y438233D01*
X107701Y438209D01*
X107697Y438169D01*
X107697Y324358D01*
X107700Y324338D01*
X107698Y324319D01*
X107720Y324217D01*
X107736Y324115D01*
X107746Y324098D01*
X107750Y324078D01*
X107803Y323989D01*
X107852Y323898D01*
X107866Y323884D01*
X107876Y323867D01*
X107955Y323800D01*
X108030Y323728D01*
X108048Y323720D01*
X108063Y323707D01*
X108159Y323668D01*
X108253Y323625D01*
X108273Y323623D01*
X108291Y323615D01*
X108458Y323597D01*
X108984Y323597D01*
X109075Y323611D01*
X109166Y323619D01*
X109195Y323631D01*
X109227Y323636D01*
X109308Y323679D01*
X109392Y323715D01*
X109424Y323741D01*
X109445Y323752D01*
X109467Y323775D01*
X109523Y323820D01*
X109855Y324152D01*
X112739Y325347D01*
X115861Y325347D01*
X118745Y324152D01*
X120952Y321945D01*
X122147Y319061D01*
X122147Y315939D01*
X120952Y313055D01*
X118745Y310848D01*
X115861Y309653D01*
X112739Y309653D01*
G37*
%LPD*%
%LPC*%
G36*
X403722Y62737D02*
X403722Y62737D01*
X398774Y64787D01*
X394987Y68574D01*
X394548Y69633D01*
X394487Y69733D01*
X394427Y69833D01*
X394422Y69837D01*
X394418Y69842D01*
X394329Y69917D01*
X394240Y69993D01*
X394234Y69995D01*
X394229Y69999D01*
X394121Y70041D01*
X394011Y70085D01*
X394004Y70086D01*
X393999Y70087D01*
X393981Y70088D01*
X393845Y70103D01*
X379787Y70103D01*
X377546Y71031D01*
X375831Y72746D01*
X374903Y74987D01*
X374903Y134384D01*
X374889Y134475D01*
X374881Y134565D01*
X374869Y134595D01*
X374864Y134627D01*
X374821Y134708D01*
X374785Y134792D01*
X374759Y134824D01*
X374748Y134845D01*
X374725Y134867D01*
X374680Y134923D01*
X374348Y135255D01*
X373153Y138139D01*
X373153Y141261D01*
X374348Y144145D01*
X376555Y146352D01*
X379439Y147547D01*
X382561Y147547D01*
X385445Y146352D01*
X387652Y144145D01*
X388847Y141261D01*
X388847Y138139D01*
X387652Y135255D01*
X387320Y134923D01*
X387267Y134849D01*
X387207Y134779D01*
X387195Y134749D01*
X387176Y134723D01*
X387149Y134636D01*
X387115Y134551D01*
X387111Y134510D01*
X387104Y134488D01*
X387105Y134456D01*
X387097Y134384D01*
X387097Y83058D01*
X387100Y83038D01*
X387098Y83019D01*
X387120Y82917D01*
X387136Y82815D01*
X387146Y82798D01*
X387150Y82778D01*
X387203Y82689D01*
X387252Y82598D01*
X387266Y82584D01*
X387276Y82567D01*
X387355Y82500D01*
X387430Y82428D01*
X387448Y82420D01*
X387463Y82407D01*
X387559Y82368D01*
X387653Y82325D01*
X387673Y82323D01*
X387691Y82315D01*
X387858Y82297D01*
X393845Y82297D01*
X393960Y82316D01*
X394076Y82333D01*
X394081Y82335D01*
X394087Y82336D01*
X394190Y82391D01*
X394295Y82444D01*
X394299Y82449D01*
X394305Y82452D01*
X394385Y82536D01*
X394467Y82620D01*
X394471Y82626D01*
X394474Y82630D01*
X394482Y82647D01*
X394548Y82767D01*
X394987Y83826D01*
X398774Y87613D01*
X400183Y88197D01*
X400244Y88234D01*
X400309Y88264D01*
X400348Y88299D01*
X400392Y88326D01*
X400438Y88382D01*
X400490Y88430D01*
X400515Y88476D01*
X400549Y88516D01*
X400574Y88583D01*
X400609Y88646D01*
X400618Y88697D01*
X400637Y88745D01*
X400640Y88817D01*
X400653Y88888D01*
X400645Y88939D01*
X400647Y88991D01*
X400627Y89060D01*
X400617Y89131D01*
X400593Y89177D01*
X400579Y89227D01*
X400538Y89286D01*
X400505Y89350D01*
X400468Y89387D01*
X400438Y89429D01*
X400381Y89472D01*
X400330Y89522D01*
X400267Y89557D01*
X400241Y89576D01*
X400219Y89583D01*
X400183Y89603D01*
X398774Y90187D01*
X394987Y93974D01*
X392937Y98922D01*
X392937Y104278D01*
X394987Y109226D01*
X398774Y113013D01*
X399833Y113452D01*
X399933Y113514D01*
X400033Y113573D01*
X400037Y113578D01*
X400042Y113582D01*
X400117Y113672D01*
X400193Y113760D01*
X400195Y113766D01*
X400199Y113771D01*
X400241Y113879D01*
X400285Y113989D01*
X400286Y113996D01*
X400287Y114001D01*
X400288Y114019D01*
X400303Y114155D01*
X400303Y159784D01*
X400289Y159875D01*
X400281Y159965D01*
X400269Y159995D01*
X400264Y160027D01*
X400221Y160108D01*
X400185Y160192D01*
X400159Y160224D01*
X400148Y160245D01*
X400125Y160267D01*
X400080Y160323D01*
X399748Y160655D01*
X398553Y163539D01*
X398553Y166661D01*
X399748Y169545D01*
X401955Y171752D01*
X404839Y172947D01*
X407961Y172947D01*
X410845Y171752D01*
X413052Y169545D01*
X414247Y166661D01*
X414247Y163539D01*
X413052Y160655D01*
X412720Y160323D01*
X412667Y160249D01*
X412607Y160179D01*
X412595Y160149D01*
X412576Y160123D01*
X412549Y160036D01*
X412515Y159951D01*
X412511Y159910D01*
X412504Y159888D01*
X412505Y159856D01*
X412497Y159784D01*
X412497Y114155D01*
X412516Y114041D01*
X412533Y113924D01*
X412535Y113919D01*
X412536Y113912D01*
X412591Y113810D01*
X412644Y113705D01*
X412649Y113701D01*
X412652Y113695D01*
X412736Y113615D01*
X412820Y113533D01*
X412826Y113529D01*
X412830Y113526D01*
X412847Y113518D01*
X412967Y113452D01*
X414026Y113013D01*
X417813Y109226D01*
X419863Y104278D01*
X419863Y98922D01*
X417813Y93974D01*
X414026Y90187D01*
X412617Y89603D01*
X412556Y89565D01*
X412491Y89536D01*
X412452Y89501D01*
X412408Y89474D01*
X412362Y89418D01*
X412310Y89370D01*
X412285Y89324D01*
X412251Y89284D01*
X412226Y89217D01*
X412191Y89154D01*
X412182Y89103D01*
X412163Y89055D01*
X412160Y88983D01*
X412147Y88912D01*
X412155Y88861D01*
X412153Y88809D01*
X412173Y88740D01*
X412183Y88669D01*
X412207Y88623D01*
X412221Y88573D01*
X412262Y88514D01*
X412295Y88450D01*
X412332Y88413D01*
X412362Y88371D01*
X412419Y88328D01*
X412470Y88278D01*
X412533Y88243D01*
X412559Y88224D01*
X412581Y88217D01*
X412617Y88197D01*
X414026Y87613D01*
X417813Y83826D01*
X419863Y78878D01*
X419863Y73522D01*
X417813Y68574D01*
X414026Y64787D01*
X409078Y62737D01*
X403722Y62737D01*
G37*
%LPD*%
%LPC*%
G36*
X354039Y106453D02*
X354039Y106453D01*
X351155Y107648D01*
X348948Y109855D01*
X347753Y112739D01*
X347753Y115861D01*
X348948Y118745D01*
X349280Y119077D01*
X349333Y119151D01*
X349393Y119221D01*
X349405Y119251D01*
X349424Y119277D01*
X349451Y119364D01*
X349485Y119449D01*
X349489Y119490D01*
X349496Y119512D01*
X349495Y119544D01*
X349503Y119616D01*
X349503Y197884D01*
X349489Y197975D01*
X349481Y198065D01*
X349469Y198095D01*
X349464Y198127D01*
X349421Y198208D01*
X349385Y198292D01*
X349359Y198324D01*
X349348Y198345D01*
X349325Y198367D01*
X349280Y198423D01*
X348948Y198755D01*
X347753Y201639D01*
X347753Y204761D01*
X348452Y206449D01*
X348475Y206544D01*
X348503Y206636D01*
X348503Y206663D01*
X348509Y206688D01*
X348499Y206785D01*
X348497Y206882D01*
X348488Y206907D01*
X348485Y206933D01*
X348446Y207022D01*
X348412Y207113D01*
X348396Y207134D01*
X348385Y207158D01*
X348320Y207229D01*
X348259Y207305D01*
X348237Y207320D01*
X348219Y207339D01*
X348134Y207386D01*
X348052Y207438D01*
X348027Y207445D01*
X348004Y207457D01*
X347908Y207475D01*
X347813Y207498D01*
X347787Y207496D01*
X347762Y207501D01*
X347665Y207487D01*
X347568Y207479D01*
X347544Y207469D01*
X347518Y207465D01*
X347431Y207421D01*
X347342Y207383D01*
X347316Y207363D01*
X347299Y207354D01*
X347276Y207330D01*
X347211Y207278D01*
X346688Y206755D01*
X344423Y206755D01*
X344423Y214377D01*
X352045Y214377D01*
X352045Y212112D01*
X351522Y211589D01*
X351465Y211510D01*
X351403Y211435D01*
X351393Y211411D01*
X351378Y211389D01*
X351350Y211296D01*
X351315Y211205D01*
X351314Y211179D01*
X351306Y211154D01*
X351308Y211057D01*
X351304Y210960D01*
X351312Y210935D01*
X351312Y210908D01*
X351346Y210817D01*
X351373Y210723D01*
X351388Y210702D01*
X351397Y210677D01*
X351458Y210601D01*
X351513Y210521D01*
X351534Y210506D01*
X351550Y210485D01*
X351633Y210433D01*
X351710Y210375D01*
X351735Y210367D01*
X351757Y210352D01*
X351852Y210329D01*
X351944Y210298D01*
X351970Y210299D01*
X351996Y210292D01*
X352093Y210300D01*
X352190Y210301D01*
X352222Y210310D01*
X352241Y210311D01*
X352271Y210324D01*
X352351Y210348D01*
X354039Y211047D01*
X357161Y211047D01*
X360045Y209852D01*
X362252Y207645D01*
X363447Y204761D01*
X363447Y201639D01*
X362252Y198755D01*
X361920Y198423D01*
X361867Y198349D01*
X361807Y198279D01*
X361795Y198249D01*
X361776Y198223D01*
X361749Y198136D01*
X361715Y198051D01*
X361711Y198010D01*
X361704Y197988D01*
X361705Y197956D01*
X361697Y197884D01*
X361697Y119616D01*
X361711Y119525D01*
X361719Y119435D01*
X361731Y119405D01*
X361736Y119373D01*
X361779Y119292D01*
X361815Y119208D01*
X361841Y119176D01*
X361852Y119155D01*
X361875Y119133D01*
X361920Y119077D01*
X362252Y118745D01*
X363447Y115861D01*
X363447Y112739D01*
X362252Y109855D01*
X360045Y107648D01*
X357161Y106453D01*
X354039Y106453D01*
G37*
%LPD*%
%LPC*%
G36*
X200522Y452627D02*
X200522Y452627D01*
X195574Y454677D01*
X191787Y458464D01*
X190384Y461850D01*
X190331Y461936D01*
X190283Y462025D01*
X190266Y462040D01*
X190255Y462059D01*
X190177Y462123D01*
X190103Y462192D01*
X190082Y462201D01*
X190065Y462216D01*
X189971Y462252D01*
X189878Y462294D01*
X189856Y462296D01*
X189836Y462304D01*
X189735Y462308D01*
X189634Y462318D01*
X189612Y462313D01*
X189590Y462314D01*
X189493Y462286D01*
X189394Y462263D01*
X189375Y462252D01*
X189354Y462246D01*
X189271Y462188D01*
X189184Y462135D01*
X189170Y462118D01*
X189152Y462105D01*
X189091Y462024D01*
X189026Y461946D01*
X189015Y461922D01*
X189005Y461908D01*
X188995Y461877D01*
X188957Y461794D01*
X188864Y461507D01*
X188011Y459833D01*
X186906Y458312D01*
X185578Y456984D01*
X184057Y455879D01*
X182383Y455026D01*
X180596Y454445D01*
X179323Y454244D01*
X179323Y465328D01*
X179320Y465348D01*
X179322Y465367D01*
X179300Y465469D01*
X179283Y465571D01*
X179274Y465588D01*
X179270Y465608D01*
X179217Y465697D01*
X179168Y465788D01*
X179154Y465802D01*
X179144Y465819D01*
X179065Y465886D01*
X178990Y465957D01*
X178972Y465966D01*
X178957Y465979D01*
X178861Y466017D01*
X178767Y466061D01*
X178747Y466063D01*
X178729Y466071D01*
X178562Y466089D01*
X177799Y466089D01*
X177799Y466091D01*
X178562Y466091D01*
X178582Y466094D01*
X178601Y466092D01*
X178703Y466114D01*
X178805Y466131D01*
X178822Y466140D01*
X178842Y466144D01*
X178931Y466197D01*
X179022Y466246D01*
X179036Y466260D01*
X179053Y466270D01*
X179120Y466349D01*
X179191Y466424D01*
X179200Y466442D01*
X179213Y466457D01*
X179252Y466553D01*
X179295Y466647D01*
X179297Y466667D01*
X179305Y466685D01*
X179323Y466852D01*
X179323Y477936D01*
X180596Y477735D01*
X182383Y477154D01*
X184057Y476301D01*
X185578Y475196D01*
X186906Y473868D01*
X188011Y472347D01*
X188864Y470673D01*
X188957Y470386D01*
X189004Y470296D01*
X189045Y470204D01*
X189060Y470188D01*
X189070Y470168D01*
X189143Y470097D01*
X189211Y470023D01*
X189231Y470012D01*
X189247Y469997D01*
X189338Y469953D01*
X189427Y469904D01*
X189449Y469900D01*
X189469Y469891D01*
X189569Y469878D01*
X189669Y469860D01*
X189691Y469864D01*
X189713Y469861D01*
X189812Y469881D01*
X189912Y469896D01*
X189932Y469906D01*
X189954Y469911D01*
X190041Y469962D01*
X190131Y470008D01*
X190147Y470024D01*
X190166Y470035D01*
X190233Y470111D01*
X190304Y470183D01*
X190317Y470207D01*
X190328Y470220D01*
X190340Y470250D01*
X190384Y470330D01*
X191787Y473716D01*
X195574Y477503D01*
X200522Y479553D01*
X205878Y479553D01*
X210826Y477503D01*
X214613Y473716D01*
X216663Y468768D01*
X216663Y463412D01*
X214613Y458464D01*
X210826Y454677D01*
X205878Y452627D01*
X200522Y452627D01*
G37*
%LPD*%
%LPC*%
G36*
X203174Y357631D02*
X203174Y357631D01*
X199253Y359255D01*
X196251Y362257D01*
X194627Y366178D01*
X194627Y370422D01*
X196251Y374343D01*
X199253Y377345D01*
X203174Y378969D01*
X220626Y378969D01*
X224547Y377345D01*
X227549Y374343D01*
X229173Y370422D01*
X229173Y366178D01*
X227549Y362257D01*
X224547Y359255D01*
X220626Y357631D01*
X203174Y357631D01*
G37*
%LPD*%
%LPC*%
G36*
X203174Y408431D02*
X203174Y408431D01*
X199253Y410055D01*
X196251Y413057D01*
X194627Y416978D01*
X194627Y421222D01*
X196251Y425143D01*
X199253Y428145D01*
X203174Y429769D01*
X220626Y429769D01*
X224547Y428145D01*
X227549Y425143D01*
X229173Y421222D01*
X229173Y416978D01*
X227549Y413057D01*
X224547Y410055D01*
X220626Y408431D01*
X203174Y408431D01*
G37*
%LPD*%
%LPC*%
G36*
X279374Y408431D02*
X279374Y408431D01*
X275453Y410055D01*
X272451Y413057D01*
X270827Y416978D01*
X270827Y421222D01*
X272451Y425143D01*
X275453Y428145D01*
X279374Y429769D01*
X296826Y429769D01*
X300747Y428145D01*
X303749Y425143D01*
X305373Y421222D01*
X305373Y416978D01*
X303749Y413057D01*
X300747Y410055D01*
X296826Y408431D01*
X279374Y408431D01*
G37*
%LPD*%
%LPC*%
G36*
X203174Y306831D02*
X203174Y306831D01*
X199253Y308455D01*
X196251Y311457D01*
X194627Y315378D01*
X194627Y319622D01*
X196251Y323543D01*
X199253Y326545D01*
X203174Y328169D01*
X220626Y328169D01*
X224547Y326545D01*
X227549Y323543D01*
X229173Y319622D01*
X229173Y315378D01*
X227549Y311457D01*
X224547Y308455D01*
X220626Y306831D01*
X203174Y306831D01*
G37*
%LPD*%
%LPC*%
G36*
X279374Y357631D02*
X279374Y357631D01*
X275453Y359255D01*
X272451Y362257D01*
X270827Y366178D01*
X270827Y370422D01*
X272451Y374343D01*
X275453Y377345D01*
X279374Y378969D01*
X296826Y378969D01*
X300747Y377345D01*
X303749Y374343D01*
X305373Y370422D01*
X305373Y366178D01*
X303749Y362257D01*
X300747Y359255D01*
X296826Y357631D01*
X279374Y357631D01*
G37*
%LPD*%
%LPC*%
G36*
X203174Y154431D02*
X203174Y154431D01*
X199253Y156055D01*
X196251Y159057D01*
X194627Y162978D01*
X194627Y167222D01*
X196251Y171143D01*
X199253Y174145D01*
X203174Y175769D01*
X220626Y175769D01*
X224547Y174145D01*
X227549Y171143D01*
X229173Y167222D01*
X229173Y162978D01*
X227549Y159057D01*
X224547Y156055D01*
X220626Y154431D01*
X203174Y154431D01*
G37*
%LPD*%
%LPC*%
G36*
X203174Y383031D02*
X203174Y383031D01*
X199253Y384655D01*
X196251Y387657D01*
X194627Y391578D01*
X194627Y395822D01*
X196251Y399743D01*
X199253Y402745D01*
X203174Y404369D01*
X220626Y404369D01*
X224547Y402745D01*
X227549Y399743D01*
X229173Y395822D01*
X229173Y391578D01*
X227549Y387657D01*
X224547Y384655D01*
X220626Y383031D01*
X203174Y383031D01*
G37*
%LPD*%
%LPC*%
G36*
X203174Y332231D02*
X203174Y332231D01*
X199253Y333855D01*
X196251Y336857D01*
X194627Y340778D01*
X194627Y345022D01*
X196251Y348943D01*
X199253Y351945D01*
X203174Y353569D01*
X220626Y353569D01*
X224547Y351945D01*
X227549Y348943D01*
X229173Y345022D01*
X229173Y340778D01*
X227549Y336857D01*
X224547Y333855D01*
X220626Y332231D01*
X203174Y332231D01*
G37*
%LPD*%
%LPC*%
G36*
X279374Y332231D02*
X279374Y332231D01*
X275453Y333855D01*
X272451Y336857D01*
X270827Y340778D01*
X270827Y345022D01*
X272451Y348943D01*
X275453Y351945D01*
X279374Y353569D01*
X296826Y353569D01*
X300747Y351945D01*
X303749Y348943D01*
X305373Y345022D01*
X305373Y340778D01*
X303749Y336857D01*
X300747Y333855D01*
X296826Y332231D01*
X279374Y332231D01*
G37*
%LPD*%
%LPC*%
G36*
X279374Y306831D02*
X279374Y306831D01*
X275453Y308455D01*
X272451Y311457D01*
X270827Y315378D01*
X270827Y319622D01*
X272451Y323543D01*
X275453Y326545D01*
X279374Y328169D01*
X296826Y328169D01*
X300747Y326545D01*
X303749Y323543D01*
X305373Y319622D01*
X305373Y315378D01*
X303749Y311457D01*
X300747Y308455D01*
X296826Y306831D01*
X279374Y306831D01*
G37*
%LPD*%
%LPC*%
G36*
X203174Y281431D02*
X203174Y281431D01*
X199253Y283055D01*
X196251Y286057D01*
X194627Y289978D01*
X194627Y294222D01*
X196251Y298143D01*
X199253Y301145D01*
X203174Y302769D01*
X220626Y302769D01*
X224547Y301145D01*
X227549Y298143D01*
X229173Y294222D01*
X229173Y289978D01*
X227549Y286057D01*
X224547Y283055D01*
X220626Y281431D01*
X203174Y281431D01*
G37*
%LPD*%
%LPC*%
G36*
X279374Y281431D02*
X279374Y281431D01*
X275453Y283055D01*
X272451Y286057D01*
X270827Y289978D01*
X270827Y294222D01*
X272451Y298143D01*
X275453Y301145D01*
X279374Y302769D01*
X296826Y302769D01*
X300747Y301145D01*
X303749Y298143D01*
X305373Y294222D01*
X305373Y289978D01*
X303749Y286057D01*
X300747Y283055D01*
X296826Y281431D01*
X279374Y281431D01*
G37*
%LPD*%
%LPC*%
G36*
X279374Y256031D02*
X279374Y256031D01*
X275453Y257655D01*
X272451Y260657D01*
X270827Y264578D01*
X270827Y268822D01*
X272451Y272743D01*
X275453Y275745D01*
X279374Y277369D01*
X296826Y277369D01*
X300747Y275745D01*
X303749Y272743D01*
X305373Y268822D01*
X305373Y264578D01*
X303749Y260657D01*
X300747Y257655D01*
X296826Y256031D01*
X279374Y256031D01*
G37*
%LPD*%
%LPC*%
G36*
X150839Y411253D02*
X150839Y411253D01*
X147955Y412448D01*
X145748Y414655D01*
X144553Y417539D01*
X144553Y420661D01*
X145748Y423545D01*
X146080Y423877D01*
X146133Y423951D01*
X146193Y424021D01*
X146205Y424051D01*
X146224Y424077D01*
X146251Y424164D01*
X146285Y424249D01*
X146289Y424290D01*
X146296Y424312D01*
X146295Y424344D01*
X146303Y424416D01*
X146303Y444074D01*
X146300Y444094D01*
X146302Y444113D01*
X146287Y444182D01*
X146281Y444255D01*
X146269Y444285D01*
X146264Y444317D01*
X146254Y444336D01*
X146250Y444353D01*
X146215Y444412D01*
X146185Y444482D01*
X146159Y444514D01*
X146148Y444535D01*
X146132Y444550D01*
X146124Y444564D01*
X146109Y444577D01*
X146080Y444613D01*
X145748Y444945D01*
X144553Y447829D01*
X144553Y450951D01*
X145748Y453835D01*
X147955Y456042D01*
X150839Y457237D01*
X153961Y457237D01*
X156845Y456042D01*
X159052Y453835D01*
X160247Y450951D01*
X160247Y447829D01*
X159052Y444945D01*
X158720Y444613D01*
X158674Y444550D01*
X158628Y444501D01*
X158621Y444486D01*
X158607Y444469D01*
X158595Y444439D01*
X158576Y444413D01*
X158554Y444341D01*
X158525Y444278D01*
X158523Y444260D01*
X158515Y444241D01*
X158511Y444200D01*
X158504Y444178D01*
X158505Y444146D01*
X158497Y444074D01*
X158497Y424416D01*
X158511Y424325D01*
X158519Y424235D01*
X158531Y424205D01*
X158536Y424173D01*
X158579Y424092D01*
X158615Y424008D01*
X158641Y423976D01*
X158652Y423955D01*
X158675Y423933D01*
X158720Y423877D01*
X159052Y423545D01*
X160247Y420661D01*
X160247Y417539D01*
X159052Y414655D01*
X156845Y412448D01*
X153961Y411253D01*
X150839Y411253D01*
G37*
%LPD*%
%LPC*%
G36*
X22722Y431037D02*
X22722Y431037D01*
X17774Y433087D01*
X13987Y436874D01*
X11937Y441822D01*
X11937Y447178D01*
X13987Y452126D01*
X17774Y455913D01*
X22722Y457963D01*
X28078Y457963D01*
X33026Y455913D01*
X36813Y452126D01*
X38863Y447178D01*
X38863Y441822D01*
X36813Y436874D01*
X33026Y433087D01*
X28078Y431037D01*
X22722Y431037D01*
G37*
%LPD*%
%LPC*%
G36*
X147981Y17271D02*
X147981Y17271D01*
X141731Y23521D01*
X141731Y32359D01*
X147981Y38609D01*
X156819Y38609D01*
X163069Y32359D01*
X163069Y23521D01*
X156819Y17271D01*
X147981Y17271D01*
G37*
%LPD*%
%LPC*%
G36*
X313081Y395731D02*
X313081Y395731D01*
X306831Y401981D01*
X306831Y410819D01*
X313081Y417069D01*
X321919Y417069D01*
X328169Y410819D01*
X328169Y401981D01*
X321919Y395731D01*
X313081Y395731D01*
G37*
%LPD*%
%LPC*%
G36*
X89561Y52831D02*
X89561Y52831D01*
X83311Y59081D01*
X83311Y67919D01*
X89561Y74169D01*
X98399Y74169D01*
X104649Y67919D01*
X104649Y59081D01*
X98399Y52831D01*
X89561Y52831D01*
G37*
%LPD*%
%LPC*%
G36*
X118771Y52831D02*
X118771Y52831D01*
X112521Y59081D01*
X112521Y67919D01*
X118771Y74169D01*
X127609Y74169D01*
X133859Y67919D01*
X133859Y59081D01*
X127609Y52831D01*
X118771Y52831D01*
G37*
%LPD*%
%LPC*%
G36*
X289623Y192023D02*
X289623Y192023D01*
X289623Y199645D01*
X295605Y199645D01*
X297371Y199293D01*
X299036Y198604D01*
X300534Y197603D01*
X301807Y196330D01*
X302808Y194832D01*
X303497Y193167D01*
X303725Y192023D01*
X289623Y192023D01*
G37*
%LPD*%
%LPC*%
G36*
X289623Y395223D02*
X289623Y395223D01*
X289623Y402845D01*
X295605Y402845D01*
X297371Y402493D01*
X299036Y401804D01*
X300534Y400803D01*
X301807Y399530D01*
X302808Y398032D01*
X303497Y396367D01*
X303725Y395223D01*
X289623Y395223D01*
G37*
%LPD*%
%LPC*%
G36*
X213423Y242823D02*
X213423Y242823D01*
X213423Y250445D01*
X219405Y250445D01*
X221171Y250093D01*
X222836Y249404D01*
X224334Y248403D01*
X225607Y247130D01*
X226608Y245632D01*
X227297Y243967D01*
X227525Y242823D01*
X213423Y242823D01*
G37*
%LPD*%
%LPC*%
G36*
X272475Y395223D02*
X272475Y395223D01*
X272703Y396367D01*
X273392Y398032D01*
X274393Y399530D01*
X275666Y400803D01*
X277164Y401804D01*
X278829Y402493D01*
X280595Y402845D01*
X286577Y402845D01*
X286577Y395223D01*
X272475Y395223D01*
G37*
%LPD*%
%LPC*%
G36*
X289623Y384555D02*
X289623Y384555D01*
X289623Y392177D01*
X303725Y392177D01*
X303497Y391033D01*
X302808Y389368D01*
X301807Y387870D01*
X300534Y386597D01*
X299036Y385596D01*
X297371Y384907D01*
X295605Y384555D01*
X289623Y384555D01*
G37*
%LPD*%
%LPC*%
G36*
X289623Y181355D02*
X289623Y181355D01*
X289623Y188977D01*
X303725Y188977D01*
X303497Y187833D01*
X302808Y186168D01*
X301807Y184670D01*
X300534Y183397D01*
X299036Y182396D01*
X297371Y181707D01*
X295605Y181355D01*
X289623Y181355D01*
G37*
%LPD*%
%LPC*%
G36*
X213423Y232155D02*
X213423Y232155D01*
X213423Y239777D01*
X227525Y239777D01*
X227297Y238633D01*
X226608Y236968D01*
X225607Y235470D01*
X224334Y234197D01*
X222836Y233196D01*
X221171Y232507D01*
X219405Y232155D01*
X213423Y232155D01*
G37*
%LPD*%
%LPC*%
G36*
X280595Y384555D02*
X280595Y384555D01*
X278829Y384907D01*
X277164Y385596D01*
X275666Y386597D01*
X274393Y387870D01*
X273392Y389368D01*
X272703Y391033D01*
X272475Y392177D01*
X286577Y392177D01*
X286577Y384555D01*
X280595Y384555D01*
G37*
%LPD*%
%LPC*%
G36*
X26923Y407923D02*
X26923Y407923D01*
X26923Y418246D01*
X28196Y418045D01*
X29983Y417464D01*
X31657Y416611D01*
X33178Y415506D01*
X34506Y414178D01*
X35611Y412657D01*
X36464Y410983D01*
X37045Y409196D01*
X37246Y407923D01*
X26923Y407923D01*
G37*
%LPD*%
%LPC*%
G36*
X343153Y29463D02*
X343153Y29463D01*
X343153Y39786D01*
X344426Y39585D01*
X346213Y39004D01*
X347887Y38151D01*
X349408Y37046D01*
X350736Y35718D01*
X351841Y34197D01*
X352694Y32523D01*
X353275Y30736D01*
X353476Y29463D01*
X343153Y29463D01*
G37*
%LPD*%
%LPC*%
G36*
X75183Y29463D02*
X75183Y29463D01*
X75183Y39786D01*
X76456Y39585D01*
X78243Y39004D01*
X79917Y38151D01*
X81438Y37046D01*
X82766Y35718D01*
X83871Y34197D01*
X84724Y32523D01*
X85305Y30736D01*
X85506Y29463D01*
X75183Y29463D01*
G37*
%LPD*%
%LPC*%
G36*
X26923Y141223D02*
X26923Y141223D01*
X26923Y151546D01*
X28196Y151345D01*
X29983Y150764D01*
X31657Y149911D01*
X33178Y148806D01*
X34506Y147478D01*
X35611Y145957D01*
X36464Y144283D01*
X37045Y142496D01*
X37246Y141223D01*
X26923Y141223D01*
G37*
%LPD*%
%LPC*%
G36*
X26923Y138177D02*
X26923Y138177D01*
X37246Y138177D01*
X37045Y136904D01*
X36464Y135117D01*
X35611Y133443D01*
X34506Y131922D01*
X33178Y130594D01*
X31657Y129489D01*
X29983Y128636D01*
X28196Y128055D01*
X26923Y127854D01*
X26923Y138177D01*
G37*
%LPD*%
%LPC*%
G36*
X471423Y138177D02*
X471423Y138177D01*
X481746Y138177D01*
X481545Y136904D01*
X480964Y135117D01*
X480111Y133443D01*
X479006Y131922D01*
X477678Y130594D01*
X476157Y129489D01*
X474483Y128636D01*
X472696Y128055D01*
X471423Y127854D01*
X471423Y138177D01*
G37*
%LPD*%
%LPC*%
G36*
X165954Y467613D02*
X165954Y467613D01*
X166155Y468886D01*
X166736Y470673D01*
X167589Y472347D01*
X168694Y473868D01*
X170022Y475196D01*
X171543Y476301D01*
X173217Y477154D01*
X175004Y477735D01*
X176277Y477936D01*
X176277Y467613D01*
X165954Y467613D01*
G37*
%LPD*%
%LPC*%
G36*
X26923Y404877D02*
X26923Y404877D01*
X37246Y404877D01*
X37045Y403604D01*
X36464Y401817D01*
X35611Y400143D01*
X34506Y398622D01*
X33178Y397294D01*
X31657Y396189D01*
X29983Y395336D01*
X28196Y394755D01*
X26923Y394554D01*
X26923Y404877D01*
G37*
%LPD*%
%LPC*%
G36*
X13554Y407923D02*
X13554Y407923D01*
X13755Y409196D01*
X14336Y410983D01*
X15189Y412657D01*
X16294Y414178D01*
X17622Y415506D01*
X19143Y416611D01*
X20817Y417464D01*
X22604Y418045D01*
X23877Y418246D01*
X23877Y407923D01*
X13554Y407923D01*
G37*
%LPD*%
%LPC*%
G36*
X26923Y163577D02*
X26923Y163577D01*
X37246Y163577D01*
X37045Y162304D01*
X36464Y160517D01*
X35611Y158843D01*
X34506Y157322D01*
X33178Y155994D01*
X31657Y154889D01*
X29983Y154036D01*
X28196Y153455D01*
X26923Y153254D01*
X26923Y163577D01*
G37*
%LPD*%
%LPC*%
G36*
X13554Y141223D02*
X13554Y141223D01*
X13755Y142496D01*
X14336Y144283D01*
X15189Y145957D01*
X16294Y147478D01*
X17622Y148806D01*
X19143Y149911D01*
X20817Y150764D01*
X22604Y151345D01*
X23877Y151546D01*
X23877Y141223D01*
X13554Y141223D01*
G37*
%LPD*%
%LPC*%
G36*
X61814Y29463D02*
X61814Y29463D01*
X62015Y30736D01*
X62596Y32523D01*
X63449Y34197D01*
X64554Y35718D01*
X65882Y37046D01*
X67403Y38151D01*
X69077Y39004D01*
X70864Y39585D01*
X72137Y39786D01*
X72137Y29463D01*
X61814Y29463D01*
G37*
%LPD*%
%LPC*%
G36*
X329784Y29463D02*
X329784Y29463D01*
X329985Y30736D01*
X330566Y32523D01*
X331419Y34197D01*
X332524Y35718D01*
X333852Y37046D01*
X335373Y38151D01*
X337047Y39004D01*
X338834Y39585D01*
X340107Y39786D01*
X340107Y29463D01*
X329784Y29463D01*
G37*
%LPD*%
%LPC*%
G36*
X343153Y26417D02*
X343153Y26417D01*
X353476Y26417D01*
X353275Y25144D01*
X352694Y23357D01*
X351841Y21683D01*
X350736Y20162D01*
X349408Y18834D01*
X347887Y17729D01*
X346213Y16876D01*
X344426Y16295D01*
X343153Y16094D01*
X343153Y26417D01*
G37*
%LPD*%
%LPC*%
G36*
X75183Y26417D02*
X75183Y26417D01*
X85506Y26417D01*
X85305Y25144D01*
X84724Y23357D01*
X83871Y21683D01*
X82766Y20162D01*
X81438Y18834D01*
X79917Y17729D01*
X78243Y16876D01*
X76456Y16295D01*
X75183Y16094D01*
X75183Y26417D01*
G37*
%LPD*%
%LPC*%
G36*
X22604Y128055D02*
X22604Y128055D01*
X20817Y128636D01*
X19143Y129489D01*
X17622Y130594D01*
X16294Y131922D01*
X15189Y133443D01*
X14336Y135117D01*
X13755Y136904D01*
X13554Y138177D01*
X23877Y138177D01*
X23877Y127854D01*
X22604Y128055D01*
G37*
%LPD*%
%LPC*%
G36*
X467104Y128055D02*
X467104Y128055D01*
X465317Y128636D01*
X463643Y129489D01*
X462122Y130594D01*
X460794Y131922D01*
X459689Y133443D01*
X458836Y135117D01*
X458255Y136904D01*
X458054Y138177D01*
X468377Y138177D01*
X468377Y127854D01*
X467104Y128055D01*
G37*
%LPD*%
%LPC*%
G36*
X70864Y16295D02*
X70864Y16295D01*
X69077Y16876D01*
X67403Y17729D01*
X65882Y18834D01*
X64554Y20162D01*
X63449Y21683D01*
X62596Y23357D01*
X62015Y25144D01*
X61814Y26417D01*
X72137Y26417D01*
X72137Y16094D01*
X70864Y16295D01*
G37*
%LPD*%
%LPC*%
G36*
X175004Y454445D02*
X175004Y454445D01*
X173217Y455026D01*
X171543Y455879D01*
X170022Y456984D01*
X168694Y458312D01*
X167589Y459833D01*
X166736Y461507D01*
X166155Y463294D01*
X165954Y464567D01*
X176277Y464567D01*
X176277Y454244D01*
X175004Y454445D01*
G37*
%LPD*%
%LPC*%
G36*
X22604Y153455D02*
X22604Y153455D01*
X20817Y154036D01*
X19143Y154889D01*
X17622Y155994D01*
X16294Y157322D01*
X15189Y158843D01*
X14336Y160517D01*
X13755Y162304D01*
X13554Y163577D01*
X23877Y163577D01*
X23877Y153254D01*
X22604Y153455D01*
G37*
%LPD*%
%LPC*%
G36*
X338834Y16295D02*
X338834Y16295D01*
X337047Y16876D01*
X335373Y17729D01*
X333852Y18834D01*
X332524Y20162D01*
X331419Y21683D01*
X330566Y23357D01*
X329985Y25144D01*
X329784Y26417D01*
X340107Y26417D01*
X340107Y16094D01*
X338834Y16295D01*
G37*
%LPD*%
%LPC*%
G36*
X22604Y394755D02*
X22604Y394755D01*
X20817Y395336D01*
X19143Y396189D01*
X17622Y397294D01*
X16294Y398622D01*
X15189Y400143D01*
X14336Y401817D01*
X13755Y403604D01*
X13554Y404877D01*
X23877Y404877D01*
X23877Y394554D01*
X22604Y394755D01*
G37*
%LPD*%
%LPC*%
G36*
X350214Y468415D02*
X350214Y468415D01*
X348427Y468996D01*
X346753Y469849D01*
X345232Y470954D01*
X343904Y472282D01*
X342799Y473803D01*
X341946Y475477D01*
X341365Y477264D01*
X341164Y478537D01*
X351487Y478537D01*
X351487Y468214D01*
X350214Y468415D01*
G37*
%LPD*%
%LPC*%
G36*
X124713Y166623D02*
X124713Y166623D01*
X124713Y174245D01*
X126978Y174245D01*
X132335Y168888D01*
X132335Y166623D01*
X124713Y166623D01*
G37*
%LPD*%
%LPC*%
G36*
X153923Y115823D02*
X153923Y115823D01*
X153923Y123445D01*
X156188Y123445D01*
X161545Y118088D01*
X161545Y115823D01*
X153923Y115823D01*
G37*
%LPD*%
%LPC*%
G36*
X344423Y407923D02*
X344423Y407923D01*
X344423Y415545D01*
X346688Y415545D01*
X352045Y410188D01*
X352045Y407923D01*
X344423Y407923D01*
G37*
%LPD*%
%LPC*%
G36*
X344423Y217423D02*
X344423Y217423D01*
X344423Y225045D01*
X346688Y225045D01*
X352045Y219688D01*
X352045Y217423D01*
X344423Y217423D01*
G37*
%LPD*%
%LPC*%
G36*
X95503Y166623D02*
X95503Y166623D01*
X95503Y174245D01*
X97768Y174245D01*
X103125Y168888D01*
X103125Y166623D01*
X95503Y166623D01*
G37*
%LPD*%
%LPC*%
G36*
X143255Y115823D02*
X143255Y115823D01*
X143255Y118088D01*
X148612Y123445D01*
X150877Y123445D01*
X150877Y115823D01*
X143255Y115823D01*
G37*
%LPD*%
%LPC*%
G36*
X333755Y407923D02*
X333755Y407923D01*
X333755Y410188D01*
X339112Y415545D01*
X341377Y415545D01*
X341377Y407923D01*
X333755Y407923D01*
G37*
%LPD*%
%LPC*%
G36*
X333755Y217423D02*
X333755Y217423D01*
X333755Y219688D01*
X339112Y225045D01*
X341377Y225045D01*
X341377Y217423D01*
X333755Y217423D01*
G37*
%LPD*%
%LPC*%
G36*
X114045Y166623D02*
X114045Y166623D01*
X114045Y168888D01*
X119402Y174245D01*
X121667Y174245D01*
X121667Y166623D01*
X114045Y166623D01*
G37*
%LPD*%
%LPC*%
G36*
X84835Y166623D02*
X84835Y166623D01*
X84835Y168888D01*
X90192Y174245D01*
X92457Y174245D01*
X92457Y166623D01*
X84835Y166623D01*
G37*
%LPD*%
%LPC*%
G36*
X95503Y155955D02*
X95503Y155955D01*
X95503Y163577D01*
X103125Y163577D01*
X103125Y161312D01*
X97768Y155955D01*
X95503Y155955D01*
G37*
%LPD*%
%LPC*%
G36*
X124713Y155955D02*
X124713Y155955D01*
X124713Y163577D01*
X132335Y163577D01*
X132335Y161312D01*
X126978Y155955D01*
X124713Y155955D01*
G37*
%LPD*%
%LPC*%
G36*
X344423Y397255D02*
X344423Y397255D01*
X344423Y404877D01*
X352045Y404877D01*
X352045Y402612D01*
X346688Y397255D01*
X344423Y397255D01*
G37*
%LPD*%
%LPC*%
G36*
X153923Y105155D02*
X153923Y105155D01*
X153923Y112777D01*
X161545Y112777D01*
X161545Y110512D01*
X156188Y105155D01*
X153923Y105155D01*
G37*
%LPD*%
%LPC*%
G36*
X90192Y155955D02*
X90192Y155955D01*
X84835Y161312D01*
X84835Y163577D01*
X92457Y163577D01*
X92457Y155955D01*
X90192Y155955D01*
G37*
%LPD*%
%LPC*%
G36*
X119402Y155955D02*
X119402Y155955D01*
X114045Y161312D01*
X114045Y163577D01*
X121667Y163577D01*
X121667Y155955D01*
X119402Y155955D01*
G37*
%LPD*%
%LPC*%
G36*
X339112Y206755D02*
X339112Y206755D01*
X333755Y212112D01*
X333755Y214377D01*
X341377Y214377D01*
X341377Y206755D01*
X339112Y206755D01*
G37*
%LPD*%
%LPC*%
G36*
X148612Y105155D02*
X148612Y105155D01*
X143255Y110512D01*
X143255Y112777D01*
X150877Y112777D01*
X150877Y105155D01*
X148612Y105155D01*
G37*
%LPD*%
%LPC*%
G36*
X339112Y397255D02*
X339112Y397255D01*
X333755Y402612D01*
X333755Y404877D01*
X341377Y404877D01*
X341377Y397255D01*
X339112Y397255D01*
G37*
%LPD*%
%LPC*%
G36*
X342899Y215899D02*
X342899Y215899D01*
X342899Y215901D01*
X342901Y215901D01*
X342901Y215899D01*
X342899Y215899D01*
G37*
%LPD*%
%LPC*%
G36*
X93979Y165099D02*
X93979Y165099D01*
X93979Y165101D01*
X93981Y165101D01*
X93981Y165099D01*
X93979Y165099D01*
G37*
%LPD*%
%LPC*%
G36*
X123189Y165099D02*
X123189Y165099D01*
X123189Y165101D01*
X123191Y165101D01*
X123191Y165099D01*
X123189Y165099D01*
G37*
%LPD*%
%LPC*%
G36*
X25399Y406399D02*
X25399Y406399D01*
X25399Y406401D01*
X25401Y406401D01*
X25401Y406399D01*
X25399Y406399D01*
G37*
%LPD*%
%LPC*%
G36*
X152399Y114299D02*
X152399Y114299D01*
X152399Y114301D01*
X152401Y114301D01*
X152401Y114299D01*
X152399Y114299D01*
G37*
%LPD*%
%LPC*%
G36*
X288099Y393699D02*
X288099Y393699D01*
X288099Y393701D01*
X288101Y393701D01*
X288101Y393699D01*
X288099Y393699D01*
G37*
%LPD*%
%LPC*%
G36*
X25399Y139699D02*
X25399Y139699D01*
X25399Y139701D01*
X25401Y139701D01*
X25401Y139699D01*
X25399Y139699D01*
G37*
%LPD*%
%LPC*%
G36*
X341629Y27939D02*
X341629Y27939D01*
X341629Y27941D01*
X341631Y27941D01*
X341631Y27939D01*
X341629Y27939D01*
G37*
%LPD*%
%LPC*%
G36*
X73659Y27939D02*
X73659Y27939D01*
X73659Y27941D01*
X73661Y27941D01*
X73661Y27939D01*
X73659Y27939D01*
G37*
%LPD*%
%LPC*%
G36*
X342899Y406399D02*
X342899Y406399D01*
X342899Y406401D01*
X342901Y406401D01*
X342901Y406399D01*
X342899Y406399D01*
G37*
%LPD*%
D10*
X205296Y419100D02*
X218504Y419100D01*
X218504Y393700D02*
X205296Y393700D01*
X205296Y368300D02*
X218504Y368300D01*
X218504Y342900D02*
X205296Y342900D01*
X205296Y317500D02*
X218504Y317500D01*
X218504Y292100D02*
X205296Y292100D01*
X205296Y266700D02*
X218504Y266700D01*
X218504Y241300D02*
X205296Y241300D01*
X205296Y215900D02*
X218504Y215900D01*
X218504Y190500D02*
X205296Y190500D01*
X205296Y165100D02*
X218504Y165100D01*
X218504Y139700D02*
X205296Y139700D01*
X205296Y114300D02*
X218504Y114300D01*
X218504Y88900D02*
X205296Y88900D01*
X281496Y88900D02*
X294704Y88900D01*
X294704Y114300D02*
X281496Y114300D01*
X281496Y139700D02*
X294704Y139700D01*
X294704Y165100D02*
X281496Y165100D01*
X281496Y190500D02*
X294704Y190500D01*
X294704Y215900D02*
X281496Y215900D01*
X281496Y241300D02*
X294704Y241300D01*
X294704Y266700D02*
X281496Y266700D01*
X281496Y292100D02*
X294704Y292100D01*
X294704Y317500D02*
X281496Y317500D01*
X281496Y342900D02*
X294704Y342900D01*
X294704Y368300D02*
X281496Y368300D01*
X281496Y393700D02*
X294704Y393700D01*
X294704Y419100D02*
X281496Y419100D01*
D11*
X177800Y466090D03*
X203200Y466090D03*
D12*
X262020Y449590D03*
X287020Y449590D03*
X312020Y449590D03*
X312020Y482590D03*
X287020Y482590D03*
X262020Y482590D03*
D11*
X76200Y190500D03*
X101600Y190500D03*
X127000Y190500D03*
X152400Y190500D03*
X353010Y480060D03*
X378410Y480060D03*
X403810Y480060D03*
X429210Y480060D03*
X454610Y480060D03*
X480010Y480060D03*
X123000Y480060D03*
X97600Y480060D03*
X72200Y480060D03*
X46800Y480060D03*
X21400Y480060D03*
X444500Y21590D03*
X444500Y46990D03*
X444500Y72390D03*
X444500Y97790D03*
X469900Y368300D03*
X469900Y342900D03*
X469900Y317500D03*
X469900Y292100D03*
X469900Y266700D03*
X406400Y76200D03*
D13*
X127000Y27940D03*
X152400Y27940D03*
D14*
X227330Y27940D03*
X201930Y27940D03*
D11*
X22860Y27940D03*
X73660Y27940D03*
X290830Y27940D03*
X341630Y27940D03*
D15*
X93980Y165100D03*
X93980Y63500D03*
X123190Y165100D03*
X123190Y63500D03*
D16*
X63500Y64770D03*
X63500Y166370D03*
D13*
X317500Y406400D03*
X342900Y406400D03*
D14*
X177800Y114300D03*
X152400Y114300D03*
D13*
X317500Y215900D03*
X342900Y215900D03*
D14*
X177800Y330200D03*
X76200Y330200D03*
D11*
X406400Y101600D03*
X469900Y241300D03*
X469900Y215900D03*
X469900Y190500D03*
X469900Y165100D03*
X469900Y139700D03*
X25400Y241300D03*
X25400Y215900D03*
X25400Y190500D03*
X25400Y165100D03*
X25400Y139700D03*
X25400Y368300D03*
X25400Y342900D03*
X25400Y317500D03*
X25400Y292100D03*
X25400Y266700D03*
X25400Y444500D03*
X25400Y406400D03*
X52070Y425450D03*
D17*
X262020Y449590D02*
X262020Y482590D01*
X312020Y482590D02*
X312020Y449590D01*
D18*
X63500Y414020D02*
X52070Y425450D01*
X63500Y414020D02*
X63500Y215900D01*
D19*
X63500Y215900D03*
D17*
X287020Y449590D02*
X287020Y482590D01*
D19*
X444500Y431800D03*
D18*
X444500Y215900D01*
X469900Y190500D01*
X127000Y38100D02*
X127000Y27940D01*
X127000Y38100D02*
X165100Y76200D01*
X177800Y76200D01*
X177800Y114300D01*
X76200Y190500D02*
X76200Y330200D01*
X76200Y406400D01*
D19*
X76200Y444500D03*
D18*
X76200Y406400D01*
D19*
X76200Y406400D03*
D18*
X444500Y165100D02*
X469900Y165100D01*
X97600Y465900D02*
X76200Y444500D01*
X97600Y465900D02*
X97600Y480060D01*
D19*
X444500Y165100D03*
D18*
X63500Y64770D02*
X50800Y77470D01*
D19*
X50800Y406400D03*
D18*
X50800Y77470D01*
D19*
X152400Y419100D03*
D18*
X152400Y449390D01*
D19*
X152400Y449390D03*
X114300Y444500D03*
D18*
X127000Y431800D01*
X127000Y347980D01*
D19*
X127000Y347980D03*
X101600Y444500D03*
D18*
X101600Y317500D01*
X114300Y317500D01*
D19*
X114300Y317500D03*
D18*
X211900Y139700D02*
X190500Y118300D01*
X190500Y63500D02*
X226060Y27940D01*
X227330Y27940D01*
X190500Y63500D02*
X190500Y118300D01*
D19*
X254000Y165100D03*
D18*
X254000Y64770D02*
X290830Y27940D01*
X254000Y64770D02*
X254000Y165100D01*
X177800Y165100D02*
X177800Y330200D01*
D19*
X177800Y165100D03*
X190500Y266700D03*
D18*
X190500Y190500D01*
X211900Y190500D01*
D19*
X431800Y190500D03*
D18*
X429210Y193090D01*
X429210Y480060D01*
X241300Y88900D02*
X211900Y88900D01*
X241300Y88900D02*
X241300Y254000D01*
D19*
X241300Y254000D03*
X406400Y165100D03*
D18*
X406400Y101600D01*
D19*
X381000Y139700D03*
D18*
X381000Y76200D01*
X406400Y76200D01*
D19*
X355600Y114300D03*
D18*
X355600Y203200D01*
D19*
X355600Y203200D03*
D18*
X288100Y88900D02*
X266700Y88900D01*
X266700Y228600D01*
D19*
X266700Y228600D03*
M02*
