M48
;GenerationSoftware,Autodesk,EAGLE,9.6.2*%
;CreationDate,2022-04-13T06:09:53Z*%
FMAT,2
ICI,OFF
METRIC,TZ,000.000
T4C0.350
T3C0.813
T2C0.900
T1C1.016
%
G90
M71
T1
X17780Y46609
X20320Y46609
X2540Y34290
X2540Y31750
X2540Y29210
X2540Y26670
X2540Y44450
X2540Y40640
X7620Y19050
X10160Y19050
X12700Y19050
X15240Y19050
X5207Y42545
X37841Y48006
X40381Y48006
X46990Y36830
X42921Y48006
X45461Y48006
X48001Y48006
X12300Y48006
X9760Y48006
X7220Y48006
X4680Y48006
X2140Y48006
X44450Y2159
X44450Y4699
X44450Y7239
X44450Y9779
X46990Y34290
X46990Y31750
X46990Y29210
X46990Y26670
X40640Y7620
X2286Y2794
X7366Y2794
X29083Y2794
X34163Y2794
X46990Y19050
X40640Y10160
X46990Y24130
X46990Y21590
X46990Y16510
X46990Y13970
X2540Y24130
X2540Y21590
X2540Y19050
X2540Y16510
X35301Y48006
X2540Y13970
X2540Y36830
T2
X31202Y48259
X31202Y44959
X28702Y44959
X26202Y44959
X26202Y48259
X28702Y48259
T3
X21190Y21590
X22733Y2794
X9398Y16510
X9398Y6350
X20193Y2794
X12319Y6350
X6350Y16637
X31750Y40640
X34290Y40640
X28810Y13970
X17780Y11430
X15240Y11430
X31750Y21590
X34290Y21590
X17780Y33020
X12319Y16510
X21190Y41910
X21190Y39370
X21190Y36830
X21190Y34290
X21190Y31750
X21190Y29210
X21190Y26670
X21190Y24130
X21190Y19050
X21190Y16510
X21190Y13970
X21190Y11430
X21190Y8890
X28810Y8890
X28810Y11430
X6350Y6477
X28810Y16510
X28810Y19050
X28810Y21590
X28810Y24130
X28810Y26670
X28810Y29210
X28810Y31750
X28810Y34290
X28810Y39370
X28810Y41910
X7620Y33020
X28810Y36830
X12700Y2794
X15240Y2794
T4
X44450Y43180
X7620Y44450
X7620Y40640
X44450Y16510
X5080Y40640
X15240Y41910
X15240Y44939
X11430Y44450
X10160Y44450
X11430Y31750
X25400Y16510
X17780Y16510
X19050Y26670
X24130Y25400
X6350Y21590
X38100Y13970
X40640Y16510
X43180Y19050
X26670Y22860
X35560Y20320
X12700Y34798
X35560Y11430
M30