G04 EAGLE Gerber RS-274X export*
G75*
%MOMM*%
%FSLAX34Y34*%
%LPD*%
%INSoldermask Top*%
%IPPOS*%
%AMOC8*
5,1,8,0,0,1.08239X$1,22.5*%
G01*
%ADD10C,1.524000*%
%ADD11C,2.082800*%
%ADD12C,1.611200*%
%ADD13P,1.649562X8X22.500000*%
%ADD14P,1.649562X8X202.500000*%
%ADD15P,1.649562X8X292.500000*%
%ADD16P,1.649562X8X112.500000*%
%ADD17C,0.959600*%


D10*
X205296Y419100D02*
X218504Y419100D01*
X218504Y393700D02*
X205296Y393700D01*
X205296Y368300D02*
X218504Y368300D01*
X218504Y342900D02*
X205296Y342900D01*
X205296Y317500D02*
X218504Y317500D01*
X218504Y292100D02*
X205296Y292100D01*
X205296Y266700D02*
X218504Y266700D01*
X218504Y241300D02*
X205296Y241300D01*
X205296Y215900D02*
X218504Y215900D01*
X218504Y190500D02*
X205296Y190500D01*
X205296Y165100D02*
X218504Y165100D01*
X218504Y139700D02*
X205296Y139700D01*
X205296Y114300D02*
X218504Y114300D01*
X218504Y88900D02*
X205296Y88900D01*
X281496Y88900D02*
X294704Y88900D01*
X294704Y114300D02*
X281496Y114300D01*
X281496Y139700D02*
X294704Y139700D01*
X294704Y165100D02*
X281496Y165100D01*
X281496Y190500D02*
X294704Y190500D01*
X294704Y215900D02*
X281496Y215900D01*
X281496Y241300D02*
X294704Y241300D01*
X294704Y266700D02*
X281496Y266700D01*
X281496Y292100D02*
X294704Y292100D01*
X294704Y317500D02*
X281496Y317500D01*
X281496Y342900D02*
X294704Y342900D01*
X294704Y368300D02*
X281496Y368300D01*
X281496Y393700D02*
X294704Y393700D01*
X294704Y419100D02*
X281496Y419100D01*
D11*
X177800Y466090D03*
X203200Y466090D03*
D12*
X262020Y449590D03*
X287020Y449590D03*
X312020Y449590D03*
X312020Y482590D03*
X287020Y482590D03*
X262020Y482590D03*
D11*
X76200Y190500D03*
X101600Y190500D03*
X127000Y190500D03*
X152400Y190500D03*
X353010Y480060D03*
X378410Y480060D03*
X403810Y480060D03*
X429210Y480060D03*
X454610Y480060D03*
X480010Y480060D03*
X123000Y480060D03*
X97600Y480060D03*
X72200Y480060D03*
X46800Y480060D03*
X21400Y480060D03*
X444500Y21590D03*
X444500Y46990D03*
X444500Y72390D03*
X444500Y97790D03*
X469900Y368300D03*
X469900Y342900D03*
X469900Y317500D03*
X469900Y292100D03*
X469900Y266700D03*
X406400Y76200D03*
D13*
X127000Y27940D03*
X152400Y27940D03*
D14*
X227330Y27940D03*
X201930Y27940D03*
D11*
X22860Y27940D03*
X73660Y27940D03*
X290830Y27940D03*
X341630Y27940D03*
D15*
X93980Y165100D03*
X93980Y63500D03*
X123190Y165100D03*
X123190Y63500D03*
D16*
X63500Y64770D03*
X63500Y166370D03*
D13*
X317500Y406400D03*
X342900Y406400D03*
D14*
X177800Y114300D03*
X152400Y114300D03*
D13*
X317500Y215900D03*
X342900Y215900D03*
D14*
X177800Y330200D03*
X76200Y330200D03*
D11*
X406400Y101600D03*
X469900Y241300D03*
X469900Y215900D03*
X469900Y190500D03*
X469900Y165100D03*
X469900Y139700D03*
X25400Y241300D03*
X25400Y215900D03*
X25400Y190500D03*
X25400Y165100D03*
X25400Y139700D03*
X25400Y368300D03*
X25400Y342900D03*
X25400Y317500D03*
X25400Y292100D03*
X25400Y266700D03*
X25400Y444500D03*
X25400Y406400D03*
X52070Y425450D03*
D17*
X63500Y215900D03*
X444500Y431800D03*
X76200Y444500D03*
X76200Y406400D03*
X444500Y165100D03*
X50800Y406400D03*
X152400Y419100D03*
X152400Y449390D03*
X114300Y444500D03*
X127000Y347980D03*
X101600Y444500D03*
X114300Y317500D03*
X254000Y165100D03*
X177800Y165100D03*
X190500Y266700D03*
X431800Y190500D03*
X241300Y254000D03*
X406400Y165100D03*
X381000Y139700D03*
X355600Y114300D03*
X355600Y203200D03*
X266700Y228600D03*
M02*
